<svg xmlns="http://www.w3.org/2000/svg" viewBox="0 0 2283.9 1508.9"><path d="M986.6 1280.8c-5.3 34.5-8.8 52.5-31.7 72-11.7 10-25.5 20.4-37.5 26.6-21.2 11.1-21.5 12.8-21.5 16.3s.3 15.6 34.9 15.6h523.1c34.6 0 34.9-12.1 34.9-15.6s-.3-5.2-21.5-16.3c-12-6.3-25.8-16.7-37.5-26.6-22.9-19.5-26.4-37.5-31.7-72-3.8-24.8-13.1-106.1-18-149.8h-375.7c-4.7 43.6-14 124.9-17.8 149.8zm-385.6-247.8h-50.6v98h33.8v-59.3c-.1-15.3 6.4-29 16.8-38.7zm1472.6-1032.1h-1762.4c-24.2 0-44 19.8-44 44v658.3h77v-625.3h1696.4v955h-1259c10.4 9.7 16.9 23.4 16.9 38.7v59.3h1275.2c24.2 0 44-19.8 44-44v-1042c-.1-24.2-19.9-44-44.1-44zm-881.2 45.2c-4.5 0-8.1-3.6-8.1-8.1s3.6-8.1 8.1-8.1 8.1 3.6 8.1 8.1c0 4.4-3.6 8.1-8.1 8.1zm-695.1 681.2h-468.3c-16 0-29 13-29 29v626c0 16 13 29 29 29h468.3c16 0 29-13 29-29v-626c0-16-13-29-29-29zm-234.1 28.4c2.5 0 4.5 2 4.5 4.5s-2 4.5-4.5 4.5-4.5-2-4.5-4.5 2-4.5 4.5-4.5zm0 638.8c-7.8 0-14.2-6.3-14.2-14.2 0-7.8 6.3-14.2 14.2-14.2s14.2 6.3 14.2 14.2c-.1 7.8-6.4 14.2-14.2 14.2zm210.5-44.2h-421v-562h421v562z"/><circle cx="263.2" cy="1380.3" r="14.2"/><circle cx="263.2" cy="760.2" r="4.5"/><path d="M774.4 1071.7c0-16-13-29-29-29h-108.3c-16 0-29 13-29 29v292.6c0 16 13 29 29 29h108.3c16 0 29-13 29-29v-292.6zm-83.1-17.2c1.7 0 3.2 1.4 3.2 3.2 0 1.7-1.4 3.2-3.2 3.2s-3.2-1.4-3.2-3.2c0-1.8 1.4-3.2 3.2-3.2zm-11.5 12.7h23c1.1 0 2 .7 2 1.6s-.9 1.6-2 1.6h-23c-1.1 0-2-.7-2-1.6s.9-1.6 2-1.6zm-9.3 0c.9 0 1.6.7 1.6 1.6s-.7 1.6-1.6 1.6c-.9 0-1.6-.7-1.6-1.6s.7-1.6 1.6-1.6zm20.8 316.6c-7.8 0-14.2-6.3-14.2-14.2 0-7.8 6.3-14.2 14.2-14.2s14.2 6.3 14.2 14.2c-.1 7.9-6.4 14.2-14.2 14.2zm-73-37.1v-257.3h146v257.3h-146z"/><circle cx="691.3" cy="1369.7" r="14.2"/><circle cx="691.3" cy="1057.7" r="3.2"/><path d="M679.8 1070.3h23c1.1 0 2-.7 2-1.6s-.9-1.6-2-1.6h-23c-1.1 0-2 .7-2 1.6s.9 1.6 2 1.6z"/><circle cx="670.5" cy="1068.8" r="1.6"/><path d="M1428 582.2l-90.9 90.9c-4.1 4-9.7 6.4-15.8 6.4-12.6 0-22.7-10.2-22.7-22.7 0-6.2 2.5-11.7 6.4-15.8l75-75-74.7-74.7c-4.3-4.1-6.9-9.9-6.9-16.3 0-12.6 10.2-22.7 22.7-22.7 6.4 0 12.2 2.7 16.3 6.9l89.6 89.6c4.8 4.2 8 10.3 8 17.2 0 6.3-2.7 12.1-7 16.2zm-274.9 150.5c-3.2 8.8-11.5 15-21.4 15-12.6 0-22.7-10.2-22.7-22.7 0-2.9.5-5.6 1.5-8.2l121-317.7c3.2-8.8 11.5-15 21.4-15 12.6 0 22.7 10.2 22.7 22.7 0 2.9-.5 5.6-1.5 8.2l-121 317.7zm-73.5-241.4l-74.7 74.7 75 75c4 4.1 6.4 9.7 6.4 15.8 0 12.6-10.2 22.7-22.7 22.7-6.2 0-11.7-2.5-15.8-6.4l-90.9-90.9c-4.3-4.1-6.9-9.9-6.9-16.3 0-6.9 3.1-13 8-17.2l89.6-89.6c4.1-4.3 9.9-6.9 16.3-6.9 12.6 0 22.7 10.2 22.7 22.7-.1 6.5-2.8 12.3-7 16.4z"/></svg>
