<svg xmlns="http://www.w3.org/2000/svg" viewBox="0 0 2283.9 1508.9"><path d="M986.8 1280.8c-5.3 34.5-8.8 52.5-31.7 72-11.7 10-25.5 20.4-37.5 26.6-21.2 11.1-21.5 12.8-21.5 16.3s.3 15.6 34.9 15.6h523.1c34.6 0 34.9-12.1 34.9-15.6s-.3-5.2-21.5-16.3c-12-6.3-25.8-16.7-37.5-26.6-22.9-19.5-26.4-37.5-31.7-72-3.8-24.8-13.1-106.1-18-149.8h-375.7c-4.8 43.6-14 124.9-17.8 149.8zM2073.8.9h-1762.4c-24.2 0-44 19.8-44 44v1042c0 24.2 19.8 44 44 44h1451.8v-6.5c0-13.5 5.4-26.2 15.5-36.5 6.9-7 16.1-13.2 27.5-18.3 10.2-4.6 20.9-7.7 29.5-9.8 2.5-6.9 5.3-13.8 8.5-20.5-1.2-2-2.4-4.2-3.6-6.5h-1496.2v-955h1696.4v780.7h1.2c13.2 0 25.5 5.1 35.8 14.8 7 6.6 13.2 15.6 18.3 26.5 4.7 10.2 8 20.9 10.2 29.8 3.9 1.4 7.7 2.8 11.5 4.4v-889.1c0-24.2-19.8-44-44-44zm-881.2 45.2c-4.5 0-8.1-3.6-8.1-8.1s3.6-8.1 8.1-8.1 8.1 3.6 8.1 8.1c0 4.4-3.7 8.1-8.1 8.1zM2218.1 1080.3c-4.2-15.2-10.3-29.6-17.9-43 8.7-11.7 38.7-55.4 17.1-77l-11.1-11.7c-4.3-4.3-10.3-6.1-17-6.1-21.7 0-51.4 18.2-60.1 23.9-13.5-7.7-28.1-13.8-43.5-17.9-2.5-14.7-13.2-65.9-43.6-65.9h-12.2c-26.1 0-41.1 53-44.4 66.2-15.2 4.2-29.5 10.4-42.9 18-7.9-5.8-35.1-24.8-57.5-24.8-7.6 0-14.7 2.2-20.2 7.7l-11.7 9.8c-19.2 19.2 12.7 69.9 18.6 78.8-7.4 13.2-13.3 27.3-17.4 42.2-12.7 2-67.1 12.5-67.1 43.8v12.2c0 27.1 57 42.2 67.5 44.7 4.1 14.8 10.1 28.8 17.5 41.9-6.1 9.6-36.8 60.1-17.8 79.1l11.1 9.2c5.8 5.8 13.2 8.1 21 8.1 25.7 0 56.4-24.2 56.4-24.2l-2.4-2.6c13.9 8.2 28.9 14.7 44.8 19.2 2.6 10.7 17.7 67.3 44.7 67.3h12.2c35.4 0 44.2-66.1 44.2-66.1l-3.3-.1c16.1-4.1 31.3-10.3 45.4-18.2 8.5 5.6 37.6 24 59.1 24 6.6 0 12.5-1.7 16.8-6.1l12.3-12.3c24.7-24.7-15.5-75.3-16.6-76.7 7.6-13.4 13.8-27.7 18-42.9 13.8-3.5 65.8-18.4 65.8-44.3v-12.2c0-34.2-61.9-43.5-65.8-44zm-182.5 190.5c-77.2 0-139.7-62.6-139.7-139.7 0-77.2 62.6-139.7 139.7-139.7 77.2 0 139.7 62.6 139.7 139.7s-62.6 139.7-139.7 139.7zM1767.3 767.7c-2.6 9.3-6.4 18.2-11.1 26.4.7.9 25.4 32 10.2 47.2l-7.6 7.6c-11.4 11.4-40-6.5-46.8-11-8.7 4.9-18.1 8.7-28 11.2l2 .1s-5.4 40.7-27.2 40.7h-7.5c-16.6 0-25.9-34.9-27.5-41.5-9.8-2.7-19-6.7-27.6-11.8l1.5 1.6s-32.2 25.3-47.7 9.9l-6.8-5.7c-11.7-11.7 7.2-42.8 11-48.7-4.6-8-8.2-16.7-10.8-25.8-6.4-1.6-41.5-10.8-41.5-27.5v-7.4c0-19.3 33.5-25.7 41.3-27 2.5-9.2 6.2-17.9 10.7-26-3.6-5.5-23.3-36.7-11.4-48.5l7.2-6.1c13.6-13.6 41.4 5.7 47.9 10.5 8.2-4.7 17.1-8.5 26.4-11.1 2.1-8.2 11.3-40.8 27.3-40.8h7.5c18.7 0 25.3 31.5 26.9 40.6 9.5 2.6 18.4 6.3 26.8 11 7.1-4.6 36.1-22.3 47.5-11l6.8 7.2c13.3 13.3-5.1 40.2-10.5 47.4 4.7 8.2 8.5 17.1 11 26.5 2.4.3 40.5 6.1 40.5 27.2v7.5c.1 16-32 25.2-40.5 27.3zm-112.3-116.7c-47.5 0-86 38.5-86 86s38.5 86 86 86 86-38.5 86-86-38.5-86-86-86zM1272.6 934.9h-572.7c-13.4 0-24.3-10.9-24.3-24.3v-9.7c0-13.4 10.9-24.3 24.3-24.3h572.7c13.4 0 24.3 10.9 24.3 24.3v9.7c-.1 13.4-10.9 24.3-24.3 24.3zm-92.2-87.4h-58.2c-16.1 0-29.1-13-29.1-29.1v-378.6c0-16.1 13-29.1 29.1-29.1h58.2c16.1 0 29.1 13 29.1 29.1v378.6c0 16.1-13.1 29.1-29.1 29.1zm-165.1 0h-58.2c-16.1 0-29.1-13-29.1-29.1v-242.7c0-16.1 13-29.1 29.1-29.1h58.2c16.1 0 29.1 13 29.1 29.1v242.7c.1 16.1-13 29.1-29.1 29.1zm-165 0h-58.2c-16.1 0-29.1-13-29.1-29.1v-106.8c0-16.1 13-29.1 29.1-29.1h58.2c16.1 0 29.1 13 29.1 29.1v106.8c0 16.1-13 29.1-29.1 29.1z"/></svg>
