<svg xmlns="http://www.w3.org/2000/svg" viewBox="0 0 600 210.9" fill="#f8f9fB"><path d="M354.7 206.1c-1.8-.9-3.9-2.5-5.6-4-3.4-2.9-4-5.6-4.7-10.8-.8-5.2-3.2-26.6-3.2-26.6h-55.2s-2.4 21.5-3.2 26.6c-.8 5.2-1.3 7.9-4.7 10.8-1.7 1.5-3.8 3-5.6 4-3.2 1.7-3.2 1.9-3.2 2.4s0 2.3 5.2 2.3h78.10000000000001c5.2 0 5.2-1.8 5.2-2.3s.1-.7-3.1-2.4zM445.4 0h-263.5c-3.6 0-6.6 3-6.6 6.6v155.8c0 3.6 3 6.6 6.6 6.6h263.5c3.6 0 6.6-3 6.6-6.6v-155.8c0-3.6-3-6.6-6.6-6.6zm-131.8 4.3c.7 0 1.2.5 1.2 1.2s-.5 1.2-1.2 1.2-1.2-.5-1.2-1.2c0-.6.6-1.2 1.2-1.2zm126.9 150h-253.7v-142.8h253.7v142.8zM151 206.2h-64.7c0 .8-.9 1.5-2.1 1.5h-17c-1.2 0-2.1-.7-2.1-1.5h-64.9c-.3 0-.2.2-.2.2v.6c0 2.8 3.5 4 5.6 4h140c2 0 5.6-1.1 5.6-4v-.6s0-.2-.2-.2zM133.7 122.5h-116.2c-1.8 0-3.3 1.5-3.3 3.3v75.3c0 1.8 1.5 3.3 3.3 3.3h116.1c1.8 0 3.3-1.5 3.3-3.3v-75.3c0-1.8-1.4-3.3-3.2-3.3zm-58.1 1.7c.4 0 .7.3.7.7 0 .4-.3.7-.7.7s-.7-.3-.7-.7c0-.4.3-.7.7-.7zm57.9 75.4h-115.8v-72.2h115.7v72.2zM595.7 126.2h-48.4c-2.4 0-4.3 2-4.3 4.3v76.1c0 2.4 2 4.3 4.3 4.3h48.4c2.4 0 4.3-2 4.3-4.3v-76.1c0-2.4-2-4.3-4.3-4.3zm-24.2 3.6c.4 0 .7.3.7.7 0 .4-.3.7-.7.7-.4 0-.7-.3-.7-.7 0-.3.3-.7.7-.7zm0 79.2c-1.2 0-2.1-.9-2.1-2.1 0-1.2.9-2.1 2.1-2.1 1.2 0 2.1.9 2.1 2.1 0 1.1-1 2.1-2.1 2.1zm25.7-6.4h-51.5v-68.1h51.5v68.1zM501.4 158.5h-16.2c-2.4 0-4.3 2-4.3 4.3v43.8c0 2.4 2 4.3 4.3 4.3h16.2c2.4 0 4.3-2 4.3-4.3v-43.8c.1-2.4-1.9-4.3-4.3-4.3zm-8.1 1.7c.3 0 .5.2.5.5s-.2.5-.5.5-.5-.2-.5-.5.3-.5.5-.5zm-1.7 1.9h3.4c.2 0 .3.1.3.2s-.1.2-.3.2h-3.4c-.2 0-.3-.1-.3-.2s.1-.2.3-.2zm-1.4 0c.1 0 .2.1.2.2s-.1.2-.2.2-.2-.1-.2-.2.1-.2.2-.2zm3.1 47.4c-1.2 0-2.1-.9-2.1-2.1s.9-2.1 2.1-2.1 2.1.9 2.1 2.1-.9 2.1-2.1 2.1zm10.9-5.6h-21.8v-38.5h21.8v38.5z"/></svg>