<?xml version="1.0" encoding="UTF-8"?><!DOCTYPE svg PUBLIC "-//W3C//DTD SVG 1.1//EN" "http://www.w3.org/Graphics/SVG/1.1/DTD/svg11.dtd"><svg xmlns="http://www.w3.org/2000/svg"><symbol id="arrow" viewBox="-156 158.6 197.4 197.4"><path d="M41.4 209.1l-98.7 101.6-98.7-101.6 5.4-5.2 93.3 96 93.3-96z"/></symbol><symbol id="behance" viewBox="0 0 24 24"><path d="M22 7h-7V5h7v2zm1.726 10c-.442 1.297-2.03 3-5.1 3-3.075 0-5.565-1.73-5.565-5.675 0-3.91 2.326-5.92 5.467-5.92 3.082 0 4.964 1.782 5.375 4.426.078.507.11 1.19.095 2.14H15.97c.13 3.212 3.483 3.313 4.588 2.03h3.168zm-7.686-4h4.965c-.105-1.547-1.136-2.22-2.477-2.22-1.466 0-2.277.77-2.488 2.22zm-9.574 6.988H0V5.02h6.953c5.476.082 5.58 5.445 2.72 6.907 3.46 1.26 3.577 8.06-3.207 8.06zM3 11h3.584c2.508 0 2.906-3-.312-3H3v3zm3.39 3H3v3.016h3.34c3.056 0 2.87-3.016.05-3.016z"/></symbol><symbol id="development" viewBox="0 0 2283.9 1508.9"><path d="M986.6 1280.8c-5.3 34.5-8.8 52.5-31.7 72-11.7 10-25.5 20.4-37.5 26.6-21.2 11.1-21.5 12.8-21.5 16.3s.3 15.6 34.9 15.6h523.1c34.6 0 34.9-12.1 34.9-15.6s-.3-5.2-21.5-16.3c-12-6.3-25.8-16.7-37.5-26.6-22.9-19.5-26.4-37.5-31.7-72-3.8-24.8-13.1-106.1-18-149.8h-375.7c-4.7 43.6-14 124.9-17.8 149.8zM601 1033h-50.6v98h33.8v-59.3c-.1-15.3 6.4-29 16.8-38.7zM2073.6.9H311.2c-24.2 0-44 19.8-44 44v658.3h77V77.9h1696.4v955h-1259c10.4 9.7 16.9 23.4 16.9 38.7v59.3h1275.2c24.2 0 44-19.8 44-44V44.9c-.1-24.2-19.9-44-44.1-44zm-881.2 45.2c-4.5 0-8.1-3.6-8.1-8.1s3.6-8.1 8.1-8.1 8.1 3.6 8.1 8.1c0 4.4-3.6 8.1-8.1 8.1zM497.3 727.3H29c-16 0-29 13-29 29v626c0 16 13 29 29 29h468.3c16 0 29-13 29-29v-626c0-16-13-29-29-29zm-234.1 28.4c2.5 0 4.5 2 4.5 4.5s-2 4.5-4.5 4.5-4.5-2-4.5-4.5 2-4.5 4.5-4.5zm0 638.8c-7.8 0-14.2-6.3-14.2-14.2 0-7.8 6.3-14.2 14.2-14.2s14.2 6.3 14.2 14.2c-.1 7.8-6.4 14.2-14.2 14.2zm210.5-44.2h-421v-562h421v562z"/><circle cx="263.2" cy="1380.3" r="14.2"/><circle cx="263.2" cy="760.2" r="4.5"/><path d="M774.4 1071.7c0-16-13-29-29-29H637.1c-16 0-29 13-29 29v292.6c0 16 13 29 29 29h108.3c16 0 29-13 29-29v-292.6zm-83.1-17.2c1.7 0 3.2 1.4 3.2 3.2 0 1.7-1.4 3.2-3.2 3.2s-3.2-1.4-3.2-3.2c0-1.8 1.4-3.2 3.2-3.2zm-11.5 12.7h23c1.1 0 2 .7 2 1.6s-.9 1.6-2 1.6h-23c-1.1 0-2-.7-2-1.6s.9-1.6 2-1.6zm-9.3 0c.9 0 1.6.7 1.6 1.6s-.7 1.6-1.6 1.6c-.9 0-1.6-.7-1.6-1.6s.7-1.6 1.6-1.6zm20.8 316.6c-7.8 0-14.2-6.3-14.2-14.2 0-7.8 6.3-14.2 14.2-14.2s14.2 6.3 14.2 14.2c-.1 7.9-6.4 14.2-14.2 14.2zm-73-37.1v-257.3h146v257.3h-146z"/><circle cx="691.3" cy="1369.7" r="14.2"/><circle cx="691.3" cy="1057.7" r="3.2"/><path d="M679.8 1070.3h23c1.1 0 2-.7 2-1.6s-.9-1.6-2-1.6h-23c-1.1 0-2 .7-2 1.6s.9 1.6 2 1.6z"/><circle cx="670.5" cy="1068.8" r="1.6"/><path d="M1428 582.2l-90.9 90.9c-4.1 4-9.7 6.4-15.8 6.4-12.6 0-22.7-10.2-22.7-22.7 0-6.2 2.5-11.7 6.4-15.8l75-75-74.7-74.7c-4.3-4.1-6.9-9.9-6.9-16.3 0-12.6 10.2-22.7 22.7-22.7 6.4 0 12.2 2.7 16.3 6.9l89.6 89.6c4.8 4.2 8 10.3 8 17.2 0 6.3-2.7 12.1-7 16.2zm-274.9 150.5c-3.2 8.8-11.5 15-21.4 15-12.6 0-22.7-10.2-22.7-22.7 0-2.9.5-5.6 1.5-8.2l121-317.7c3.2-8.8 11.5-15 21.4-15 12.6 0 22.7 10.2 22.7 22.7 0 2.9-.5 5.6-1.5 8.2l-121 317.7zm-73.5-241.4l-74.7 74.7 75 75c4 4.1 6.4 9.7 6.4 15.8 0 12.6-10.2 22.7-22.7 22.7-6.2 0-11.7-2.5-15.8-6.4l-90.9-90.9c-4.3-4.1-6.9-9.9-6.9-16.3 0-6.9 3.1-13 8-17.2l89.6-89.6c4.1-4.3 9.9-6.9 16.3-6.9 12.6 0 22.7 10.2 22.7 22.7-.1 6.5-2.8 12.3-7 16.4z"/></symbol><symbol id="dribbble" viewBox="0 0 24 24"><path d="M12 0C5.372 0 0 5.373 0 12s5.372 12 12 12 12-5.373 12-12S18.628 0 12 0zm9.885 11.44c-2.575-.42-4.943-.444-7.103-.072a42.153 42.153 0 0 0-.767-1.68c2.31-1 4.165-2.358 5.548-4.082a9.863 9.863 0 0 1 2.322 5.835zm-3.842-7.28c-1.205 1.553-2.868 2.782-4.986 3.68A46.287 46.287 0 0 0 9.57 2.4 9.894 9.894 0 0 1 12 2.088a9.86 9.86 0 0 1 6.043 2.072zM7.527 3.165a44.59 44.59 0 0 1 3.537 5.38c-2.43.716-5.33 1.083-8.684 1.106a9.93 9.93 0 0 1 5.147-6.486zM2.087 12l.013-.256c3.85-.005 7.17-.448 9.95-1.322.233.475.456.952.67 1.432-3.38 1.057-6.165 3.222-8.337 6.48A9.865 9.865 0 0 1 2.087 12zm3.83 7.81c1.968-3.088 4.48-5.098 7.597-6.027.928 2.42 1.61 4.91 2.043 7.46a9.824 9.824 0 0 1-9.64-1.433zm11.585.43a41.098 41.098 0 0 0-1.92-6.897c1.876-.265 3.94-.196 6.2.196a9.923 9.923 0 0 1-4.28 6.7z"/></symbol><symbol id="facebook" viewBox="0 0 512 512"><path d="M204.067 184.692h-43.144v70.426h43.144V462h82.965V254.238h57.882l6.162-69.546h-64.044v-39.615c0-16.398 3.302-22.89 19.147-22.89h44.896V50h-57.441c-61.734 0-89.567 27.179-89.567 79.231v55.461z"/></symbol><symbol id="github" viewBox="0 0 512 512"><path d="M256 55.083c-113.764 0-206 92.237-206 206 0 91.013 59.025 168.246 140.887 195.472 10.293 1.91 13.613-4.46 13.613-9.908V408.29C147.2 420.765 135.262 384 135.262 384c-9.354-23.822-22.865-30.16-22.865-30.16-18.693-12.773 1.408-12.522 1.408-12.522 20.688 1.46 31.584 21.24 31.584 21.24 18.37 31.483 48.18 22.38 59.94 17.117 1.84-13.312 7.17-22.397 13.07-27.544-45.77-5.19-93.85-22.86-93.85-101.81 0-22.49 8.04-40.87 21.22-55.28-2.15-5.19-9.19-26.15 1.98-54.52 0 0 17.3-5.53 56.66 21.13 16.44-4.56 34.06-6.85 51.57-6.94 17.5.09 35.15 2.38 51.6 6.94 39.33-26.65 56.59-21.12 56.59-21.12 11.21 28.37 4.15 49.32 2.03 54.52 13.21 14.42 21.2 32.79 21.2 55.29 0 79.13-48.2 96.55-94.07 101.64 7.37 6.39 14.13 18.95 14.13 38.16v56.53c0 5.48 3.3 11.9 13.75 9.89C403.06 429.27 462 352.08 462 261.09c0-113.766-92.238-206-206-206z"/></symbol><symbol id="google-plus" viewBox="0 0 512 512"><path d="M462 141.347h-54.621v54.622h-27.311v-54.622h-54.622v-27.311h54.622v-54.62h27.311v54.621H462v27.31zM307.583 367.26c0 40.943-37.384 90.787-131.434 90.787C107.365 458.047 50 428.379 50 378.478c0-38.514 24.383-88.511 138.323-88.511-16.922-13.792-21.075-33.077-10.733-53.959-66.714 0-100.879-39.222-100.879-89.023 0-48.731 36.242-93.032 110.15-93.032h118.398l-26.457 27.77h-31.079c21.925 12.562 33.586 38.433 33.586 66.949 0 26.175-14.413 47.375-34.983 63.279-36.503 28.222-27.158 43.98 11.087 71.872 37.708 28.251 50.17 50.059 50.17 83.437zm-73.845-216.807c-5.506-41.905-32.806-76.284-64.704-77.243-31.909-.949-53.309 31.119-47.798 73.035 5.509 41.905 35.834 71.178 67.749 72.139 31.897.949 50.257-26.021 44.753-67.931zm32.893 221.01c0-34.466-31.441-67.317-84.192-67.317-47.542-.523-87.832 30.042-87.832 65.471 0 36.154 34.335 66.25 81.879 66.25 60.781-.001 90.145-28.25 90.145-64.404z"/></symbol><symbol id="graphic-design" viewBox="0 0 2283.9 1508.9"><path d="M987.6 1279.8c-5.3 34.5-8.8 52.5-31.7 72-11.7 10-25.5 20.4-37.5 26.6-21.2 11.1-21.5 12.8-21.5 16.3s.3 15.6 34.9 15.6h523.1c34.6 0 34.9-12.1 34.9-15.6s-.3-5.2-21.5-16.3c-12-6.3-25.8-16.7-37.5-26.6-22.9-19.5-26.4-37.5-31.7-72-3.8-24.8-13.1-106.1-18-149.8h-375.7c-4.7 43.7-14 125-17.8 149.8zM2074.6 0H312.2c-24.2 0-44 19.8-44 44v1042c0 24.2 19.8 44 44 44h148.6l98.2-98H345.2V77h1696.4v955H828.9l-98.2 98h1344c24.2 0 44-19.8 44-44V44c-.1-24.2-19.9-44-44.1-44zm-881.2 45.1c-4.5 0-8.1-3.6-8.1-8.1s3.6-8.1 8.1-8.1 8.1 3.6 8.1 8.1-3.6 8.1-8.1 8.1zM849.8 977.2l75.7-75.6c13.9-13.9 13.9-36.5 0-50.4L875 800.8c-7-7-16.1-10.4-25.2-10.4s-18.3 3.5-25.2 10.4l-75.7 75.6 100.9 100.8zm145.5 460H301.8c-19.8 0-35.9 16.1-35.9 35.9 0 19.8 16.1 35.9 35.9 35.9h693.5c19.8 0 35.9-16.1 35.9-35.9 0-19.9-16.1-35.9-35.9-35.9zM420.7 1204l100.9 100.8 303-302.4-101-100.8zm-59.1 159.5l134.6-33.5-101-100.8zM1760 920.2h-757.5c-21.6 0-39.2-17.5-39.2-39.2V228c0-21.6 17.5-39.2 39.2-39.2H1760c21.6 0 39.2 17.5 39.2 39.2v653c0 21.7-17.5 39.2-39.2 39.2zM1198.4 881H1760V541.5h-561.6V881zm-195.9 0h156.7V541.5h-156.7V881zm39.2-653c-21.6 0-39.2 17.5-39.2 39.2 0 21.6 17.5 39.2 39.2 39.2 21.6 0 39.2-17.5 39.2-39.2 0-21.6-17.5-39.2-39.2-39.2zm117.6 0c-21.6 0-39.2 17.5-39.2 39.2 0 21.6 17.5 39.2 39.2 39.2 21.6 0 39.2-17.5 39.2-39.2-.1-21.6-17.6-39.2-39.2-39.2zm117.5 0c-21.6 0-39.2 17.5-39.2 39.2 0 21.6 17.5 39.2 39.2 39.2 21.6 0 39.2-17.5 39.2-39.2 0-21.6-17.6-39.2-39.2-39.2zm444.1 117.6h-718.3v156.7h757.5V345.6h-39.2z"/></symbol><symbol id="heart" viewBox="0 0 512 512"><path d="M457.9 146.444C436.496 54.316 301.704 30.92 256 124.192c-45.703-93.27-180.494-69.878-201.9 22.252C19.255 296.402 216.885 364.586 256 447.25c39.114-82.664 236.744-150.846 201.9-300.806z"/></symbol><symbol id="menu" viewBox="0 0 512 512"><path d="M462 163.5H50v-65h412v65zm0 60H50v65h412v-65zm0 125H50v65h412v-65z"/></symbol><symbol id="optimization" viewBox="0 0 2283.9 1508.9"><path d="M986.8 1280.8c-5.3 34.5-8.8 52.5-31.7 72-11.7 10-25.5 20.4-37.5 26.6-21.2 11.1-21.5 12.8-21.5 16.3s.3 15.6 34.9 15.6h523.1c34.6 0 34.9-12.1 34.9-15.6s-.3-5.2-21.5-16.3c-12-6.3-25.8-16.7-37.5-26.6-22.9-19.5-26.4-37.5-31.7-72-3.8-24.8-13.1-106.1-18-149.8h-375.7c-4.8 43.6-14 124.9-17.8 149.8zM2073.8.9H311.4c-24.2 0-44 19.8-44 44v1042c0 24.2 19.8 44 44 44h1451.8v-6.5c0-13.5 5.4-26.2 15.5-36.5 6.9-7 16.1-13.2 27.5-18.3 10.2-4.6 20.9-7.7 29.5-9.8 2.5-6.9 5.3-13.8 8.5-20.5-1.2-2-2.4-4.2-3.6-6.5H344.4v-955h1696.4v780.7h1.2c13.2 0 25.5 5.1 35.8 14.8 7 6.6 13.2 15.6 18.3 26.5 4.7 10.2 8 20.9 10.2 29.8 3.9 1.4 7.7 2.8 11.5 4.4V44.9c0-24.2-19.8-44-44-44zm-881.2 45.2c-4.5 0-8.1-3.6-8.1-8.1s3.6-8.1 8.1-8.1 8.1 3.6 8.1 8.1c0 4.4-3.7 8.1-8.1 8.1zm1025.5 1034.2c-4.2-15.2-10.3-29.6-17.9-43 8.7-11.7 38.7-55.4 17.1-77l-11.1-11.7c-4.3-4.3-10.3-6.1-17-6.1-21.7 0-51.4 18.2-60.1 23.9-13.5-7.7-28.1-13.8-43.5-17.9-2.5-14.7-13.2-65.9-43.6-65.9h-12.2c-26.1 0-41.1 53-44.4 66.2-15.2 4.2-29.5 10.4-42.9 18-7.9-5.8-35.1-24.8-57.5-24.8-7.6 0-14.7 2.2-20.2 7.7l-11.7 9.8c-19.2 19.2 12.7 69.9 18.6 78.8-7.4 13.2-13.3 27.3-17.4 42.2-12.7 2-67.1 12.5-67.1 43.8v12.2c0 27.1 57 42.2 67.5 44.7 4.1 14.8 10.1 28.8 17.5 41.9-6.1 9.6-36.8 60.1-17.8 79.1l11.1 9.2c5.8 5.8 13.2 8.1 21 8.1 25.7 0 56.4-24.2 56.4-24.2l-2.4-2.6c13.9 8.2 28.9 14.7 44.8 19.2 2.6 10.7 17.7 67.3 44.7 67.3h12.2c35.4 0 44.2-66.1 44.2-66.1l-3.3-.1c16.1-4.1 31.3-10.3 45.4-18.2 8.5 5.6 37.6 24 59.1 24 6.6 0 12.5-1.7 16.8-6.1l12.3-12.3c24.7-24.7-15.5-75.3-16.6-76.7 7.6-13.4 13.8-27.7 18-42.9 13.8-3.5 65.8-18.4 65.8-44.3v-12.2c0-34.2-61.9-43.5-65.8-44zm-182.5 190.5c-77.2 0-139.7-62.6-139.7-139.7 0-77.2 62.6-139.7 139.7-139.7 77.2 0 139.7 62.6 139.7 139.7s-62.6 139.7-139.7 139.7zm-268.3-503.1c-2.6 9.3-6.4 18.2-11.1 26.4.7.9 25.4 32 10.2 47.2l-7.6 7.6c-11.4 11.4-40-6.5-46.8-11-8.7 4.9-18.1 8.7-28 11.2l2 .1s-5.4 40.7-27.2 40.7h-7.5c-16.6 0-25.9-34.9-27.5-41.5-9.8-2.7-19-6.7-27.6-11.8l1.5 1.6s-32.2 25.3-47.7 9.9l-6.8-5.7c-11.7-11.7 7.2-42.8 11-48.7-4.6-8-8.2-16.7-10.8-25.8-6.4-1.6-41.5-10.8-41.5-27.5V733c0-19.3 33.5-25.7 41.3-27 2.5-9.2 6.2-17.9 10.7-26-3.6-5.5-23.3-36.7-11.4-48.5l7.2-6.1c13.6-13.6 41.4 5.7 47.9 10.5 8.2-4.7 17.1-8.5 26.4-11.1 2.1-8.2 11.3-40.8 27.3-40.8h7.5c18.7 0 25.3 31.5 26.9 40.6 9.5 2.6 18.4 6.3 26.8 11 7.1-4.6 36.1-22.3 47.5-11l6.8 7.2c13.3 13.3-5.1 40.2-10.5 47.4 4.7 8.2 8.5 17.1 11 26.5 2.4.3 40.5 6.1 40.5 27.2v7.5c.1 16-32 25.2-40.5 27.3zM1655 651c-47.5 0-86 38.5-86 86s38.5 86 86 86 86-38.5 86-86-38.5-86-86-86zm-382.4 283.9H699.9c-13.4 0-24.3-10.9-24.3-24.3v-9.7c0-13.4 10.9-24.3 24.3-24.3h572.7c13.4 0 24.3 10.9 24.3 24.3v9.7c-.1 13.4-10.9 24.3-24.3 24.3zm-92.2-87.4h-58.2c-16.1 0-29.1-13-29.1-29.1V439.8c0-16.1 13-29.1 29.1-29.1h58.2c16.1 0 29.1 13 29.1 29.1v378.6c0 16.1-13.1 29.1-29.1 29.1zm-165.1 0h-58.2c-16.1 0-29.1-13-29.1-29.1V575.7c0-16.1 13-29.1 29.1-29.1h58.2c16.1 0 29.1 13 29.1 29.1v242.7c.1 16.1-13 29.1-29.1 29.1zm-165 0h-58.2c-16.1 0-29.1-13-29.1-29.1V711.6c0-16.1 13-29.1 29.1-29.1h58.2c16.1 0 29.1 13 29.1 29.1v106.8c0 16.1-13 29.1-29.1 29.1z"/></symbol><symbol id="twitter" viewBox="0 0 512 512"><path d="M462 128.223c-15.158 6.724-31.449 11.269-48.547 13.31 17.449-10.461 30.854-27.025 37.164-46.764a169.218 169.218 0 0 1-53.676 20.511c-15.418-16.428-37.386-26.691-61.698-26.691-54.56 0-94.668 50.916-82.337 103.787-70.25-3.524-132.534-37.177-174.223-88.314-22.142 37.983-11.485 87.691 26.158 112.85a84.148 84.148 0 0 1-38.285-10.574c-.917 39.162 27.146 75.781 67.795 83.949a84.688 84.688 0 0 1-38.17 1.447c10.754 33.58 41.972 58.018 78.96 58.699C139.604 378.282 94.846 390.721 50 385.436c37.406 23.982 81.837 37.977 129.571 37.977 156.932 0 245.595-132.551 240.251-251.435 16.517-11.917 30.846-26.804 42.178-43.755z"/></symbol><symbol id="x" viewBox="0 0 512 512"><path d="M438.393 374.595L319.757 255.977l118.62-118.63-63.782-63.74-118.6 118.618-118.62-118.603-63.768 63.73 118.64 118.63L73.62 374.626l63.73 63.768L256 319.734 374.65 438.38"/></symbol></svg>