<svg xmlns="http://www.w3.org/2000/svg" viewBox="0 0 360.6 45.1"><style>.st0{fill:#009ee2}</style><path class="st0" d="M126 27.8V0h-9.6v27.8c0 6.4-5.5 9.2-10.5 9.2h-2.7c-5 0-10.4-2.8-10.4-9.2v-.9c0-6.3 5.4-9.2 10.4-9.2h7.4v-8h-7.4c-9 0-20.1 3.4-20.1 17.2v.9c0 13.8 11.1 17.3 20.1 17.3h2.7c9 0 20.1-3.5 20.1-17.3M220.5 24.1V23c0-13.8-11.1-17.3-20.1-17.3h-2.7c-9.1 0-20.1 3.4-20.1 17.3v22h9.6V23c0-6.4 5.5-9.2 10.5-9.2h2.7c5 0 10.4 2.8 10.4 9.2v1.1h9.7zm48.5 21v-8h-25.5c-5.5 0-10.4-3.3-10.4-9.2V23c0-6 4.9-9.2 10.4-9.2h2.7c5.6 0 10.4 3.2 10.4 9.2v10h9.7V23c0-12.3-8.9-17.2-20.1-17.2h-2.7c-11.2 0-20.1 4.9-20.1 17.2v4.8c0 12.3 8.9 17.3 20.1 17.3H269zm44.3-17.3V0h-9.6v27.8c0 6.4-5.5 9.2-10.5 9.2h-2.7c-5 0-10.4-2.8-10.4-9.2v-.9c0-6.3 5.4-9.2 10.4-9.2h7.4v-8h-7.4c-9 0-20.1 3.4-20.1 17.2v.9c0 13.8 11.1 17.3 20.1 17.3h2.7c9.1 0 20.1-3.5 20.1-17.3M35.5 5.4h11.6v9.2H35.5zM28.8 8V0h-8.7C8.9 0 0 4.9 0 17.3v27.8h9.6V17.3c0-6 4.9-9.2 10.5-9.2h8.7zm51.4 37.1v-8h-7.1c-5 0-10.5-2.8-10.5-9.2V5.4H53v22.5c0 13.8 11 17.3 20.1 17.3h7.1zm93-17.3V23c0-13.8-11-17.3-20.1-17.3h-2.7c-9 0-20.1 3.4-20.1 17.3v4.8c0 13.8 11.1 17.3 20.1 17.3h2.7c9.1 0 20.1-3.5 20.1-17.3m-9.6 0c0 6.4-5.5 9.2-10.5 9.2h-2.7c-5 0-10.4-2.8-10.4-9.2V23c0-6.4 5.4-9.2 10.4-9.2h2.7c5 0 10.5 2.8 10.5 9.2v4.8zm197 0V23c0-13.8-11-17.3-20.1-17.3h-2.7c-9 0-20.1 3.4-20.1 17.3v4.8c0 13.8 11.1 17.3 20.1 17.3h2.7c9 0 20.1-3.5 20.1-17.3m-9.6 0c0 6.4-5.5 9.2-10.5 9.2h-2.7c-5 0-10.4-2.8-10.4-9.2V23c0-6.4 5.4-9.2 10.4-9.2h2.7c5 0 10.5 2.8 10.5 9.2v4.8zM16 18.7v8.1h20.4v18.3h9.7V18.7z"/></svg>