<svg xmlns="http://www.w3.org/2000/svg" viewBox="0 0 144.79 39.749"><path fill="#7D8388" d="M15.915 8.347l-7.4 7.4v7.587l7.357 7.352V23.94l-4.41-4.402 4.468-4.454M24.49 0l-7.864 7.857v7.16l4.498 4.505-4.614 4.62v6.532l7.848-7.858v-7.218l-4.44-4.447 4.557-4.56"/><path fill="#B01736" d="M7.834 32.66l-4.86-4.87 4.498-4.41-.015-6.983L0 23.865v7.942l7.936 7.942 7.327-7.33v-7.19zm-.305-6.654l-.02 5.46 5.44-5.46z"/><path fill="#7D8388" d="M32.266 8.263l-7.414 7.416v7.3l7.56 7.55v-7.12l-4.062-4.06 3.884-3.9"/><path d="M44.554 11.697c0-1.185-.13-3.378-3.308-3.378-3.482 0-3.713 2.22-3.713 5.64 0 3.25.434 5.2 3.046 5.2.95 0 1.87-.27 2.26-1.2h.03l.05.99h1.68v-5.6h-3.44V15h1.14v.337c0 1.435-.29 2.194-1.12 2.194-.99 0-1.13-.92-1.13-3.77 0-2.78.11-3.8 1.13-3.8.9 0 .97 1.07.97 1.74m3.71 7.27h6.19v-1.99h-3.74v-2.39h3.37v-1.98h-3.36v-2.1h3.58V8.52h-6.03m9.76 1.73h.75c.97 0 1.26.526 1.26 1.313 0 .615-.27 1.362-1.25 1.362h-.77V10.25zm-2.45 8.717h2.45V14.65h.94c.77 0 1.01.378 1.01 2.195 0 1.183.08 1.766.28 2.12h2.64v-.133c-.35-.145-.42-.35-.46-2.414-.03-1.4-.11-2.38-1.68-2.603v-.028c1.13-.278 1.75-1.025 1.75-2.548 0-1.43-.73-2.72-2.82-2.72h-4.1m8.472 10.44h2.19v-8.13h.03l1.682 8.13h1.9l1.595-8.14h.03v8.13h2.276V8.52h-3.56l-1.25 6.86h-.03l-1.29-6.86h-3.58m15.61 6.55H75.5l.856-4.65h.03l.9 4.65zm-5.05 3.897h2.54l.37-1.99h2.49L78 18.97h2.55l-2.6-10.45h-3.07m6.47 10.44h2.19v-7.19h.03l2.147 7.19h2.785V8.52h-2.28v6.787H86.2l-2.03-6.79h-2.81m19.21 3.62v-.44c0-2.46-1.19-3.4-3.353-3.4-3.48 0-3.627 2.67-3.627 5.35 0 3.14.248 5.5 3.396 5.5 3.046 0 3.67-1.685 3.67-3.938v-.37h-2.364c-.015 1.62-.117 2.66-1.03 2.66-1.016 0-1.132-.81-1.132-3.91 0-2.74.1-3.67 1.073-3.67.812 0 1 .67 1 2.19m5.79 1.59c0-2.87.147-3.79 1.103-3.79 1.002 0 1.147.92 1.147 3.79s-.145 3.79-1.147 3.79c-.956 0-1.102-.92-1.102-3.79m4.787 0c0-2.9-.19-5.43-3.67-5.43-3.23 0-3.67 2.1-3.67 5.422 0 3.32.44 5.43 3.67 5.43 3.48 0 3.67-2.53 3.67-5.43m8.03-5.22h-2.45v7.71c0 .82-.32 1.3-.97 1.3-.66 0-.98-.48-.98-1.3V8.5h-2.45v6.99c0 2.05.58 3.66 3.44 3.66 2.85 0 3.43-1.61 3.43-3.66m1.39 3.457h2.19v-7.2h.03l2.15 7.2h2.79V8.52h-2.28v6.787h-.04l-2.01-6.79h-2.82m15.41 3.62v-.44c0-2.46-1.19-3.396-3.35-3.396-3.48 0-3.63 2.68-3.63 5.36 0 3.14.25 5.5 3.4 5.5 3.05 0 3.67-1.68 3.67-3.94v-.36h-2.36c-.01 1.63-.12 2.67-1.03 2.67-1.01 0-1.12-.8-1.12-3.9 0-2.73.09-3.67 1.06-3.67.83 0 1 .67 1 2.19m3.51-3.62h2.46v10.45h-2.45zm4.02 10.44h6.02v-1.99h-3.55V8.52h-2.47M40.1 30.64c1.842 0 2.64-1.302 2.64-4.17s-.798-4.17-2.64-4.17c-1.857 0-2.655 1.302-2.655 4.17s.8 4.17 2.653 4.17m0-.964c-.77 0-1.38-.474-1.38-3.238 0-2.7.61-3.173 1.38-3.173.753 0 1.362.474 1.362 3.173 0 2.764-.61 3.238-1.36 3.238m4.12.807h1.29v-3.64h2.82v-1.08H45.5v-2.22h3v-1.08h-4.294M52.52 28v.186c0 1.125.45 2.45 2.436 2.45 1.61 0 2.655-.706 2.655-2.413 0-1.105-.49-1.724-1.64-2.125l-.85-.318c-.85-.326-1.2-.676-1.2-1.358 0-.856.53-1.16 1.08-1.16.8 0 1.13.43 1.13 1.16v.168h1.27v-.18c0-.832-.22-2.113-2.28-2.113-1.49 0-2.49.806-2.49 2.268 0 1.146.51 1.756 1.69 2.206l.87.3c.73.22 1.15.59 1.15 1.43 0 .6-.4 1.17-1.2 1.17-.9 0-1.32-.49-1.32-1.47V28M59 30.48h1.277v-3.73h2.366v3.73h1.28v-8.025h-1.28v3.213h-2.37v-3.213h-1.28m9.052 8.183c1.843 0 2.655-1.302 2.655-4.17s-.812-4.17-2.655-4.17c-1.842 0-2.654 1.302-2.654 4.17s.82 4.17 2.66 4.17m0-.964c-.77 0-1.38-.474-1.38-3.238 0-2.7.61-3.173 1.38-3.173.76 0 1.37.474 1.37 3.173 0 2.764-.61 3.238-1.36 3.238m5.41-6.25h.82c1.03 0 1.38.525 1.38 1.393 0 1.008-.59 1.382-1.27 1.382h-.91v-2.78zm-1.29 7.057h1.29v-3.31h1.12c1.51 0 2.35-.93 2.35-2.37 0-1.37-.66-2.34-2.2-2.34h-2.55m7.26.97h.83c1.02 0 1.37.53 1.37 1.4 0 1.01-.59 1.39-1.27 1.39h-.91v-2.78zm-1.28 7.06h1.28v-3.31h1.13c1.5 0 2.35-.93 2.35-2.37 0-1.37-.68-2.34-2.22-2.34h-2.54m5.91 0h1.28v8.03h-1.28zm2.9 8.03h1.22v-6.14h.02l2.34 6.14h1.55v-8.03H90.9v5.98h-.03l-2.32-5.98h-1.57m10.765 8.02h.97v-4.23h-2.57v.97h1.35c0 1.75-.36 2.46-1.33 2.45-.87 0-1.29-.65-1.29-3.23 0-2.56.475-3.17 1.39-3.17.87 0 1.117.71 1.117 1.31v.2h1.21v-.14c0-.73-.33-2.31-2.35-2.31-1.86 0-2.67 1.3-2.67 4.17s.64 4.17 2.396 4.17c.948 0 1.397-.34 1.746-1.09h.028m9.11-1.94v.14c0 .745-.115 1.938-1.19 1.938-.942 0-1.38-.66-1.38-3.24s.438-3.17 1.38-3.17c.916-.036 1.147.82 1.147 1.56V25h1.28v-.144c0-.837-.13-2.52-2.41-2.52-2.05 0-2.67 1.3-2.67 4.17 0 2.867.62 4.17 2.65 4.17 1.884 0 2.464-1.415 2.464-2.865v-.17m1.25 2.88h4.43v-1.1h-3.15v-2.57h2.89v-1.08h-2.89v-2.23h3.06v-1.08h-4.34m5.742 8.03h1.22v-6.13h.03l2.32 6.14h1.57v-8.03H119v5.98h-.026l-2.32-5.98h-1.57m8.126 8.03h1.276v-6.95h1.87v-1.08H121.3v1.08h1.917m4.236 6.95h4.425v-1.1h-3.15v-2.56h2.873v-1.08h-2.87v-2.22h3.07v-1.08h-4.34m5.75 8.03h1.28V27h1.05c.89 0 1.16.382 1.18 1.257.03.587.02 1.033.06 1.52.03.312.09.56.22.706h1.45c-.17-.112-.36-.3-.39-.694l-.05-1.63c-.04-1.13-.46-1.57-1.26-1.65v-.02c.89-.14 1.35-.94 1.35-1.97 0-1.51-.91-2.07-2.04-2.07h-2.83v8.02zm1.28-4.45v-2.6h1.11c.84 0 1.2.45 1.2 1.31 0 .81-.45 1.31-1.27 1.31M139.3 28v.19c0 1.13.45 2.45 2.44 2.45 1.622 0 2.653-.7 2.653-2.41 0-1.103-.493-1.722-1.64-2.123l-.856-.32c-.855-.33-1.203-.68-1.203-1.36 0-.86.52-1.16 1.074-1.16.8 0 1.13.43 1.13 1.16v.17h1.28v-.18c0-.83-.22-2.12-2.265-2.12-1.51 0-2.496.8-2.496 2.27 0 1.14.492 1.75 1.667 2.2l.87.3c.728.21 1.148.59 1.148 1.43 0 .593-.39 1.17-1.203 1.17-.89 0-1.32-.5-1.32-1.477V28"/><path fill="#B01736" d="M7.457 16.397L0 23.865v7.942l7.936 7.942 7.327-7.33v-7.19l-7.43 7.42-4.86-4.87 4.5-4.41"/></svg>