<svg xmlns="http://www.w3.org/2000/svg" viewBox="0 0 249.573 102.948"><path fill="#363C4A" d="M74.47 85.063l.024-.537c.554-.31 1.2-.504 1.933-.585 1.16-.14 1.893-.29 2.203-.45.31-.15.53-.37.66-.64.23-.54.343-1.08.343-1.63l-.05-1.86.025-1.71-.05-2c0-.83.026-1.87.075-3.11.05-1.24.074-1.91.074-1.99v-6.67c0-1.06.024-2.2.073-3.43s.074-2.08.074-2.55c0-1.4-.034-2.21-.1-2.44s-.186-.39-.366-.48c-.18-.1-.767-.19-1.762-.27-.767-.07-1.297-.12-1.59-.17a1.126 1.126 0 0 1-.123-.44l.025-.47c.39-.03.693-.05.905-.05l2.3.03c1.632 0 3.36-.06 5.19-.19.896-.06 2.25-.12 4.062-.17.032.15.048.29.048.42 0 .16-.036.29-.11.38-.073.09-.2.15-.38.18-2.136.18-3.397.45-3.78.8-.383.35-.575 1.24-.575 2.67 0 2.64.04 5.36.122 8.16l.098 2.3c.08.07 1.142.15 3.182.24.554.03.88.05.98.05l3.596-.05 2.374.07 6.216-.19c.767-.01 1.232-.05 1.395-.1.1-2.82.15-5.55.15-8.2 0-2.54-.05-4.04-.17-4.5-.06-.27-.18-.46-.34-.56-.1-.04-.94-.17-2.54-.38-.28-.03-.54-.07-.78-.12a2.77 2.77 0 0 1-.12-.85c.56-.08.91-.12 1.06-.12l1.62.09c1.49.08 2.98.11 4.48.11.97 0 2.56-.08 4.8-.24-.01.33-.05.62-.12.88-.62.24-1.36.4-2.23.46-.55.04-1.02.12-1.39.27-.31.23-.46.7-.46 1.4 0 .17.01.35.03.54.02.59.03.97.03 1.15v2.81l.03 1.76-.04 2.27.03 4.25-.05 4.01c0 .8.03 2.04.08 3.74l-.02 3.29c0 1.11.1 1.9.29 2.37.1.23.26.39.49.49l1.98.44c.98.24 1.57.44 1.76.6.19.15.28.34.28.55l-.07.29-.12.02c-.08 0-.19-.01-.32-.04-1.78-.33-3.65-.49-5.6-.49-1.53 0-2.62.03-3.27.08-.64.05-1.98.23-4.02.54-.03-.21-.05-.37-.05-.47 0-.11.02-.27.05-.46.51-.3 1.31-.5 2.4-.61.82-.08 1.46-.34 1.93-.78.31-.3.47-.73.47-1.3l-.02-3.52c.05-1.06.07-1.64.07-1.73 0-1.38-.02-3.4-.07-6.06-.05-.23-.14-.37-.27-.42-.44-.15-2.61-.11-6.51.1-.78.05-1.37.07-1.76.07-.39 0-1.21-.02-2.46-.06-1.25-.04-2.4-.06-3.46-.06-.57 0-1.05.01-1.44.03l-1.25.03c-.38 0-.63.07-.77.22-.14.14-.21.41-.21.8l.02 1.71c0 .28-.04 1.82-.12 4.61-.02.57-.02 1.04-.02 1.42 0 2.23.08 3.71.24 4.45.09.34.23.58.44.71.15.09.78.27 1.91.51.75.16 1.32.32 1.71.46l.15.25c0 .08-.03.15-.09.2-.09.08-.23.12-.41.12l-.47-.01-1.05-.03c-.83-.02-1.87-.07-3.11-.17-.8-.07-1.51-.1-2.13-.1-1.04 0-2.72.05-5.02.17-.44.01-.82.02-1.13.02m47.78-.69c1.24 0 2.44-.33 3.59-1 1.15-.67 2.07-1.74 2.76-3.21s1.03-3.18 1.03-5.11c0-1.27-.26-2.75-.8-4.42-.53-1.68-1.34-2.94-2.45-3.78-1.1-.84-2.4-1.26-3.88-1.26-1.08 0-2.17.25-3.29.75-1.12.51-2.07 1.48-2.84 2.91-.78 1.43-1.17 3.46-1.17 6.1 0 2.97.67 5.21 2.02 6.73 1.35 1.52 3.03 2.28 5.04 2.28m-10.83-9.52c0-1.1.23-2.29.7-3.55a9.855 9.855 0 0 1 2.11-3.39c.95-1 1.95-1.75 3.01-2.23 1.49-.69 3.3-1.03 5.43-1.03 3.05 0 5.61 1.04 7.65 3.12s3.07 4.59 3.07 7.52c0 2.6-1.07 4.93-3.22 6.97-2.14 2.05-4.86 3.07-8.14 3.07-2.02 0-3.93-.53-5.72-1.59-1.33-.79-2.48-1.97-3.45-3.54-.96-1.56-1.44-3.34-1.44-5.34m43.33 5.35l.03 1.58c-1.27 1.35-2.53 2.29-3.77 2.83-1.24.54-2.7.81-4.38.81-1.83 0-3.47-.48-4.94-1.43-1.47-.95-2.6-2.3-3.39-4.04-.79-1.74-1.18-3.45-1.18-5.13 0-1.84.48-3.57 1.43-5.21.96-1.63 2.22-2.85 3.8-3.66 1.58-.8 3.56-1.2 5.94-1.2 2.29 0 4.02.39 5.22 1.17.67.45 1 1.04 1 1.76 0 .52-.17.95-.51 1.29-.34.34-.78.51-1.32.51-.81 0-1.71-.5-2.69-1.51-.6-.62-1.15-1.05-1.64-1.28-.49-.24-1.03-.36-1.64-.36-1.45 0-2.66.59-3.62 1.78-1.34 1.69-2.01 3.82-2.01 6.37 0 2.64.69 4.74 2.06 6.3 1.37 1.56 2.97 2.35 4.8 2.35 1.27 0 2.4-.21 3.39-.62.98-.42 2.14-1.19 3.46-2.31m1.61 3.86c1.91-.34 3.01-.6 3.31-.78.18-.12.27-.38.27-.78l-.03-1.61.03-2.86-.05-7.27.03-2.71V66.2l.07-2.36c0-3.71-.04-5.923-.11-6.645-.07-.73-.22-1.18-.43-1.36-.39-.38-1.47-.77-3.23-1.17v-.13c0-.11.02-.273.05-.484.23-.03.45-.08.66-.12.21-.05.42-.08.61-.1 1.94-.55 3.36-1.09 4.24-1.61h1.2c.03.46.05 1.9.05 4.32l-.03 3.11.03 4.01-.1 4.94c0 .29.02.62.05.98 1.03-1.19 1.78-1.98 2.26-2.37.85-.68 1.75-1.23 2.72-1.63.96-.4 1.98-.6 3.04-.6 2.01 0 3.65.85 4.93 2.54.73.99 1.1 2.4 1.1 4.22l-.07 2.48.02 1.39-.1 2.42c-.07 2-.1 3.18-.1 3.56 0 .42.01.99.05 1.7l1.39.32c.93.2 1.65.38 2.15.54l-.02.75-5.21-.14c-.29 0-1.09.03-2.4.09-.8.03-1.26.05-1.39.05h-.54c-.08-.15-.12-.27-.12-.37v-.22c.23-.29.65-.48 1.27-.58l1.47-.34c.2-.16.31-.33.348-.51.06-.42.13-2.52.22-6.29l.05-1.8c.06-1.9-.09-3.47-.45-4.73-.23-.86-.75-1.54-1.56-2.06-.81-.51-1.74-.76-2.81-.76-.88 0-1.716.18-2.5.56-.54.27-1.187.75-1.94 1.44-.75.68-1.27 1.27-1.57 1.75-.19.33-.29.86-.29 1.61l.023 1.7-.05 1.78c0 .15.02 1.16.07 3.04l-.03 1.56.05 1.7c.02.25.04.43.075.54l3.45.83c.18.05.447.15.807.3l.08.28c0 .08-.04.21-.12.4-.47.01-.83.02-1.08.02l-1.9-.03-4.21.05-3.16.1-.74-.05-.023-.17c0-.13.06-.29.19-.49m25.94.68l.03-.51c1.94-2.18 3.31-3.77 4.09-4.78l1.96-2.49c.21-.23 1.13-1.28 2.77-3.15l2.2-2.56c.47-.5 1.48-1.8 3.01-3.88a.89.89 0 0 0-.51-.15l-1-.02c-1.19-.03-2.74-.02-4.65.05-1.35.05-2.4.21-3.13.49-.54.2-1.02.51-1.447.93-.67.67-1.15 1.3-1.44 1.88-.15.29-.38.54-.71.74a.48.48 0 0 1-.39-.24l.45-1.31c.24-.69.44-1.32.6-1.89.53-1.81 1.02-3.24 1.47-4.3h.88l-.07.47c-.08.47-.13.83-.13 1.07 0 .34.14.59.44.73.41.23 1.74.35 4.01.35.53 0 1.17-.01 1.9-.05 2.97-.14 4.84-.22 5.63-.22.31 0 1.02.03 2.13.1l.02.47c0 .27-.05.48-.14.63-.39.68-1.08 1.66-2.06 2.93l-5 6.09-6.24 7.56c.32 0 .86.02 1.61.05h5.9c.68.02 1.36-.14 2.04-.46.68-.322 1.29-.87 1.84-1.64.54-.77.96-1.672 1.26-2.71.13-.08.26-.12.39-.12.19 0 .35.08.46.24l-.59 3.4c-.146 1.3-.326 2.09-.54 2.37l-14.83-.05h-1.52c-.3 0-.56-.012-.79-.05m25.8-13.88h1.15c.836 0 3.316-.13 7.44-.39.655-.03 1.056-.1 1.2-.19.296-.31.44-.586.44-.83 0-.504-.16-1.08-.49-1.72-.323-.646-.825-1.142-1.503-1.49-.68-.35-1.463-.525-2.36-.525-1.893 0-3.41.706-4.552 2.12-.88 1.08-1.32 2.087-1.32 3.03m13.66.88l-9.82.07h-1.86c-.75 0-1.52.034-2.3.1-.15.49-.22.82-.22 1l.02.246v.24l-.03 1.2c0 .99.31 2.21.94 3.65s1.52 2.54 2.69 3.29c1.16.75 2.62 1.16 4.36 1.21.93-.05 1.67-.16 2.23-.34.55-.18 1.34-.6 2.35-1.25l1.76-1.44.14.97-.02.36c-.74.93-1.67 1.74-2.79 2.44s-2.27 1.21-3.43 1.54c-.56.14-1.47.22-2.74.22-1.16 0-2.3-.24-3.43-.71-1.67-.72-2.98-1.87-3.93-3.46-.96-1.59-1.44-3.51-1.44-5.78 0-.72.13-1.64.4-2.76.27-1.13.75-2.32 1.45-3.59.47-.87 1.05-1.57 1.74-2.13.98-.79 1.83-1.33 2.57-1.64 1.06-.44 2.29-.66 3.69-.66 1.52 0 2.76.28 3.72.83 1.3.73 2.28 1.68 2.92 2.83.64 1.15.96 2.21.96 3.17v.34zm6.49-6.903c-.65.54-1.26.94-1.85 1.2-.08.05-.65.224-1.71.534l-.03.72c1.14.26 1.89.517 2.24.77.35.25.56.475.64.67.1.276.14.976.14 2.095 0 5.61-.02 9.03-.05 10.28 0 .75-.14 1.29-.42 1.63-.17.22-.51.39-1.03.48-1.6.34-2.43.52-2.5.56-.31.13-.47.31-.47.53 0 .08.04.18.12.29.18.05.31.07.39.07.45-.06.93-.11 1.42-.12 2.39-.08 3.7-.12 3.91-.12.44 0 1.34.05 2.69.17.99.06 1.81.1 2.44.12.08-.15.12-.27.12-.37a.84.84 0 0 0-.08-.3c-.33-.13-.82-.29-1.47-.47-1.05-.29-1.67-.56-1.89-.79-.21-.24-.31-.66-.29-1.26l.07-7.45-.02-7.03v-1.3c.03-.65.05-1.017.05-1.1 0-.35-.04-.93-.1-1.71l-.29-.02c-.12 0-.27.01-.47.044-.44.67-.98 1.27-1.63 1.81m14.82 17.8c-.44-.55-.66-1.68-.66-3.37l.05-6.44-.07-3.67c0-.54.06-1.01.19-1.418l.44-.05 1.89-.05 3.79-.12h.41c.1-.46.15-.79.15-1 0-.2-.02-.46-.05-.78-.66-.01-1.15-.02-1.47-.02-.7 0-1.44.03-2.2.08-1.19.07-2 .1-2.43.1l-.59-.02.05-3-.02-.48c0-.77.02-1.56.04-2.34.12-5.6.25-11.39-5.73-13.41-2.33-.79-4.69-.44-6.66.97-2.15 1.54-3.48 4.18-3.48 6.89h.03l-.04.18c0 .65.2 1.18.61 1.58.41.41.92.61 1.52.61s1.13-.22 1.59-.67c.46-.45.69-.92.69-1.43 0-.5-.23-.97-.69-1.41-.46-.44-.99-.66-1.59-.66-.19 0-.35.05-.52.09.4-1.62 1.35-3.09 2.68-4.04 1.6-1.14 3.52-1.42 5.4-.78 5.02 1.7 4.9 6.74 4.79 12.07-.02.62-.03 1.23-.03 1.83l-.04.1c-.36.91-.64 1.53-.83 1.86-.39.6-.87 1.15-1.43 1.65-.57.49-1.06.83-1.49 1.01-.62.26-.99.45-1.11.57a.64.64 0 0 0-.18.47c0 .12.04.21.13.29.09.08.22.12.4.12l.19-.03 2.01-.07.41.02c.03.46.05.91.05 1.37v.98l.02 2.63-.1 5.49c0 2.24.1 3.7.29 4.37.19.67.64 1.25 1.33 1.73.69.49 1.57.73 2.63.73 1.5 0 2.7-.17 3.61-.52.9-.35 1.71-.91 2.41-1.67l.02-.17c0-.14-.04-.26-.13-.35a.484.484 0 0 0-.36-.13h-.22c-.61.46-1.09.73-1.45.81-1.18.26-1.98.39-2.4.39-.85-.01-1.48-.29-1.91-.86M89.09 15.57l1.004-3.686c.064-.488.154-.803.27-.94.113-.138.243-.207.39-.207.294 0 .628.35 1.003 1.05.278.5.506.82.686.96.18.14.44.23.783.28l.244-.03 1.06.097 5.777.073 6.828-.023h2.008l3.794-.07c.164 0 .368.018.613.048 1.106.1 1.792.146 2.053.146a.76.76 0 0 0 .588-.24c.05-.062.32-.6.81-1.61.21-.46.48-.69.79-.69.13 0 .3.034.49.098.08.326.13.616.13.875l-.02.97.03 2.06c0 .5-.04 2.12-.12 4.85 0 .18-.03.34-.1.49-.18.11-.33.17-.46.17s-.24-.06-.34-.18c-.09-.12-.22-.49-.36-1.12-.33-1.45-.73-2.49-1.22-3.12-.33-.4-.8-.69-1.41-.87-.61-.18-2.08-.27-4.39-.27h-4.13c-.03.65-.05 1.25-.05 1.79l.2 15.18c0 .61-.03 1.75-.1 3.42l.02 3.25-.02 1.81c0 .57.1.98.29 1.22.2.25.73.48 1.59.71 1.5.38 2.51.61 3.01.69.31.03.56.1.76.2v.74l-3.48-.09c-1.91-.02-3.34-.05-4.31-.11l-3.57.17-2.61.15c-.73 0-1.18-.02-1.34-.05l-.34-.15c.03-.37.11-.61.22-.72.12-.11.42-.19.91-.26.68-.1 1.49-.27 2.42-.52.93-.25 1.54-.51 1.84-.77.16-.15.28-.39.34-.73.15-.72.22-2.13.22-4.23V32.2l-.1-9.058-.09-1.954-.02-6.518H97.7c-2.35 0-3.78.143-4.29.427-.8.44-1.99 1.735-3.57 3.882-.524.8-.98 1.2-1.37 1.2l-.22-.05c-.07-.1-.1-.19-.1-.27 0-.2.13-.79.39-1.76.33-1.26.52-2.1.59-2.54m28.44 27.66l-.1-.32c0-.12.074-.29.22-.52l1.45-.29 2.03-.37c.17-.08.28-.2.35-.34.09-.22.14-.84.14-1.88 0-5.53-.03-8.72-.1-9.57-.066-.85-.21-1.39-.44-1.62-.23-.23-.818-.41-1.76-.54-.555-.09-.995-.19-1.32-.32l.1-.74c1.71-.71 2.86-1.31 3.45-1.81.814-.74 1.51-1.7 2.08-2.89l.83.02c.097.81.146 2.62.146 5.42l-.02.41c0 .09.017.25.05.46.62-1.13 1.394-2.16 2.325-3.1l.56-.57c.23-.26.45-.47.66-.61 1.15-.69 1.99-1.03 2.55-1.03.72 0 1.31.24 1.77.72.46.48.69 1.07.69 1.77 0 .55-.16.98-.49 1.29-.44.4-.95.61-1.52.61-.26 0-.77-.14-1.54-.42-.77-.28-1.27-.42-1.52-.42-.46 0-.77.07-.95.22-.45.35-1.01 1.09-1.66 2.19-.51.83-.76 1.59-.76 2.29l.12 4.03.05 4.84c.05.55.11.91.19 1.07.07.11.23.25.49.41 1.77.15 2.81.25 3.14.32l.52.05c.7.01 1.19.11 1.47.29.15.08.22.2.22.36 0 .1-.06.23-.19.39l-2.72-.04-1.03-.02-1.49.02H123l-1.347.08-4.116.07zm28.44-4.1c.11-2.07.17-3.53.17-4.37 0-.44-.03-1.04-.08-1.78-1.09.39-2.26.98-3.48 1.78-1.23.79-2.207 1.72-2.928 2.76-.52.75-.784 1.46-.784 2.12 0 .63.21 1.16.65 1.59.43.42.98.63 1.63.63.51 0 1.12-.18 1.84-.54.95-.48 1.94-1.21 2.97-2.2m7.174.71c.094.21.143.37.143.47 0 .24-.19.67-.583 1.29-.5.81-1.07 1.4-1.683 1.78-.4.24-.93.36-1.62.36-1.18 0-2.06-.36-2.65-1.08-.36-.42-.61-1.18-.76-2.27l-2.74 1.9c-.96.55-1.69.9-2.2 1.05-.82.21-1.8.31-2.94.31-.83 0-1.49-.25-1.97-.75s-.72-1.14-.72-1.92c0-1.13.69-2.47 2.07-4.03s3.25-2.84 5.63-3.83c1.66-.7 2.69-1.15 3.06-1.34.03-.54.05-1.13.05-1.76 0-2.07-.29-3.47-.87-4.2-.58-.73-1.42-1.1-2.49-1.1-1.13 0-2.19.44-3.17 1.32-.61.55-1.07 1.6-1.38 3.13-.09.42-.28.87-.56 1.36-.7.46-1.26.68-1.69.68-.36 0-.68-.11-.98-.32-.16-.12-.24-.25-.24-.4 0-.43.45-1.38 1.35-2.87.9-1.49 2.05-2.6 3.43-3.35 1.38-.74 2.58-1.11 3.61-1.11 1.4 0 2.44.13 3.13.38s1.29.69 1.81 1.33c.52.63.84 1.33.96 2.07.06.36.1 1.63.1 3.83l-.08 3.88.02 2.83c0 .37-.01.69-.03.95-.02.47-.03.82-.03 1.05 0 .54.15.97.46 1.29.31.33.68.49 1.1.49.62 0 1.15-.31 1.59-.93l.29-.39c.08-.05.26-.1.54-.17m1.28-15.85h1.83l.8.05.63-.05c1.67 0 2.71.02 3.12.05l.02.47c0 2.29-.03 4.51-.1 6.66-.05 1.27-.08 1.99-.08 2.17 0 2.86.09 4.65.28 5.37.19.72.63 1.29 1.32 1.72s1.53.65 2.51.65c1.19 0 2.33-.25 3.42-.75s2.01-1.1 2.78-1.82c.08-.62.12-1.31.12-2.05 0-2.43.02-4.06.07-4.91.02-.51.03-.95.03-1.32 0-2.64-.13-4.13-.4-4.47-.27-.35-1.26-.6-2.99-.78-.57-.07-.99-.12-1.25-.17-.13-.22-.19-.38-.19-.49l.07-.27c.42-.05.84-.08 1.25-.08l3.89.05 2.2-.05c.18 0 .35.01.51.02l.05 1.78c-.11 2.47-.18 5.53-.2 9.18l-.05 1.98.1 3.32c.15.26.28.41.39.46.2.08.6.12 1.2.12h.22c.22 0 .82.05 1.81.15l.03.47v.27c-2.18.47-3.95.94-5.31 1.41-.54.18-.99.31-1.37.39-.08-.57-.12-.92-.12-1.05v-1.9l-.02-.66c-.21.14-.46.32-.73.53-1.29.99-2.65 1.83-4.09 2.51-.97.47-1.9.71-2.79.71-1.72 0-3.11-.64-4.19-1.91-1.09-1.27-1.64-3.44-1.64-6.49 0-.16.01-.45.02-.88.06-.78.1-1.32.1-1.63l-.03-1.07c-.01-.26-.02-.48-.02-.68l.03-.99c.01-.51.02-.87.02-1.08 0-.27-.01-.51-.02-.73l-.05-1.29.03-.68c0-.26-.13-.5-.39-.71-1.03-.27-1.7-.43-2.02-.47-.32-.04-.6-.11-.85-.21V24zm44.49 14.27c-.41.63-.91 1.26-1.51 1.89-.72-.9-1.28-1.78-1.69-2.65-.49-1.05-.89-3.02-.67-3.97.16-.69.42-1.33.74-1.94.47-.87 1.07-1.66 1.73-2.36a13.3 13.3 0 0 1 1.46 1.86c.59.93.86 1.95 1.03 3.05.18 1.14-.37 2.97-1.1 4.09m16.18 4c-.1-.08-.41-.2-.95-.35-.86-.24-1.36-.39-1.49-.44-.31-.34-.46-.85-.44-1.52l.02-5.72-.02-2.2V29.9c-.04-2.33-.63-4.092-1.79-5.3-1.18-1.19-2.74-1.883-4.56-1.883-1.1 0-1.76.17-2.84.63l.29-.14-.3.13-.33.14-.22.11c-1.53.71-2.04 1.11-3.7 2.42-.22-.3-.43-.57-.64-.827a9.55 9.55 0 0 0-.58-.74l-.11-.13c-2.86-3.05-6.86-1.483-9.66.7l-.18.136c-.68.5-1.38 1.08-2.12 1.75-.03-.65-.05-1.26-.05-1.83l.03-2.78a.54.54 0 0 0-.32-.12l-.47.02h-.15c-1.06 1.32-1.89 2.2-2.49 2.65-.6.44-1.38.8-2.35 1.08v.81c.58.143.95.23 1.13.27.57.13 1.04.304 1.4.533.21 1.01.32 3.24.32 6.71 0 3.53-.06 5.59-.17 6.17-.1.46-.3.81-.59 1.05-.35.18-.86.31-1.51.4-.46.06-.82.19-1.07.36-.07.24-.1.4-.1.47l.05.28 2.74-.1h.76l1.23-.07c.52-.02 1.11-.02 1.77-.02.64 0 1.89.06 3.75.19l.03-.47c0-.19-.07-.34-.22-.44-.31-.21-.99-.39-2.03-.53-.65-.1-1.07-.28-1.26-.53-.19-.25-.29-1.27-.31-3.06l-.1-8.21c0-.37.01-.79.02-1.24.64-.8 1.41-1.46 2.33-1.99l.18-.11c3.26-1.49 5.69-.8 8.31 1.56l.17.16c-.3.32-.58.66-.85 1.01-1 1.29-1.8 2.77-2.11 4.45-.45 2.44.22 4.9 1.98 7.35.47.65 1.01 1.3 1.63 1.95l.11.12.13.15.14-.15.11-.11c.6-.59 1.12-1.21 1.58-1.83 1.63-2.2 2.43-4.55 2.35-7.03-.08-2.49-1.01-4.72-2.07-6.47.21-.22.42-.42.63-.61.53-.48 1.07-.88 1.62-1.18.32-.17.64-.31.96-.42.63-.22.91-.35 1.56-.35 1.27 0 2.33.35 3.17 1.04s1.36 1.65 1.56 2.87c.11.77.17 3.56.17 8.36 0 2.22-.09 3.49-.28 3.81-.19.32-.66.54-1.43.66-.77.13-1.37.29-1.81.48-.12.2-.17.36-.17.49l.02.39c.52-.01.87-.02 1.05-.02h1.25c1.4-.06 2.49-.1 3.27-.1.632 0 1.1.01 1.39.03l2.47.15h.17c.09-.25.14-.46.14-.64 0-.15-.05-.26-.15-.34"/><path fill="#D40032" d="M47.568 42.78l.004-.01.013-.004-.017.014zm-6.29-1.263l.018.033c.45-.25.717-.46.72-.457-.014.004.297-.206.692-.596l.158.015c.53.004.91-.167 1.33-.292.207-.065.41-.136.61-.187l.122-.03c.06.384.108.778.127 1.17.01.227.015.455-.006.666l-.05.28c-.03.07-.09.33.15.4h.01l.02.01.04.02.09.05.18.08c.37.16.79.28 1.23.28-.07.25-.1.51-.1.77.01.13.01.27.05.4l.06.2.03.1v.01s.11.13.23.17c.09.03.22.02.22.02h.02c.15-.03.33-.05.49 0 .31.06.59.22.83.42v.05l.01.27.04.51c.07.65.17 1.19.27 1.55.1.33.18.65.49.96.48.38.74.19 1.06.19a4.33 4.33 0 0 0 1.51-.49c.87-.47 1.56-1.09 2.3-1.87-.89.61-1.67 1.06-2.52 1.39-.43.15-.88.28-1.36.31-.23-.01-.56.02-.52-.04-.1-.1-.21-.38-.29-.66-.09-.31-.18-.8-.24-1.43l-.04-.5-.02-.26-.01-.13v-.06l-.11-.25-.01-.01-.06-.05c-.32-.28-.73-.54-1.23-.64-.17-.04-.34-.05-.52-.03l-.02-.19c0-.19.02-.39.07-.59l.09-.3.09-.12c.43-.12.85-.27 1.13-.4.65-.31 1.82-1.11 2.08-1.44.27-.28.24-.62.3-1-.23.18-.31.32-.58.57-.27.31-1.73 1.05-2.12 1.23-.29.13-1.09.45-1.66.56-.32 0-.66-.06-.98-.2l-.04-.01.02-.14c.03-.27.02-.52.01-.77-.03-.5-.09-.98-.17-1.44l-.01-.09-.01-.04v-.02l-.01-.01-.37-.29h-.01l-.19.02-.37.08c-.23.06-.45.13-.65.2-.21.07-.42.13-.61.18.27-.36.52-.79.7-1.29.08-.21.15-.42.2-.65v-.01l.02-.1v-.02l-.19-.31-.02-.06-.01-.01-.02-.01-.13-.06-.15-.06-1.96-.82-.15-.07c.03-.16.05-.32.06-.48.02-.41.01-.82.06-1.21.15-.74.4-1.77.53-2.68l.11-.72.02-.18.01-.09.01-.05v-.01l-.11-.31-.01-.01-.01-.01-.26-.25-1-1.02c-.6-.67-1.44-1.35-1.66-1.96-.64-1.53-1.02-2.86-1.21-3.52l-.12-.44c-.09-.63-.26-1.22-.49-1.76l-.31-1.14.01-.02-.05-.12-.5-1.81c.08-1.41.46-2.81 1.15-4.57.35-.82 1.29-2.4 2.76-4.09 1.44-1.7 2.56-2.61 4.65-4.06 4.51-2.7 9.96-3.5 9.93-3.46-.07 0 4.77-.98 9.43 1.12 4.76 1.91 7.65 5.69 8.45 7.29 1.6 2.99 3.13 7.14 3.46 12.9 1.06-4.73-.13-10.4-1.81-13.58-.82-1.68-4.22-6.15-9.41-8.24C60.22-.51 54.65.07 54.73.06c.035-.05-5.545-.03-9.96 3.153-2.19 1.53-3.742 3.05-5.288 4.87-1.57 1.8-2.57 4.35-2.95 5.26-.848 2.15-1.054 3.96-.685 5.62l-.318-.32-.11-.11-.02-.02-.1-.1c-.42-.38-.82-.69-1.2-.94-.58-.67-1.22-1.31-1.96-1.9-2.71-2.09-6.19-3.79-10.96-3.87-2.47-.03-7.88.47-12.87 4.36-2.47 1.9-4.63 4.66-6 7.84C.95 27.11.25 30.49.04 33.92c-.5 6.896 2.18 13.4 5.2 17.14 2.99 3.824 5.92 5.566 5.89 5.58.01-.027 3 1.71 7.213 3.87 4.214 2.25 9.265 3.62 15.44 5.656 4.04 1.348 8.692 2.54 13.34 4.625.04.49.156 1.91.235 2.37.59 3.7 2 6.42 2.707 7.72 1.1 1.97 1.212 1.86 3.12 3.59.83.67 1.694 1.13 2.505 1.66.825.57 1.815 1.04 2.833 1.47-.83-.78-1.52-1.47-2.136-2.26-.65-.79-1.35-1.44-1.92-2.16-1.03-1.45-.995-1.24-2.2-3.46-.62-1.15-1.87-4.46-2.418-7.55.45.26.89.43 1.31.7 4.63 2.92 6.71 8.17 7.67 10.18 1.64 3.69 1.99 7.01 2.17 10.13.12 3.14.03 6.2-.61 9.81 1.51-3.36 2.33-6.42 2.69-9.74.29-3.31.21-7.04-1.68-11.37-1-2.13-3.33-7-8.64-10.35-1-.63-2.05-1.21-3.14-1.74.05-2.49.62-5.15 1.64-7.6 2.98-6.99 7.78-12.5 7.65-12.55-.07-.05 4.43-5.57 8.93-12.21 2.2-3.34 3.91-7.2 5.45-10.5 1.96-4.2 1.9-8.12 1.56-9.89-.89-4.51-4.01-9.25-8.02-11.41 3.17 3.14 6.22 7.48 6.52 12.26.05 1.3-.2 4.99-1.37 8.15-1.11 3.17-3.35 6.74-5.48 9.98-4.35 6.43-9.67 12.1-9.6 12.15.13.08-4.72 5.52-7.98 13.1-.98 2.33-1.6 4.92-1.78 7.43-4-1.67-8.35-2.93-12.46-4.32-6.2-2.03-12.09-3.92-16-6.02-3.98-2.03-5.53-3.91-5.54-3.88.02-.01-1.77-1.63-4.45-5.06-2.68-3.4-5.03-9.07-4.6-15.3.17-3.05.86-6.28 2.04-9.03 1.2-2.76 1.8-4.18 3.9-5.81 4.25-3.33 8.96-4.72 11.08-4.69 4.01.03 7.14 1.27 9.77 2.73 1.76 1.01 3.25 2.4 4.81 3.99l.11.17.12.22h.01c.54 1.03.92 2.31.63 3.65-.46 2.61-2.4 4.52-2.33 4.52.03.01-1.65 1.94-3.93 3.64-2.25 1.73-4.96 3.31-5.87 3.82-1.66.96-2.52 1.67-3.76 2.8 1.65-.33 2.75-.62 4.47-1.57.93-.51 3.69-2.11 6.03-3.91 2.37-1.76 4.18-3.83 4.15-3.85-.08-.01 1.96-1.92 2.61-5 .12.36.23.75.33 1.16l.24 1.08c-.11.43-.24.84-.3 1.23-.15.77-.17 1.42-.18 1.74-.01 1.19.19 1.86.6 2.76.04-.99.09-1.62.11-2.74.01-.3.03-.91.17-1.63.04-.31.14-.63.23-.96.41.52.89.92 1.34 1.44l1.02 1.02.15.15-.02.14-.11.71c-.14 1.48-.79 2.89-.54 4.18l-.03-.02c-.97-.5-1.44-.75-2.07-1.51.18.94.72 1.62 1.74 2.13.27.15.82.42 1.51.73.35.15.72.31 1.11.46l.14.06-.63 1.33-.16.36c-.53.67-1.07 1.03-1.05 1.03-.01-.01-.29.22-.78.48l-.1.05-.05.03-.16.47v.01l.01.02.01.03.11.22.26.49c.18.34.38.7.61 1.07.11.18.24.36.37.55l.07.08c-.11.16-.23.3-.36.43l-.12.06c-.21.2-1.64.9-1.66.88.01.02-1.41.56-1.71.63-.27.08-.8.24-.98.52.28.16.89.23 1.17.16.32-.06 1.8-.64 1.8-.66.01.01.36-.16.74-.37l.19.16c.18.17.29.33.36.44.13.11.16.56.23.36-.08.16-.21.4-.28.59-.16.41-.23.82-.26 1.3.25-.42.47-.73.71-1.05l.41-.53c.112-.61-.06-.69-.2-1.04-.09-.14-.48-.6-.47-.59l.04.04.02-.01c.37-.23.684-.56.94-.94l.09-.14.05-.08.02-.04h.006l-.07-.36v.04-.1l-.01-.01-.01-.01-.18-.2c-.12-.15-.23-.31-.34-.49-.22-.34-.414-.69-.59-1.02l-.23-.44m12.17-23.4l-.93 1.25c.12.86-.03 1.42.18 2.65.32 2.46 1.4 5.14 1.956 5.88l.326.51.16.22.08.11.04.05.02.03.01.01.7.14.06-.1c.27-.21.504-.41.73-.62.45-.41.85-.85 1.32-1.38-.66.24-1.21.45-1.76.72l-.38.2-.03-.05-.29-.49c-.51-.71-1.48-3.07-1.81-5.51-.21-1.19-.06-1.74-.18-2.6l-.14-1.02-.005-.043v-.03l-.46-.47-.07-.01-.11-.02-.097-.01c0 .09-2.46-1.28-5.11-.94-1.43.21-2.57 2.71-3.42 3.26-.877.63-.79-.88-1.158-.67-1.38.76-2.15 2.53-3.54 2.72 1.33.54 1.91-.44 3.36-1.26.39-.23.46 1.16 1.34.52.93-.61 2.54-3.36 3.59-3.48 1.99-.27 4.21.75 4.64.91l.09.72M44 30.25l.55 1.11s-.657 1.308-.97 1.526c0 0 4.748-2.1 5.88-3.68l.373-1.1c0 .003-4.214 2.217-5.834 2.148m.92-3.83c-.02-.04 2.44-.574 2.94-.602.45-.05.7.01 1.07-.27-.41-.22-.68-.33-1.15-.3-.51.01-3.23.16-3.23.2.02-.05-2.57.532-2.94 1.31-.35.496-.03 1.12.21 1.486.26-.393.42-.547.61-.804.06-.435 2.47-1.097 2.48-1.03m10.68-1.91c-.14.925.1 1.43.45 2.074.15-.73.23-1.19.35-1.926 0-.403.51-1.59 1.68-1.413 1.09.1 1.92.89 1.91.87-.01-.01.84.67 1.29 1.75.49 1.06.41 2.36.32 2.77-.14.77-.18 1.22-.23 1.97.52-.53.86-.96 1.03-1.84.1-.46.21-1.99-.38-3.23-.53-1.27-1.53-2.06-1.52-2.06 0 .03-.91-.92-2.38-1.07-.71-.09-1.58.21-1.99.78-.42.53-.54 1.06-.57 1.3M36.89 35.72c-1.77 2.38-5.56 2.413-5.56 2.413 5.18 1.665 7.39-1.11 7.39-1.11-1.97-.357-1.825-1.306-1.825-1.306m2.5 15.398c-3.54-1.77-6.93-2.8-6.92-2.82.026-.028-3.394-1.11-7.014-2.27-1.79-.625-3.62-1.4-4.97-2.29-1.39-.873-2-1.916-2-2.38-.1-.87.49-1.65 1.06-2.315.61-.66 1.28-1.29 2.17-1.94-1.08.25-1.98.59-2.84 1.16-.77.563-1.9 1.47-1.79 3.27.04.984 1.09 2.46 2.62 3.394 1.52 1.002 3.44 1.8 5.29 2.444 3.74 1.193 7.02 2.23 7.02 2.262-.01.02 3.35 1.06 6.73 2.755 1.68.85 3.32 1.94 4.39 3.118a8.127 8.127 0 0 1 1.8 2.992c.73 2.288.9 3.746 1.29 5.912.51-2.12.87-3.71.06-6.376-.22-.7-.82-2.15-2.09-3.49-1.24-1.36-3.02-2.53-4.78-3.42"/></svg>