<svg xmlns="http://www.w3.org/2000/svg" viewBox="0 0 283.7 232.2"><style>.st0{fill:#d39c0a}</style><path class="st0" d="M204.4 61.7c2.3-.4 2.7-3.3 2.7-3.3s-.2 1-2.8 1.4c-1.4.2-6.5.4-8.9.3 6.2-1.8 8.8-4.1 10.3-6.1 1.6-2.2 2.1-5.6 2-6.6-.1-.6-.2-1-.2-1s-.4.6-1.7.9c-3.9 1.1-10.9 1.4-10.7.1.1-.9 7.4-2 10.4-3.2 2.2-.8 2-3.7 2-3.7s-.1.9-2.6 1.8c-2.2.8-6.5 2-9.2 2.2 13.8-4.8 10.6-15.6 10.6-15.6v.1s-.2.5-1 1c-2.5 1.5-10.4 3.8-10.6 2.9v-.1c1.6-1.3 8.7-4.4 9.6-5 .2-.1.3-.2.3-.2 1.2-1 .5-3 .5-3s.1.7-1.5 1.8c-1.9 1.3-8.3 3.6-8.3 3.6.1-.1.3-.4.3-.4 9.8-11.3 3.8-17.3 3.8-17.3s0 .5-.6 1.2c-1.7 2.1-7.9 6.6-8.3 5.8-.3-.5 5.6-5.8 6.8-7.6.9-1.3-.4-3-.4-3s.3.6-.7 2C195 12.3 190 16 190 16 192.4 3.8 185.9.5 185.9.5c-12.3 21.6-16.1 20.9-16.1 20.9-1 .3-.5-3.1-.5-3.1s-3.8 3.8-5.6 7c-1.8 3.1.2 7.8.9 11.2.1.4.2.9.2 1.4 0 2.5-2.1 4.6-4.6 4.6-2.5 0-4.6-2.1-4.6-4.6 0-2 1.3-3.7 3.1-4.3-1.1-.9-2.8-2.6-3.3-4.8 0 0-1.9-9.8-2.2-11-.3-1.1-1.8-4.6-2-5.5-.2-.9-.7-1.7-.7-2.3 0-.6.5-1.1 1-1.6 1.1-1 2-3.5 2-3.5-.7.5-2.6.5-3.2.3-.6-.2-1.4-.8-2.1-1.3-.7-.4-4.6-2.7-5.6-3-3.9-1.6-9.4-1.1-11 2.4-4.2.9-5 2.5-5.1 5.7l.2 1.7c0-2.6 3.9-2.5 6.9-1.4-.4.3-.8.7-1.4 1-1.3.8-2.9 1.6-4.8 1.6-1.2 0-2.4-.3-3.8-1.1-3.2-1.9-4.6-5.4-3.9-9-.9-.6-1 2.4-1.1 2.7 0 3.2 1.5 5.8 4.4 7.4 1.5.9 3 1.2 4.3 1.2 2.3 0 4.3-1 5.7-2 .7-.5 1.2-1.1 1.6-1.4l.6.3c1.1.6 1.8 1.3 1.6 1.9l-4.7 1.2c3.1 1.6 4.2 2 4.9 5.7 0 1.6-.4 3.5-.8 4.6-.6 1.5-1.7 3.5-3.6 5.4-1.5 1.5-4.5 3.4-6.8 4.5l-.7.4c1.8.7 3 2.3 3 4.3 0 2.5-2.1 4.6-4.6 4.6-2.4 0-4.4-1.8-4.6-4.2-.1-.5-.1-1.1.1-1.7.7-3.4 2.7-8.1 1-11.3-1.8-3.2-5.6-7-5.6-7s.5 3.4-.5 3.1c0 0-3.8.7-16.1-20.9 0 0-6.5 3.4-4.1 15.5 0 0-5-3.7-6.3-5.5-1.1-1.5-.7-2-.7-2s-1.3 1.7-.4 3c1.2 1.8 7.1 7.1 6.8 7.6-.4.8-6.6-3.7-8.3-5.8-.6-.7-.6-1.2-.6-1.2s-5.9 6 3.8 17.3c0 0 .3.3.3.4 0 0-6.4-2.3-8.3-3.6-1.6-1.1-1.5-1.8-1.5-1.8s-.7 2 .5 3c0 0 .1.1.3.2 1 .6 8.1 3.7 9.6 5v.1c-.1.9-8-1.3-10.6-2.9-.8-.5-1-1-1-1v-.1S74 39.6 87.9 44.4c-2.7-.2-7-1.4-9.2-2.2-2.5-.9-2.6-1.8-2.6-1.8s-.2 2.9 2 3.7c3 1.1 10.3 2.3 10.4 3.2.2 1.3-6.8 1-10.7-.1-1.3-.4-1.7-.9-1.7-.9s-.2.3-.2 1c-.1 1 .4 4.4 2 6.6C79.4 56 82 58.2 88.2 60c-2.4.1-7.5-.1-8.9-.3-2.6-.4-2.8-1.4-2.8-1.4s.4 2.8 2.7 3.3c3.2.6 10.7-.1 10.9.8.4 1.2-6.9 2.2-10.9 1.8-1.3-.1-1.8-.6-1.8-.6S77.7 74.8 92 77c-1.1 1-7 6.4-9.8 7.6-2.6 1.1-3.8.4-3.8.4s2.1 2.5 4.5 1.6c4.4-1.7 13.4-12.1 14.2-11.5C98.2 76 88.2 85.9 84 88c-1.2.6-2 .5-2 .5s7 8.1 16.8 5.8c5.5-1.1 12-5.5 18.5-16.7 0 0 4.9-10.6 4.6-15.8 0 0-9.7-7.4-11.2-10.7 0 0-.6-1.1-.2-1.2.5-.2 1.2.7 1.2.7s4.7 4.5 11.5 7.4c0 0 2.5 1.6 2.2 5.3-.4 4.1 0 7.7-5.3 19.1 0 0 .2-.1.5-.2.7-.1 2.2-.3 3.1-.3 1 0 .5.9.5.9s-1.3 6.8-3.5 8c0 0-1.6 1.4-5.1.2l-.3-.1c-.8-.4-1.4-.7-2-.9l-.3-.1c-3.6-1.4-3.7.9-3.7.9s-.3 1.5 1.8 3.6v-.5c0-.1 0-.3.1-.5.1-.7.3-1.2.9-1.3 1.1-.2 2.7.3 2.5 1.6 0 .3-.1.8-.7 1.2-.2.2-.5.3-.5.3s-3.2 1.5.1 5.3c0 0 0-1.7.9-3.2l.2-.3c1.1-1.2 3-2.8 4.7-1.6.1.1.2.2.2.4 0 .1.1.3 0 .4l-.4 1.5-.2.5-.1.5v.3c0 .2.1.4.2.6l.2.3c.4.5 1.1 1 2.2 1.4.2.1.3.1.5.1.9.1 1.7.4 2.7.4-.1-.1-.2-.2-.3-.2l-.4-.3c-.9-.9-2.2-2-2.2-3.5v-.5c.1-1 .6-1.9 1.6-2.3.1-.1.2-.1.4-.2.8-.4 1.6-.7 2.5-1l.5-.2c1.6-.6 3.4-.9 5.1-.7l.5.1c.9.3 1.6 1.3 1.6 2.2.3-1.1.6-2.4.1-3.5l-.1-.3c-.3-.9-1-1.5-2.2-1.1 0 0-.8.3-2.2 1-1.2.6-3.1.8-3.1.8-.1 0-1.8-.1-1-2.2.7-1.8 1.5-5.2 1.5-5.2s.1-2.3 3.4.9c0 0 .7-5.5 3.7-4.7 3.1.8 6.6 2.9 4.8 11.4 0 0-.9 2.7-2.9 5.3 0 0-1.3 1.4-1.3 2.2 0 0 1.4-1 2.2-.3.8.7 1.7 1.7-2 7.2 0 0-5.9 9-12.2 4.1-.5-2.8-2.7-4.9-5.4-5.6.5 1 1.8 3.2.7 3.9 0 0-14-7.8-17.4-9.2-8.3-3.3-17.3.7-15.5 10.7 1.3 5.7 9 8.7 12.6 3-5.3 1.2-10.9-5-5.4-8.9 2.4-1.7 6.3-3 9.2-1.8 3.4 1.4 1.4 4.6-1.1 5.4 0 0 5.5-.7 8.4.2 2.1.6 4.1 1.5 6.1 2.4-3.3 1.7-7.9 4.1-8.5 8.2-.8 6.3 7 7.2 11.2 5.1-4-.3-5.1-4-2.9-7.1 2.6-3.6 6.5-2.6 10.2-2.1 5 .7 8-2 8-2 1.9-1.4 5.2-4.9 5.2-4.9s-5.3 9.3 4 16.1c9.3-6.8 4-16.1 4-16.1s3.3 3.5 5.2 4.9c0 0 3 2.7 8 2 3.2-.4 6.6-1.4 9.3 1 3.1 2.9 2.8 7.8-2 8.1 4.3 2.1 12.1 1.3 11.2-5.1-.5-4.1-5.1-6.5-8.5-8.2 2-1 4-1.8 6.1-2.4 1.9-.6 4.8-.5 6.7-.4.6 0 1.1.1 1.7.2-3.4-1.1-4-5 0-5.7 3.1-.5 7.6.8 9.5 3.5 3.3 4.7-2.8 8.4-6.9 7.5 1.4 2.2 4 2.8 4 2.8 2.2.4 3.8.1 5.1-.6.3-.2.6-.3.8-.5 2.3-1.6 3.9-4.3 3.9-7.4 0-4.6-3.4-8.4-7.9-9-2.5-.6-5.5-.3-8.7 1-3.4 1.4-17.4 9.2-17.4 9.2-1.1-.7.2-2.9.7-3.9-2.7.7-4.9 2.8-5.4 5.6-6.3 4.8-12.2-4.1-12.2-4.1-3.7-5.5-2.8-6.5-2-7.2.8-.7 2.1.3 2.1.3-.1-.8-1.3-2.2-1.3-2.2-2-2.6-2.9-5.3-2.9-5.3-1.8-8.5 1.8-10.6 4.8-11.4 3.1-.8 3.7 4.7 3.7 4.7 3.3-3.2 3.4-.9 3.4-.9s.8 3.4 1.5 5.2c.8 2.2-.9 2.2-1 2.2 0 0-1.8-.2-3.1-.8-1.4-.7-2.2-1-2.2-1-1.3-.4-1.9.2-2.2 1.1l-.1.3c-.6 1.2-.2 2.4.1 3.5 0-1 .6-1.9 1.6-2.2.2-.1.3-.1.5-.1 1.7-.2 3.5.1 5.1.7.2 0 .3.1.5.2.8.3 1.7.6 2.5 1 .1.1.2.1.4.2 1 .5 1.5 1.4 1.6 2.3v.5c-.1 1.5-1.3 2.7-2.2 3.5l-.4.3c-.1.1-.2.2-.3.2 1 0 1.8-.3 2.7-.4l.5-.1c1.1-.4 1.8-.9 2.2-1.4l.2-.3c.1-.2.2-.4.2-.6v-.3c0-.2 0-.3-.1-.5 0-.2-.1-.3-.2-.5-.2-.4-.3-.9-.4-1.5 0-.1 0-.3.1-.4 0-.1.1-.3.2-.4 1.7-1.2 3.6.4 4.7 1.6l.2.3c.9 1.5.9 3.2.9 3.2 3.2-3.8.1-5.3.1-5.3s-.3-.1-.5-.3c-.6-.4-.7-.9-.7-1.2-.2-1.3 1.4-1.7 2.6-1.6.6.2.8.6.9 1.3l.1.5v.5c2-2.1 1.8-3.6 1.8-3.6s-.1-2.3-3.7-.9l-.3.1c-.6.2-1.2.5-2 .9l-.3.1c-3.6 1.2-5.1-.2-5.1-.2-2.2-1.2-3.5-8-3.5-8s-.5-.9.5-.9c.9 0 2.4.2 3.1.3.3.1.5.2.5.2-5.2-11.4-4.8-15-5.3-19.1-.4-3.7 2.1-5.3 2.1-5.3 6.8-2.9 11.5-7.4 11.5-7.4s.8-.9 1.3-.7c.5.2-.2 1.2-.2 1.2-1.5 3.3-11.2 10.7-11.2 10.7-.2 5.2 4.6 15.8 4.6 15.8 6.5 11.2 12.9 15.6 18.5 16.7 9.7 2.3 16.8-5.8 16.8-5.8s-.8.1-2-.5c-4.2-2.1-14.1-12-13-12.9.7-.6 9.8 9.8 14.2 11.5 2.3.9 4.5-1.6 4.5-1.6s-1.3.7-3.8-.4c-2.8-1.2-8.8-6.6-9.8-7.6 14.3-2.2 14.6-13.4 14.6-13.4s-.5.5-1.8.6c-4 .4-11.3-.6-10.9-1.8-.4-.7 7.1-.1 10.3-.6M138.8 3.1c-1.5.1-2.7.7-2.6 1.4 0 .2.1.4.3.5-1.1-.1-1.9-.6-2-1.2 0-.7 1.2-1.4 2.7-1.5 1.2-.1 2.3.3 2.7.8h-1.1M13.8 168.9l6.5 16.7h-13l6.5-16.7zm-1.4-2.8L0 196.3h2.9l3.2-8.1h15.2l3.2 8.1h3.1l-12-30.2h-3.2zm23.2 27.6h2.5c8.6 0 14.1-3.5 14.1-12.7s-5.5-12.3-12.2-12.3h-4.4v25zm-3-27.6h7.5c10.8 0 15.1 6.2 15.1 15.1 0 11-7.3 15.2-17.3 15.2h-5.3v-30.3zm28 0h3v27.6h12.1v2.6H60.6v-30.2zm20.7 0h14.8v2.5H84.3v10.8h11.2v2.6H84.3v11.7h12.3v2.6H81.3v-30.2zm24.4 13.3h3.2c3.5 0 7.5-1.3 7.5-5.5 0-4.9-3.5-5.2-7.6-5.2h-3.1v10.7zm-3-13.3h7.8c5.4 0 8.9 2.3 8.9 7.8 0 3.9-3 6.5-6.7 7v.1c2.4.3 2.9 1.6 3.9 3.6l5.2 11.7h-3.3L114 186c-1.7-3.9-3-4-5.9-4h-2.5v14.2h-3v-30.1h.1zm49.3 2.8l-6.6 16.7h13.1l-6.5-16.7zm-1.4-2.8h3.4l12 30.2h-3.1l-3.2-8.1h-15.2l-3.2 8.1h-2.9l12.2-30.2zm18.8 26.3c1.8 1.1 3.8 1.8 6.7 1.8 3.7 0 6.8-1.9 6.8-6.2 0-5.9-13.9-6.7-13.9-14.6 0-4.8 4.2-7.9 9.6-7.9 1.5 0 3.9.2 5.9 1l-.5 2.7c-1.3-.7-3.5-1.1-5.5-1.1-3.1 0-6.5 1.3-6.5 5.2 0 6.1 13.8 6.1 13.8 14.9 0 6.1-5.2 8.5-9.9 8.5-2.9 0-5.2-.6-6.8-1.3l.3-3zm25.4-11.8h2.1c4.5 0 8.7-.5 8.7-6 0-3.8-2.2-6-6-6h-4.8v12zm-3-14.5h7.4c5.7 0 9.3 2.9 9.3 8.6 0 5.6-4.2 8.6-9.6 8.6h-4.2v13.1h-3v-30.3h.1zm22.5 0h14.8v2.5h-11.8v10.8h11.2v2.6h-11.2v11.7h12.3v2.6h-15.3v-30.2zm25.6 13.3h3.2c3.5 0 7.5-1.3 7.5-5.5 0-4.9-3.5-5.2-7.6-5.2h-3.1v10.7zm-3-13.3h7.8c5.4 0 8.9 2.3 8.9 7.8 0 3.9-3 6.5-6.7 7v.1c2.4.3 3 1.6 3.9 3.6l5.1 11.7h-3.3l-4.4-10.2c-1.7-3.9-3-4-5.9-4h-2.5v14.2h-3v-30.2h.1zm43.8 16.4h-7v-2.6h10v15c-3.1 1.3-6.1 1.9-9.4 1.9-9.5 0-15.2-6.3-15.2-15.6 0-9.2 5.9-15.6 15.2-15.6 2.3 0 6.1.4 8.1 1.4l-.3 2.8c-2.3-1.3-5.1-1.6-7.7-1.6-7.8 0-12.2 5.5-12.2 13 0 7.6 4.3 13 12.2 13 1.9 0 5-.2 6.4-1.1v-10.6h-.1z"/><path d="M11.9 215.8v7.1H3.8v-7.1H2.2v16.1h1.6v-7.6h8.1v7.6h1.6v-16.1h-1.6zm14 15.1c2.5 0 3.9-2.2 3.9-4.9s-1.4-4.9-3.9-4.9-3.9 2.2-3.9 4.9 1.4 4.9 3.9 4.9m0-11c3.8 0 5.5 2.9 5.5 6.1 0 3.2-1.7 6.1-5.5 6.1s-5.5-2.9-5.5-6.1c.1-3.2 1.7-6.1 5.5-6.1M44.4 221.4h-2.7v7.6c0 1.1.4 1.9 1.6 1.9.6 0 .9-.1 1.3-.3l.1 1.2c-.3.1-1.1.3-1.8.3-2.6 0-2.7-1.8-2.7-3.9v-6.8H38v-1.2h2.3v-2.8l1.4-.5v3.3h2.7v1.2zm15.6 3.8c0-2-.8-4.1-3-4.1-2.1 0-3.4 2.1-3.4 4.1H60zm.7 6.3c-1 .4-2.3.6-3.4.6-3.9 0-5.3-2.6-5.3-6.1 0-3.6 2-6.1 4.9-6.1 3.3 0 4.7 2.7 4.7 5.8v.7h-8c0 2.5 1.3 4.5 3.9 4.5 1.1 0 2.6-.4 3.3-.9v1.5h-.1zm9.5.4h1.5v-17.2h-1.5v17.2zm29.2-9.5c1.4-.7 3.1-1.4 3.1-3.3 0-1.5-.9-2.3-2.3-2.3s-2.6.8-2.6 2.3c0 1.3 1 2.4 1.8 3.3m-.5 1.5c-1.5.6-3 1.9-3 3.7 0 2.2 1.8 3.3 3.7 3.3 1.4 0 3-.7 4-1.9l-4.7-5.1zm5.6 4c1-1.4 1.4-3.1 1.4-4.9h1.4c0 2.1-.6 4.2-1.8 5.8l2.7 3h-2l-1.7-1.8c-1.3 1.5-3 2.1-4.9 2.1-2.7 0-5.3-1.4-5.3-4.5 0-2.5 1.7-3.8 3.8-4.7-1-1.1-2.1-2.3-2.1-4 0-2.3 2.2-3.5 4.3-3.5 1.9 0 3.8 1.1 3.8 3.3 0 2.5-1.9 3.4-3.9 4.4l4.3 4.8zm25.7-5h1.7c1.9 0 4-.7 4-2.9 0-2.6-1.9-2.8-4-2.8h-1.6v5.7h-.1zm-1.6-7.1h4.1c2.9 0 4.7 1.2 4.7 4.2 0 2.1-1.6 3.4-3.6 3.7 1.3.2 1.6.9 2.1 1.9l2.7 6.2H137l-2.3-5.4c-.9-2.1-1.6-2.1-3.1-2.1h-1.3v7.6h-1.6v-16.1h-.1zm25.6 9.4c0-2-.8-4.1-3-4.1-2.1 0-3.4 2.1-3.4 4.1h6.4zm.7 6.3c-1 .4-2.3.6-3.4.6-3.9 0-5.3-2.6-5.3-6.1 0-3.6 2-6.1 4.9-6.1 3.3 0 4.7 2.7 4.7 5.8v.7h-8c0 2.5 1.3 4.5 3.9 4.5 1.1 0 2.6-.4 3.3-.9v1.5h-.1zm8.6-1.3c.9.4 1.9.7 3.1.7 1.4 0 2.6-.8 2.6-2.1 0-2.8-5.6-2.3-5.6-5.7 0-2.3 1.9-3.2 3.8-3.2.6 0 1.9.1 2.9.5l-.1 1.3c-.8-.3-1.8-.6-2.6-.6-1.5 0-2.5.5-2.5 1.9 0 2.2 5.8 1.9 5.8 5.7 0 2.5-2.3 3.3-4.1 3.3-1.1 0-2.3-.1-3.3-.6v-1.2zm20.8-8.8h-2.7v7.6c0 1.1.4 1.9 1.6 1.9.6 0 .9-.1 1.3-.3l.1 1.2c-.3.1-1.1.3-1.8.3-2.6 0-2.7-1.8-2.7-3.9v-6.8h-2.3v-1.2h2.3v-2.8l1.4-.5v3.3h2.7v1.2h.1zm15 4.6h-.4c-2.5 0-5.5.3-5.5 2.8 0 1.5 1.1 2.1 2.4 2.1 3.4 0 3.5-3 3.5-4.2v-.7zm.2 4c-.7 1.4-2.3 2.2-3.8 2.2-3.3 0-3.9-2.3-3.9-3.3 0-3.9 4.2-4.1 7.2-4.1h.3v-.6c0-2-.7-3-2.7-3-1.2 0-2.4.3-3.4 1v-1.4c.9-.4 2.4-.8 3.4-.8 2.9 0 4.1 1.3 4.1 4.4v5.2c0 .9 0 1.7.1 2.5h-1.4V230h.1zm19.7-.9c0 .9 0 1.8.1 2.8h-1.4v-2.1c-.5 1.1-1.4 2.4-3.8 2.4-2.9 0-4-1.9-4-4.5v-7.5h1.4v7.1c0 2.2.8 3.6 2.8 3.6 2.6 0 3.5-2.3 3.5-4.3v-6.5h1.4v9zm9.5-6.3c0-1.3 0-1.8-.1-2.6h1.4v2.3c.5-1.3 1.5-2.5 3-2.5.3 0 .8.1 1 .1v1.5c-.3-.1-.7-.1-1.1-.1-2.3 0-2.9 2.6-2.9 4.7v5.8h-1.5v-9.2h.2zm18.9 3.2h-.4c-2.5 0-5.5.3-5.5 2.8 0 1.5 1.1 2.1 2.4 2.1 3.4 0 3.5-3 3.5-4.2v-.7zm.1 4c-.7 1.4-2.3 2.2-3.8 2.2-3.3 0-3.9-2.3-3.9-3.3 0-3.9 4.2-4.1 7.2-4.1h.3v-.6c0-2-.7-3-2.7-3-1.2 0-2.4.3-3.4 1v-1.4c.9-.4 2.4-.8 3.4-.8 2.9 0 4.1 1.3 4.1 4.4v5.2c0 .9 0 1.7.1 2.5h-1.4V230h.1zm10.6-7.1c0-.9 0-1.8-.1-2.8h1.4v2.1c.5-1.1 1.4-2.4 3.8-2.4 2.9 0 4 1.9 4 4.5v7.5H266v-7.1c0-2.2-.8-3.6-2.8-3.6-2.6 0-3.5 2.3-3.5 4.3v6.5h-1.4v-9zm22.8-1.5h-2.7v7.6c0 1.1.4 1.9 1.6 1.9.6 0 .9-.1 1.3-.3l.1 1.2c-.3.1-1.1.3-1.8.3-2.6 0-2.7-1.8-2.7-3.9v-6.8h-2.3v-1.2h2.3v-2.8l1.5-.5v3.3h2.7v1.2z"/></svg>