<svg id="Ebene_1" xmlns="http://www.w3.org/2000/svg" viewBox="0 0 151.1 96.9"><style>.st0{fill:#706f6f}.st1{fill:#95c11f}</style><path class="st0" d="M5 88c0-6.1 2.2-9.1 5.7-9.1s5.7 3.2 5.7 9c0 6.1-2.1 9-5.7 9C7.3 96.9 5 93.8 5 88zm10 .1c0-5.6-1.5-8-4.3-8-2.9 0-4.3 2.2-4.3 7.8 0 5.5 1.5 7.8 4.3 7.8 2.9 0 4.3-2 4.3-7.6zM25.8 79.2h3.8c3.3 0 5 1.6 5 4.6 0 2.8-1.6 4.4-4.1 4.6.8.3 1.4 1.3 1.9 2.3l3.1 5.9H34L31.1 91c-1-1.9-1.3-2.4-2.9-2.4h-1v8.1h-1.3V79.2zm3.6 8.3c2.7 0 3.8-.9 3.8-3.7 0-2.5-1.2-3.4-3.6-3.4h-2.5v7.1h2.3zM43.3 87.9c0-5.9 2.2-9 6-9 1.9 0 3.2.7 4.1 1.5l-.8 1c-.9-.9-1.8-1.4-3.3-1.4-3.2 0-4.5 2.5-4.5 7.7 0 5.6 1.5 7.9 4.7 7.9 1.3 0 2.2-.3 3-.8V89H49l-.1-1.1h4.9v7.7c-1.1.7-2.6 1.2-4.4 1.2-3.8 0-6.1-2.8-6.1-8.9zM65.2 90.9l-1.5 5.7h-1.4l5-17.3h1.5l4.9 17.3h-1.5l-1.5-5.7h-5.5zm5.1-1.1l-1.1-3.9c-.5-1.7-1-3.7-1.3-5-.2 1.3-.8 3.2-1.3 5l-1.1 3.9h4.8zM82.4 79.2h1.4l5.4 11.1c.4.8 1.3 2.9 1.8 4.2-.2-1.8-.2-3.2-.2-4.8V79.2H92v17.3h-1.2l-5.5-11.4c-.6-1.4-1.1-2.4-1.8-4.2.2 1.8.2 3.2.2 4.8v10.8h-1.2V79.2zM102.2 79.2h1.3v17.3h-1.3V79.2zM113 87.9c0-6 1.9-8.9 5.9-8.9 1.8 0 3.2.7 4.1 1.6l-.8.9c-.9-.9-1.9-1.4-3.3-1.4-3.1 0-4.5 2.2-4.5 7.7 0 5.7 1.3 8 4.5 8 1.6 0 2.4-.5 3.4-1.3l.7 1c-.9.8-2.3 1.5-4.2 1.5-3.7-.2-5.8-3.3-5.8-9.1zM130.9 95.3l.6-1c.9.8 2.1 1.5 3.8 1.5 2.1 0 3.4-1.4 3.4-3.9 0-1.9-.8-2.9-2.7-3.6l-1.2-.4c-2.1-.7-3.4-2-3.4-4.5 0-2.8 1.7-4.5 4.3-4.5 1.6 0 2.8.5 3.8 1.3l-.7 1c-.7-.6-1.7-1.2-3.1-1.2-1.9 0-3 1.3-3 3.3 0 1.7.6 2.7 2.6 3.4l1.2.4c2.3.8 3.6 2.1 3.6 4.7 0 3.1-1.8 5-4.8 5-1.8.1-3.3-.6-4.4-1.5zM144.1 78.1c0-2.4 1.5-4.1 3.5-4.1 2.1 0 3.5 1.7 3.5 4.1 0 2.4-1.4 4-3.5 4-2.1.1-3.5-1.6-3.5-4zm6.5 0c0-2-1.2-3.5-3-3.5-1.7 0-3 1.5-3 3.5s1.2 3.5 3 3.5c1.7 0 3-1.5 3-3.5zm-4.2-2.2h1.2c.9 0 1.3.4 1.3 1.2 0 .6-.3 1.1-.9 1.1.2.1.3.3.5.5l.6 1.4h-.7l-.6-1.4c-.2-.4-.2-.4-.5-.4h-.2v1.8h-.7v-4.2zm1.1 2c.5 0 .7-.2.7-.8 0-.5-.2-.7-.7-.7h-.5v1.4h.5z"/><path class="st1" d="M97.6 8.7C72.7-7.5 54.7.8 47.9 17.7 29.2 11.6 11 12.4 0 30.4 10.7 20.6 30.6 18 44.8 22c10.1 2.8 16.4 9.2 16.4 9.2s-7.4-3.7-15.5-6.3c-3.6 17.6 6.8 27.6 23.6 31.3 40.3 9 77.9-33.2 77.9-33.2s-14.9 8.3-49.6-14.3zm4.4 34.1c-1 1.3-11.6 13.4-38.4-6.7-.1 0-.1.1-.2.1-.2.2-3.4 5-4.7 6.7-1.3 1.7-2.4 3.1-3.3 4-1.2 1.3-2.1 2.4-.7-.5.5-1.1 1.3-2.8 2.4-4.6 10.3-17.4 12.6-20.2 15.8-23.3 4-3.9 9.1-4.3 9.4-4.3.8 0 .4.2.1.4-.3.2-5 2.6-7.5 5.4-2.5 2.7-4.3 5.3-8.4 11.6l.2-.2c.8-1.3 11.3-8.5 19.7-6.2.6.2.2.3 0 .3-2.9.2-13.4 3.5-20.7 8.8 22.3 15.1 29.9 8.5 32 6 3.5-4.3 0-8-10.6-3.7-1.6.7-5 2.2-5.5 2.5-.5.2-.2-.2-.2-.2C89 26.3 96.9 17 97.4 16.5c.6-.5 1.2-1 1.9-1.4.8-.4 1.5-.7 2.2-.8H102.4l-.9.3c-.6.3-1.1.7-1.7 1.2-.5.5-1 1-1.4 1.5-.5.6-6.5 10.8-13.5 18.4 0 0 3.8-3.1 8.5-4.1 7.7-1.6 14 4.1 8.6 11.2z"/></svg>