<svg id="Layer_1" xmlns="http://www.w3.org/2000/svg" viewBox="7 182.6 525 149.4"><style>.st0{fill:#ffc900}</style><path class="st0" d="M44 219.3v-5.6h-5.8l.1 5.6zM42.9 202.2v-3.5h-3.6v3.5zM38.7 206.2h4.6v4.6h-4.6zM31.7 199.2h2.5v2.5h-2.5zM26 209.8v-2.5h-2.5v2.5zM34.7 210.3v-3.5h-3.6l.1 3.5zM39.9 191.1h2.5v2.5h-2.5zM30.2 230.1h5.7v5.7h-5.7zM30.6 214.2h4.6v4.6h-4.6zM30.2 221.9h5.7v5.7h-5.7zM59.2 194.1v-3.5h-3.6l.1 3.5zM68.3 203.3v-5.7h-5.6v5.7zM52 211.3v-5.6h-5.7v5.6zM63.2 190.1h4.6v4.6h-4.6zM56.2 182.9h2.5v2.5h-2.5zM51.5 202.7v-4.6h-4.6l.1 4.6zM48 191.1h2.5v2.5H48zM60 205.7h-5.6l-.1 5.6H60zM59.7 202.7v-4.6H55l.1 4.6zM7 239.4h3.2v3.2H7zM26.5 218.3v-3.5H23v3.5zM15.5 291H18v-2.5h-2.5zM15.5 296.6H18v2.5h-2.5zM7 247.6h3.2v3.2H7zM64 182.6h3.2v3.2H64zM14.4 263.2H19v4.6h-4.6zM15 283.4h3.5v-3.5h-3.6zM14.4 255H19v4.6h-4.6zM14.4 271.2H19v4.6h-4.6zM7 255.7h3.2v3.2H7zM15.5 223.5H18v2.5h-2.5zM27.2 230.6h-4.7v4.6h4.7zM18 217.9v-2.5h-2.6l.1 2.5zM27.2 222.5h-4.7v4.6h4.7zM18.5 234.7v-3.6H15v3.6zM7.3 282.9h2.5v-2.5H7.3zM7 271.9h3.2v3.2H7zM7 263.9h3.2v3.2H7zM14.4 246.9H19v4.6h-4.6zM7.3 231.6h2.5v2.5H7.3zM132 201.7v-2.5h-2.6l.1 2.5zM132.8 214.4h-4.6l-.1 4.6h4.7zM132.4 206.8h-3.5l-.1 3.5h3.6zM135.5 238.2h5.7v5.7h-5.7zM121.3 191.1h2.5v2.5h-2.5zM127.5 222h5.7v5.6h-5.7zM136.1 230.6h4.6v4.6h-4.6zM124.4 202.1v-3.5h-3.6l.1 3.5zM127.4 230.1h5.7v5.7h-5.7zM140.4 218.5v-3.6h-3.5l.1 3.6zM145.4 223.6h2.5v2.5h-2.5zM156.2 242.6v-3.2H153v3.2zM145.6 215.4h2.5v2.5h-2.5zM153.5 231.7h2.5v2.5h-2.5zM137.5 207.3h2.5v2.5h-2.5zM140.9 227.1v-4.6h-4.7l.1 4.6zM124.8 206.2h-4.6l-.1 4.6h4.7zM148.3 234.7v-3.5h-3.5l.2 3.5zM144.2 238.7h4.7v4.6h-4.7zM125.1 213.9h-5.6l-.1 5.6h5.7zM92.3 190h-4.6l-.1 4.6h4.7zM80.2 185.8h3.3v-3.2H80.2v3.2zM93 197.5h-5.7v5.6H93zM88.4 182.6h3.2v3.2h-3.2zM84.1 194.6h.1V190h-4.7V194.7h4.6zM101 197.5h-5.6l-.1 5.6h5.7zM76 194.7v-4.6h-4.6v4.6zM72.1 182.6h3.2v3.2h-3.2zM79 203.3h5.7v-5.7h-5.8zM95.8 190h4.6v4.6h-4.6zM105 183h2.5v2.5H105zM70.8 197.6h5.7v5.7h-5.7zM111.5 205.7h5.7v5.6h-5.7zM113.1 191.1h2.5v2.5h-2.5zM112.2 198h4.6v4.6h-4.6zM103.3 205.7h5.7v5.6h-5.7zM99.7 185.8v-3.2h-3.2v3.2zM108.7 198h-4.6l-.1 4.6h4.7zM104.5 190.5h3.6v3.6h-3.6zM63.2 319.8h4.6v4.6h-4.6zM135.5 246.3h5.7v5.7h-5.7zM129 307.6h3.8V304h-3.6zM129.5 315.2h2.5v-2.5h-2.6zM120 300.4h5.8v-5.7h-5.7z"/><path class="st0" d="M126.4 229.5h-4.3v-1.1h4.3v-7.3h-8.1V213H102v-8.2h-7.2v4.3h-1.1v-4.3H70.3v4.3h-1.1v-4.3h-7.5v8.2H45.5v8.1h-8.1v7.3h4.3v1h-4.3v7.8h-8.2v7.4h4.2v1h-4.3v23.3h4.3v1.1h-4.3v7.3h8.1v7.8h4.3v1h-4.3v7.5h8.1v8h16.3v8h7.5v-4.2h1.1v4.3h23.4v-4.3h1.1v4.3h7.3v-8h16.1v-8.1h8.1v-7.5H122v-1h4.3v-7.7h8.2V270h-4.3v-1h4.3v-23.3h-4.3v-1h4.3v-7.3h-8.1v-7.9zm-18.5 1.6c0-.3 2.4-1.4 1.5-3.1-.4-.4-1 1.8-2.2.4-.7-1.4.6-3.8-3.6-4 .7.4 3.3 4.4-.4 5.4-4.5.7.6-5.3-8.9-5.5 0 0-3.9-.2-7.3 3.2 1.9.4 4.6 3.3-.2 5.1-.6-.7 1.1-2-2.4-1.6-3.5.4-8.1 5.6-8.8 13.3 1.6-1.4 2.8-.3 3.4.7.5.9-.8 2.1-1.5 2.2-.7.1-1.7.6-1.8 2.2s-.4 3.2-1.7 3.8c0 0 .8.7.5 1.8-.3 1-1 1.3-1.3 1.4v.2s.9 1.6.6 3.7c.7-.3 2.7-1.2 3.6.6.9 1.8-.2 3.2-1.2 3.6s-1.2.3-1.8-.3c-.7-.6-1.6.4-1.6 1.2-.1.8-1.7 5.6-2.3 7.9-.6 2.2-3.2 7.9-3.8 8.7.7.2 2.6 1.8 6.6 1.5 3.9-.2 5.3-1.8 5.6-2.2-.5-.2-.7-2.1.2-2.6.9-.6 3.7-.5 4.7 1.9.9 2.4-.1 5.3-4.5 6 2.7.5 3.2 1.8 12.1 2.1 8.9.4 14.2-6.1 13.4-10.8-.8-4.6-1.7-3.3-4.1-2.4-1.9-.6-2.1-3.6-.5-4.8.6-.5 2.4-1.6 3.3-1.5.3-.6.8-2.3 2.8-1.5 2 .8 7.1 3.1 2.7 12.4h-.1l.4.3c1.1.1 3.8.4 1.4 4.4-1.8 2.9-7.5 5-7.5 5s2.7.2 2.2 1.7c-.4 1.5-1.4 2.6-8.7 3-7.3.5-20.1-5.1-21.6-5.7.4 1.5.5 5.1-2.5 4.9-1.9-.1-2.4-2.3-2.2-2.5.3-.2 2.2-.6 1.8-1.9-.4-1.2-3-3.3-6.5-4.1-.5.1-2.2 3.1-2.9 3.6 1.3 0 4.5.3 3.7 3.4s-4.4 1.8-4.4.5c0-.6.9-.1.7-1.1-.1-.6-1.1-.7-2.2.6-1.1 1.3-3.9 2.1-6.1 2.2-2.1 0-7.1-1.1-7.6-6.2-.4-5.2 4.8-7.3 6.6-7.5 1.8-.1 3.7 0 4.3 0 .4-.4.7-1.5.1-2s.2-2.3 1.9-2.3c1.8.1 3.5 1.7 1.8 4.7 1.1.8 1.9.9 2.2.8.3-.1.8-1.5.9-2.1.3-1.5.5-4.3-.2-5.9s-1.4-1.1-2.1-1.2c-.6-.1-1.4-.9-1.5-2.3 0-1.3 1.4-2.4 2.6-2.4s2.8 1.6 3.3 3c.6-2.9 0-8.4-.9-10.4-.8-1.9-1.5-2.7-3.1-2.6-1.6 0-1.4 1-2.4 1.5-2.1-.9-2-3.7-.9-4.9 1.2-1.3 3.4-1.2 3.8-1.2.3-.5.5-.8.9-.8 1.2-.1 2.3 1.3 3.1 2.1.8.8 1.4 2.9 1.5 3.8l.5-.8c.2-.4.8-.5.8-.5s.1-.3 0-.6c-.3-.2-.8-1-.9-1.6s.4-1.5.4-1.7c0-.1-.6 0-.9-1.3s1.3-4 1.5-4.3c.3-.4.7-2.4-.3-2.5-2.5-.3-1.1.9-2.1.7-2.3-.3-2.2-5.2.5-5.9 2.8-.7 4.7 2.2 5.1 3 .2-.6.6-2.8 2.5-7.4 1.9-4.6 3.1-4.8 3.1-6.3.1-1.5-1-1.3-2.1-1.3 0-2 .8-4.4 3.3-4.5 2.6-.2 3.5 2.3 3.5 2.3s8.2-7 17.6-6.9c9.4.1 11.6 7.6 11.6 10.1-.1 2.5-.8 6.7-5.1 7.7-2.1.5-4.2-2.9-2.1-5.3 0 0 2.4 1.8 3.5.9-1.1-.4-1.3-.9-1.3-1.2z"/><path class="st0" d="M128 292.2h6v-5.7h-5.7zM120.5 303.5h4.6v4.6h-4.6zM55.6 283.1c0 1-.1 2-1.8 2-1.6 0-1.8-.9-2.5-.9-.6.6-2.4 2.6-1.1 4.6 1.3 2 3.5 2.5 5.2.9.9-.8.6-2.5.6-3s1.5-.2 2.2.9c.8-.3 2.9-2.5 3.5-3.8.1 0-4.4-.9-6.1-.7zM128 284.1h6v-5.7h-5.6zM128.8 295.3h4.6v4.6h-4.6zM104.5 320.4h3.6v3.5h-3.6zM103.8 302.9h5.7v5.7h-5.7zM104 316.1h4.7v-4.6h-4.6zM105 329.1h2.5v2.5H105zM121.3 321h2.5v2.5h-2.5zM120.9 315.6h3.5v-3.5h-3.6zM113.1 321h2.5v2.5h-2.5zM111.9 302.9h5.7v5.7h-5.7zM112.2 311.5h4.6v4.6h-4.6zM145.2 255h-1v4.6h5.6v-5h-4.6zM145 267.6h4.8v-4.9h-4.6zM95.3 316.6h5.7V311h-5.5zM156.2 250.8v-3.2H153v3.2zM145 275.6h4.8v-4.8h-4.6zM154 282.5h2.8v-2.6h-2.5zM154 274.7h3.2v-3.2H154zM154 255.3v.4h-1l.1 3.2h3.2v-.3h.9v-3.3zM145.7 283h3.5v-3.6h-3.6zM154 263.4h3.2v3.2H154zM137 283.5h4.6v-4.6H137zM137 291.6h4.6V287h-4.7zM146 290.6h2.6v-2.5h-2.5zM141.2 259.7h.9V254h-5.6v.4h-1l.1 5.6h5.6zM137.8 304.5h2.5v2.5h-2.5zM137 299.4h4v-3.6h-3.6zM136.2 276h6v-5.7h-5.7zM146 298.8h2.6v-2.5h-2.5zM144.2 246.9h4.6v4.6h-4.6zM136.2 267.8h6v-5.6h-5.7zM55.6 320.4h3.6v3.5h-3.6zM30.2 287h5.7v5.6h-5.7zM30.7 300.2h4.6v-4.6h-4.6zM31.1 307.7h3.5v-3.6H31zM30.1 278.8h5.7v5.7h-5.7zM39.9 321h2.5v2.5h-2.5zM31.6 312.7h2.5v2.5h-2.5zM38.3 300.7H44V295h-5.7zM38.7 308.2h4.6v-4.6h-4.7zM39.2 312.1h3.5v3.5h-3.5zM22 262.7h5.7v5.7H22zM22 238.2h5.7v5.7H22zM22.5 279.4h4.6v4.6h-4.6zM23.1 296.1h3.6v3.5h-3.6zM23.5 307.1H26v-2.5h-2.6zM22.5 292.1h4.7v-4.6h-4.6zM22 246.4h5.7v5.7H22zM22 270.7h5.7v5.7H22zM22 254.5v5.6h5.7v-5.6H22zM48 323.5h2.5V321H48zM72.1 328.8h3.2v3.2h-3.2zM46.8 311.5h4.6v4.6h-4.6zM79.5 319.8h-.1v4.6h4.8v-4.6H84zM70.6 310.9h5.6v5.7h-5.6zM84.3 310.9h-5.6l.3 5.7h6V311h-.7zM87.3 316.6H93V311h-5.6zM88.3 332h3.3v-3.2h-3.2zM96.5 332h3.2v-3.2h-3.2zM71.4 324.4H76v-4.6h-4.7zM87.6 324.4h4.7v-4.6h-4.6zM80.2 328.8v3.2H83.5v-3.2h-.1zM55 316.1h4.5v-4.6h-4.6zM14.4 238.7H19v4.6h-4.6zM95.8 319.8h4.6v4.6h-4.6zM46.3 308.7H52v-5.6h-5.8zM56.2 329.1h2.5v2.5h-2.5zM54.4 303.1h5.7v5.7h-5.7zM62.5 310.9h5.7v5.7h-5.7zM64 328.8h3.2v3.2H64z"/><path d="M173.9 276.2h20.4v-2.8h-16.9v-35h-3.5v37.8zm26.4-37.8v25.5c0 8.6 4.5 12.9 13.7 12.9s13.7-4.3 13.7-12.8v-25.6h-3.5v25.8c0 7.2-3.5 9.7-10.2 9.7s-10.2-2.5-10.2-9.7v-25.8h-3.5zM240.5 241.2h7.4c8.4 0 12.9 5.9 12.9 16.1 0 10.2-4.5 16.1-12.9 16.1h-7.4v-32.2zm-3.5 35h10.7c11.8 0 16.5-8.8 16.5-18.9 0-10.1-4.7-18.9-16.5-18.9H237v37.8zM279.3 276.2h3.5l7.4-31.1h.1l7.4 31.1h3.5l10.2-37.7h-3.5l-8.2 31.5h-.1l-7.4-31.5h-3.5L281 270h-.1l-8.1-31.5h-3.5l10 37.7zm40.7-37.8h3.5v37.8H320v-37.8zm40.2 10.5c-1.4-6.4-5.8-10.9-12.9-10.9-8.1 0-14.7 6.9-14.7 19.4 0 12.5 6.1 19.4 14.5 19.4 5.2 0 8-1.3 10.3-4.2h.1v3.7h3v-17.8h-13v2.8h9.5v3.5c0 5-3.5 9.1-8.9 9.1-9.8 0-12.1-8.5-12.1-16.6 0-10.2 4.4-16.6 11-16.6 5.6 0 8.6 3.8 9.8 8.7l3.3-.6.1.1zm7.6 17.7c2.1 6.9 6.2 10.1 13.5 10.1 6.1 0 11.5-3.5 11.5-10 0-5.4-2.2-8-12.8-12-7-2.6-7.7-4.4-7.7-7 0-4.4 3.1-6.9 7.5-6.9 4.8 0 7.8 3 9.2 7.2l3-.9c-1.7-5.8-6.1-9-12.1-9-7 0-10.9 4.2-10.9 9.8 0 12.5 20.6 8.6 20.6 18.7 0 4.6-2.8 7.6-7.5 7.6-6 0-9.3-2.5-10.8-8.2l-3.2 1-.3-.4zM404.8 258h7.9c7.6 0 10.8 3.3 10.8 7.6 0 5.4-3 7.8-9.7 7.8h-9V258zm0-16.8h6.8c6.8 0 10.3 1.4 10.3 6.9 0 5.6-4.4 7-8.9 7h-8.2v-13.9zm-3.5 35h12.1c8.2 0 13.5-2.5 13.5-10.4 0-4.8-2.7-7.9-6.8-9.8 3.8-1.7 5.4-4.1 5.4-8.2 0-6.5-4.1-9.5-13.4-9.5h-10.6v37.8l-.2.1zM435.6 238.4v25.4c0 8.6 4.5 12.9 13.7 12.9s13.7-4.3 13.7-12.9v-25.4h-3.5v25.8c0 7.2-3.5 9.7-10.2 9.7s-10.2-2.5-10.2-9.7v-25.8h-3.5zM476 241.2h9.4c5.5 0 8.2 2.8 8.2 7.4 0 4.7-3.2 7.4-8.2 7.4H476v-14.8zm13.2 17.1c5.4-1.4 7.9-4.7 7.9-9.7 0-6.2-4.2-10.3-11.7-10.3h-12.8v37.8h3.5v-17.2h9.8l8.8 17.3h3.8l-9.3-17.9zM531.6 248.8c-1.3-6.4-5.8-10.9-12.8-10.9-8.1 0-14.7 6.9-14.7 19.4 0 12.5 6.1 19.4 14.5 19.4 5.3 0 8.1-1.3 10.3-4.3h.1v3.7h3v-17.6h-13v2.8h9.6v3.5c0 5-3.5 9.1-8.9 9.1-9.7 0-12.1-8.5-12.1-16.6 0-10.2 4.4-16.6 11.1-16.6 5.6 0 8.6 3.8 9.8 8.7l3.3-.6h-.2z"/></svg>