<svg id="Ebene_1" xmlns="http://www.w3.org/2000/svg" viewBox="0 0 157.7 68.5"><style>.st0{fill:#23408d}</style><path class="st0" d="M2.1 35.4h1.7l2.5 10c.4 1.6.8 3.4.9 4.6.1-1.3.6-3 1-4.6l2.5-10h1.7l1.2 16h-1.2l-.7-10.2c-.1-1.6-.2-3.5-.3-4.6-.2 1.1-.6 3-1.1 4.6L7.8 51.4H6.6L4.1 41.2c-.4-1.8-.9-3.6-1.1-4.7 0 1.1-.1 3-.3 4.8l-.6 10.1H.9l1.2-16zM16.2 45.5c0-3.9 1.5-6.2 4-6.2 2.4 0 3.7 1.7 3.7 5.9v.5h-6.4c.1 3.8 1.1 5 3.1 5 1.1 0 1.9-.5 2.5-1.1l.6.7c-.8.8-1.8 1.3-3.2 1.3-2.9.1-4.3-2.2-4.3-6.1zm6.3-.7c0-3.5-.8-4.5-2.4-4.5-1.5 0-2.6 1.3-2.7 4.5h5.1zM27.7 49.3v-8.8h-1.3v-.9h1.3c0-1.3.1-2.7.2-3l1-.3v3.3h2.5l-.1.9h-2.4V49c0 1.3.3 1.7 1.2 1.7.5 0 .9-.1 1.1-.3l.3.9c-.5.2-1 .4-1.6.4-1.5 0-2.2-.8-2.2-2.4zM39.5 50.2c-.6.8-1.5 1.5-2.7 1.5-2 0-3.2-1.2-3.2-3.3 0-2.6 1.6-3.8 4.8-3.8h1v-2c0-1.6-.6-2.2-2-2.2-1.2 0-2.2.5-3 1.2l-.4-.8c1-.8 2.2-1.4 3.7-1.4 2.1 0 3 1.2 3 3.3v6.1c0 1.4.1 1.7.7 2.2l-.6.8c-.6-.3-1.1-.8-1.3-1.6zm-.1-1.1v-3.7h-1c-2.5 0-3.5.8-3.5 2.9 0 1.7.6 2.4 2 2.4 1.3.1 2-.7 2.5-1.6zM45.4 50.5c0 .3-.1.7-.1 1h-1V35.1l1-.2c0 .2.2.8.2 2.1v3.8c.7-.8 1.7-1.5 2.8-1.5 2.3 0 3.7 1.8 3.7 6.2 0 4.6-1.8 6.1-3.9 6.1-1 .1-2-.4-2.7-1.1zm5.3-4.9c0-4.1-.8-5.3-2.5-5.3-1.1 0-2 .6-2.7 1.5v7.6c.6.8 1.5 1.3 2.5 1.3 1.7 0 2.7-1 2.7-5.1zM54.8 45.5c0-4 1.4-6.2 4.1-6.2 2.7 0 4 2.3 4 6.2 0 3.9-1.4 6.1-4.1 6.1-2.7.1-4-2.2-4-6.1zm6.8.1c0-4-.9-5.4-2.8-5.4S56 41.6 56 45.3c0 4 .9 5.3 2.8 5.3 1.9.1 2.8-1.3 2.8-5zM66.1 49.9V35.1l1-.2c0 .2.2.8.2 2.1v12.6c0 .9.1 1.1.6 1.1.1 0 .3 0 .3-.1l.2.9c-.3.1-.5.2-.8.2-1-.1-1.5-.6-1.5-1.8zM71.8 36.4c0-.5.3-.8.8-.8s.8.3.8.8-.4.8-.8.8c-.5 0-.8-.4-.8-.8zm.1 3.1l1.2-.2v12.1h-1.2V39.5zM76.4 45.5c0-4 1.4-6.2 4.2-6.2 1.2 0 2.2.5 2.8 1.2l-.6.8c-.6-.6-1.3-1-2.2-1-2 0-2.9 1.5-2.9 5.1 0 3.9.9 5.3 2.9 5.3 1.1 0 1.6-.4 2.3-1.1l.6.8c-.7.7-1.6 1.3-3 1.3-2.9 0-4.1-2.3-4.1-6.2zM100.7 47c0 2.9-1.7 4.4-5.2 4.4h-3.4v-16h3.5c3.1 0 4.6 1.2 4.6 3.9 0 1.7-1 3.2-2.7 3.6 2.1.4 3.2 1.9 3.2 4.1zm-4.8-4.5c2 0 3.1-.9 3.1-3.1 0-2.1-.8-2.9-3.1-2.9h-2.4v6h2.4zm-.2 7.8c2.6 0 3.7-.9 3.7-3.3 0-2.5-1.1-3.5-3.7-3.5h-2.3v6.8h2.3zM109.4 50.2c-.6.8-1.5 1.5-2.7 1.5-2 0-3.2-1.2-3.2-3.3 0-2.6 1.6-3.8 4.8-3.8h1v-2c0-1.6-.6-2.2-2-2.2-1.2 0-2.2.5-3 1.2l-.6-.8c1-.8 2.2-1.4 3.7-1.4 2.1 0 3 1.2 3 3.3v6.1c0 1.4.1 1.7.7 2.2l-.6.8c-.4-.3-.9-.8-1.1-1.6zm-.1-1.1v-3.7h-1c-2.5 0-3.5.8-3.5 2.9 0 1.7.6 2.4 2 2.4 1.2.1 2-.7 2.5-1.6zM114.5 49.9V35.1l1-.2c0 .2.2.8.2 2.1v12.6c0 .9.1 1.1.6 1.1.1 0 .3 0 .3-.1l.2.9c-.3.1-.5.2-.8.2-1-.1-1.5-.6-1.5-1.8zM125.1 50.2c-.6.8-1.5 1.5-2.7 1.5-2 0-3.2-1.2-3.2-3.3 0-2.6 1.6-3.8 4.8-3.8h1v-2c0-1.6-.6-2.2-2-2.2-1.2 0-2.2.5-3 1.2l-.6-.8c1-.8 2.2-1.4 3.7-1.4 2.1 0 3 1.2 3 3.3v6.1c0 1.4.1 1.7.7 2.2l-.6.8c-.4-.3-.9-.8-1.1-1.6zm-.1-1.1v-3.7h-1c-2.5 0-3.5.8-3.5 2.9 0 1.7.6 2.4 2 2.4 1.2.1 2-.7 2.5-1.6zM129.9 39.6l.9-.2c.1.3.2.7.2 1.6.9-1.1 2-1.7 3.2-1.7 1.7 0 2.7 1.1 2.7 3v9.1h-1.2v-8.8c0-1.7-.5-2.3-1.8-2.3-1 0-2.2.6-2.9 1.5v9.6h-1.2V39.6zM140.1 45.5c0-4 1.4-6.2 4.2-6.2 1.2 0 2.2.5 2.8 1.2l-.6.8c-.6-.6-1.3-1-2.2-1-2 0-2.9 1.5-2.9 5.1 0 3.9.9 5.3 2.9 5.3 1.1 0 1.6-.4 2.3-1.1l.6.8c-.7.7-1.6 1.3-3 1.3-2.8 0-4.1-2.3-4.1-6.2zM149.2 45.5c0-3.9 1.5-6.2 4-6.2 2.4 0 3.7 1.7 3.7 5.9v.5h-6.4c.1 3.8 1.1 5 3.1 5 1.1 0 1.9-.5 2.5-1.1l.6.7c-.8.8-1.8 1.3-3.2 1.3-2.8.1-4.3-2.2-4.3-6.1zm6.4-.7c0-3.5-.8-4.5-2.4-4.5-1.5 0-2.6 1.3-2.7 4.5h5.1zM0 13.4c46.7-23.6 92.2 2.2 92.1 2.2 36-24.1 65.6-2.3 65.6-2.3s-25.2-24-65.5-3C86.8 8.2 40-13.6 0 13.4M101.7 66.3c0 .3-.1.6-.2.8-.1.3-.3.5-.5.7-.2.2-.5.4-.8.5-.3.1-.7.2-1.2.2-.4 0-.8-.1-1.2-.2-.4-.1-.8-.3-1.1-.5l.4-.9c.3.2.6.3.9.4.3.1.6.2 1 .2s.8-.1 1-.3c.2-.2.4-.5.4-.8 0-.3-.1-.5-.2-.6-.2-.2-.4-.3-.8-.4l-.7-.2c-.3-.1-.6-.2-.8-.3-.2-.1-.4-.3-.5-.5-.2-.3-.3-.6-.3-1 0-.3.1-.6.2-.8.1-.2.3-.5.5-.6.2-.2.5-.3.7-.4.3-.1.6-.2 1-.2s.8.1 1.2.2c.4.1.7.3 1 .5l-.5.8c-.3-.2-.6-.3-.8-.4-.2-.1-.5-.1-.8-.1-.3 0-.6.1-.8.3-.2.2-.3.4-.3.7 0 .2.1.4.2.5.1.1.4.2.7.3l.8.2c.5.1.9.4 1.2.7.2.2.3.6.3 1.2zM105.1 68.3v-6.9h3.8l-.1.9h-2.5v1.9h2.1v.9h-2.1v2.2h2.8v1h-4zM118 68.3l-.3-4.3v-.3-.3-.3-.2c0 .1-.1.3-.1.5s-.1.4-.2.6l-1.3 4.4h-1l-1.1-4.2c0-.1-.1-.2-.1-.4 0-.1-.1-.3-.1-.4 0-.1-.1-.2-.1-.3v-.2 1.3l-.3 4.2h-1.1l.6-6.9h1.5l1.1 3.9c.1.3.1.5.2.7 0 .2.1.3.1.4 0-.1 0-.3.1-.5 0-.2.1-.4.2-.7l1.1-3.9h1.5l.6 6.9H118zM122.7 68.3v-6.9h1.2v6.9h-1.2zM131.1 68.3l-1.5-3.2-.3-.6-.3-.6c-.1-.2-.1-.3-.2-.5s-.1-.3-.1-.4V68.2h-1.1v-6.9h1.3l1.7 3.4c.1.2.2.3.2.5.1.2.1.3.2.5s.1.3.2.4c0 .1.1.2.1.3V66v-.5-.6-3.7h1.1v6.9h-1.3zM140 68.3l-.6-1.8h-2.2l-.6 1.8h-1.2l2.3-6.9h1.3l2.2 6.9H140zm-.8-2.7s0-.1-.1-.3c0-.1-.1-.3-.2-.5s-.1-.4-.2-.7c-.1-.2-.1-.5-.2-.7-.1-.2-.1-.4-.1-.6 0-.2-.1-.3-.1-.3 0 .1-.1.2-.1.4s-.1.3-.2.5-.1.4-.2.6c-.1.2-.1.4-.2.6-.1.2-.1.4-.2.5 0 .2-.1.3-.1.3h1.9zM147.7 68.3l-.6-1.1c-.2-.4-.4-.8-.6-1-.2-.3-.4-.5-.6-.7-.1-.1-.1-.1-.2-.1s-.1-.1-.3-.1v3h-1.1v-6.9h2.1c.4 0 .7.1 1 .2.3.1.5.2.7.4.2.2.3.4.4.6.1.2.1.5.1.8 0 .2 0 .5-.1.7l-.3.6c-.1.2-.3.3-.5.4-.2.1-.5.2-.7.2.1 0 .1.1.2.2l.3.3c.1.1.2.3.3.4.1.2.2.3.3.4l1 1.7h-1.4zm-.2-4.9c0-.4-.1-.6-.3-.8-.2-.2-.6-.3-1.1-.3h-.6v2.2h.6c.3 0 .5 0 .7-.1.2 0 .3-.1.4-.2.1-.1.2-.2.2-.4 0 0 .1-.2.1-.4zM152.2 68.3v-6.9h3.8l-.1.9h-2.5v1.9h2.1v.9h-2.1v2.2h2.8v1h-4z"/></svg>