<svg xmlns="http://www.w3.org/2000/svg" xmlns:xlink="http://www.w3.org/1999/xlink" viewBox="0 0 170.1 70.9"><style>.st0{clip-path:url(#SVGID_2_)}.st0,.st1{fill:#283583}</style><defs><path id="SVGID_1_" d="M0 0h170.1v70.9H0z"/></defs><clipPath id="SVGID_2_"><use xlink:href="#SVGID_1_" overflow="visible"/></clipPath><path class="st0" d="M6.2 23.1c46.7-23.6 92.2 2.2 92.1 2.2 36-24.1 65.6-2.3 65.6-2.3s-25.2-24-65.5-3c-5.3-2.2-52.2-24-92.2 3.1z"/><path class="st1" d="M7.1 61h1.2L9 50.9c.1-1.8.2-3.7.3-4.8.2 1.1.6 3 1.1 4.7L12.8 61H14l2.5-10.3c.4-1.6.9-3.5 1.1-4.6 0 1.1.1 3.1.3 4.6l.6 10.3h1.2l-1.2-16h-1.7l-2.5 10c-.4 1.7-.8 3.4-1 4.6-.2-1.3-.5-3.1-.9-4.7L10 45H8.3L7.1 61zm16.5-6.6c.1-3.2 1.1-4.5 2.7-4.5s2.4 1 2.4 4.5h-5.1zm3 6.9c1.4 0 2.4-.5 3.2-1.3l-.6-.7c-.6.6-1.3 1.1-2.5 1.1-2 0-3-1.2-3.1-5H30v-.5c0-4.2-1.3-5.9-3.7-5.9-2.5 0-4 2.3-4 6.2s1.5 6.1 4.3 6.1zm9.5 0c.6 0 1.1-.1 1.6-.4l-.3-.9c-.3.1-.7.3-1.1.3-.9 0-1.2-.4-1.2-1.7v-8.5h2.4l.1-.9H35v-3.3l-1 .3c-.1.3-.2 1.7-.2 3h-1.3v.9h1.3v8.8c0 1.6.7 2.4 2.3 2.4zm6.9-.9c-1.3 0-2-.8-2-2.4 0-2.2 1-2.9 3.5-2.9h1v3.7c-.4.9-1.1 1.6-2.5 1.6zm4 .9l.6-.8c-.7-.5-.7-.8-.7-2.2v-6.1c0-2.1-.9-3.3-3-3.3-1.5 0-2.7.6-3.7 1.4l.6.8c.7-.7 1.7-1.2 3-1.2 1.4 0 2 .6 2 2.2v2h-1c-3.2 0-4.8 1.2-4.8 3.8 0 2.1 1.1 3.3 3.2 3.3 1.2 0 2.1-.6 2.7-1.5 0 .9.5 1.4 1.1 1.6zm7.2-1c-1 0-1.8-.5-2.5-1.3v-7.6c.7-.9 1.6-1.5 2.7-1.5 1.7 0 2.5 1.2 2.5 5.3s-1 5.1-2.7 5.1zm.1 1c2 0 3.9-1.5 3.9-6.1 0-4.4-1.4-6.2-3.7-6.2-1.1 0-2.1.7-2.8 1.5v-3.8c0-1.3-.1-2-.2-2.1l-1 .2V61h1c.1-.3.1-.6.1-1 .7.8 1.7 1.3 2.7 1.3zm10.7-1c-1.9 0-2.8-1.4-2.8-5.3 0-3.7.9-5.1 2.8-5.1s2.8 1.4 2.8 5.4c0 3.6-.9 5-2.8 5zm0 1c2.6 0 4.1-2.2 4.1-6.1 0-3.9-1.4-6.2-4-6.2-2.7 0-4.1 2.2-4.1 6.2 0 3.8 1.3 6.1 4 6.1zm8.8-.1c.4 0 .6 0 .8-.2l-.2-.9s-.2.1-.3.1c-.5 0-.6-.2-.6-1.1V46.6c0-1.3-.1-2-.2-2.1l-1 .2v14.8c.1 1.2.6 1.7 1.5 1.7zm5-14.4c.5 0 .8-.3.8-.8s-.4-.8-.8-.8c-.5 0-.8.3-.8.8 0 .4.3.8.8.8zM78.2 61h1.2V49l-1.2.2V61zm8.5.3c1.4 0 2.3-.6 3-1.3l-.6-.8c-.7.7-1.2 1.1-2.3 1.1-2 0-2.9-1.4-2.9-5.3 0-3.6.9-5.1 2.9-5.1.9 0 1.5.4 2.2 1l.6-.8c-.6-.7-1.6-1.2-2.8-1.2-2.8 0-4.2 2.2-4.2 6.2 0 3.9 1.3 6.2 4.1 6.2zm13-9.2v-6h2.4c2.3 0 3.1.7 3.1 2.9s-1.1 3.1-3.1 3.1h-2.4zm0 7.9v-6.8h2.3c2.6 0 3.7 1 3.7 3.5 0 2.4-1.1 3.3-3.7 3.3h-2.3zm4.1-7.5c1.7-.4 2.7-1.9 2.7-3.6 0-2.7-1.5-3.9-4.6-3.9h-3.5v16h3.4c3.5 0 5.2-1.5 5.2-4.4 0-2.2-1.2-3.7-3.2-4.1zm9.2 7.9c-1.3 0-2-.8-2-2.4 0-2.2 1-2.9 3.5-2.9h1v3.7c-.5.9-1.2 1.6-2.5 1.6zm3.9.9l.6-.8c-.7-.5-.7-.8-.7-2.2v-6.1c0-2.1-.9-3.3-3-3.3-1.5 0-2.7.6-3.7 1.4l.6.8c.7-.7 1.7-1.2 3-1.2 1.4 0 2 .6 2 2.2v2h-1c-3.2 0-4.8 1.2-4.8 3.8 0 2.1 1.1 3.3 3.2 3.3 1.2 0 2.1-.6 2.7-1.5 0 .9.5 1.4 1.1 1.6zm5.3-.1c.4 0 .6 0 .8-.2l-.2-.9s-.2.1-.3.1c-.5 0-.6-.2-.6-1.1V46.6c0-1.3-.1-2-.2-2.1l-1 .2v14.8c0 1.2.6 1.7 1.5 1.7zm6.5-.8c-1.3 0-2-.8-2-2.4 0-2.2 1-2.9 3.5-2.9h1v3.7c-.5.9-1.2 1.6-2.5 1.6zm3.9.9l.6-.8c-.7-.5-.7-.8-.7-2.2v-6.1c0-2.1-.9-3.3-3-3.3-1.5 0-2.7.6-3.7 1.4l.6.8c.7-.7 1.7-1.2 3-1.2 1.4 0 2 .6 2 2.2v2h-1c-3.2 0-4.8 1.2-4.8 3.8 0 2.1 1.1 3.3 3.2 3.3 1.2 0 2.1-.6 2.7-1.5 0 .9.5 1.4 1.1 1.6zm3.5-.3h1.2v-9.6c.8-.9 2-1.5 2.9-1.5 1.2 0 1.8.6 1.8 2.3V61h1.2v-9.1c0-1.9-1-3-2.7-3-1.2 0-2.3.6-3.2 1.7 0-.9-.1-1.3-.2-1.6l-.9.2V61h-.1zm14.4.3c1.4 0 2.3-.6 3-1.3l-.6-.8c-.7.7-1.2 1.1-2.3 1.1-2 0-2.9-1.4-2.9-5.3 0-3.6.9-5.1 2.9-5.1.9 0 1.5.4 2.2 1l.6-.8c-.6-.7-1.6-1.2-2.8-1.2-2.8 0-4.2 2.2-4.2 6.2 0 3.9 1.3 6.2 4.1 6.2zm6.3-6.9c.1-3.2 1.1-4.5 2.7-4.5s2.4 1 2.4 4.5h-5.1zm3 6.9c1.4 0 2.4-.5 3.2-1.3l-.6-.7c-.6.6-1.3 1.1-2.5 1.1-2 0-3-1.2-3.1-5h6.4v-.5c0-4.2-1.3-5.9-3.7-5.9-2.5 0-4 2.3-4 6.2s1.5 6.1 4.3 6.1z"/></svg>