<svg id="Layer_1" xmlns="http://www.w3.org/2000/svg" viewBox="165.2 185.9 545.5 368.5"><style>.st0{fill:url(#SVGID_1_)}.st1{fill:#74968e}.st2{fill:#e1f0ea}.st3{fill:url(#SVGID_2_)}.st4{fill:url(#SVGID_3_)}.st5{fill:url(#SVGID_4_)}.st6{fill:url(#SVGID_5_)}.st7{fill:#96241e}.st8{fill:url(#SVGID_6_)}.st9{fill:url(#SVGID_7_)}.st10{fill:#f3a79c}.st11{fill:url(#SVGID_8_)}.st12{fill:#4c6966}.st13{fill:url(#SVGID_9_)}.st14{fill:url(#SVGID_10_)}.st15{fill:url(#SVGID_11_)}.st16{fill:url(#SVGID_12_)}.st17{fill:url(#SVGID_13_)}.st18{fill:url(#SVGID_14_)}.st19{fill:url(#SVGID_15_)}.st20{fill:url(#SVGID_16_)}.st21{fill:url(#SVGID_17_)}.st22{fill:url(#SVGID_18_)}.st23{fill:url(#SVGID_19_)}.st24{fill:url(#SVGID_20_)}.st25{fill:url(#SVGID_21_)}.st26{fill:url(#SVGID_22_)}.st27{fill:#adc5bf}</style><linearGradient id="SVGID_1_" gradientUnits="userSpaceOnUse" x1="177.443" y1="284.16" x2="196.243" y2="284.16" gradientTransform="translate(0 83.89)"><stop offset="0" stop-color="#E1F0EA"/><stop offset="1" stop-color="#ADC5BF"/></linearGradient><path class="st0" d="M191.1 250.9h-8.4l-5.2 21.5 5.3 17.6v191.1c0 2.3 1.9 4.1 4.1 4.1s4.1-1.8 4.1-4.1V290l5.3-17.6-5.2-21.5z"/><path class="st1" d="M191.1 250.9h-2l5.2 21.5L189 290v191.1c0 1.9-1.3 3.5-3.1 4 .3.1.7.1 1 .1 2.3 0 4.1-1.8 4.1-4.1V290l5.3-17.6-5.2-21.5z"/><path class="st2" d="M192.5 257.1L191 251h-8.4l-1.5 6.1h11.4z"/><linearGradient id="SVGID_2_" gradientUnits="userSpaceOnUse" x1="180.464" y1="174.61" x2="193.223" y2="174.61" gradientTransform="translate(0 83.89)"><stop offset="0" stop-color="#E1F0EA"/><stop offset="1" stop-color="#74968E"/></linearGradient><path class="st3" d="M192.5 257.1h-11.4l-.7 2.8h12.8l-.7-2.8z"/><linearGradient id="SVGID_3_" gradientUnits="userSpaceOnUse" x1="181.967" y1="204.86" x2="191.719" y2="204.86" gradientTransform="translate(0 83.89)"><stop offset="0" stop-color="#E1F0EA"/><stop offset="1" stop-color="#74968E"/></linearGradient><path class="st4" d="M182 287.5l.7 2.5h8.3l.7-2.5H182z"/><linearGradient id="SVGID_4_" gradientUnits="userSpaceOnUse" x1="165.247" y1="384.46" x2="208.447" y2="384.46" gradientTransform="translate(0 83.89)"><stop offset="0" stop-color="#EB6C60"/><stop offset="1" stop-color="#C43934"/></linearGradient><path class="st5" d="M208.4 417.7l-4.2-15.3h-34.8l-4.2 15.3c4.7 1.6 8.1 6 8.1 11.2s-3.4 9.7-8.1 11.2v83.7c0 4 3.2 9.7 7.2 9.7 0 0 9.4.8 14.4.8l14.4-.8c4 0 7.2-5.7 7.2-9.7v-83.7c-4.7-1.6-8.1-6-8.1-11.2s3.4-9.7 8.1-11.2z"/><linearGradient id="SVGID_5_" gradientUnits="userSpaceOnUse" x1="168.768" y1="326.163" x2="208.468" y2="326.163" gradientTransform="translate(0 83.89)"><stop offset="0" stop-color="#F3A79C"/><stop offset="1" stop-color="#C43934"/></linearGradient><path class="st6" d="M201.7 404.9s5.7 13.1 6.7 12.8l-4.2-15.3h-34.8l-.7 2.5h33z"/><path class="st7" d="M200.3 428.9c0-2.6.9-5 2.3-7-2.9 2.2-4.8 5.6-4.8 9.5 0 5.2 3.4 9.7 8.1 11.2v83.7c0 2-.8 4.5-2.1 6.4 2.7-1.7 4.7-5.8 4.7-8.9v-83.7c-4.8-1.5-8.2-6-8.2-11.2z"/><linearGradient id="SVGID_6_" gradientUnits="userSpaceOnUse" x1="191.061" y1="399.81" x2="201.425" y2="399.81" gradientTransform="translate(0 83.89)"><stop offset="0" stop-color="#EB6C60"/><stop offset="1" stop-color="#96241E"/></linearGradient><path class="st8" d="M196.2 442.2c-2.9 0-5.2 2.3-5.2 5.2V520c0 2.9 2.3 5.2 5.2 5.2s5.2-2.3 5.2-5.2v-72.6c0-2.9-2.3-5.2-5.2-5.2z"/><path class="st7" d="M197.9 523.5c-2.9 0-5.2-2.3-5.2-5.2v-72.6c0-1 .3-1.9.8-2.7-1.5.9-2.5 2.5-2.5 4.4V520c0 2.9 2.3 5.2 5.2 5.2 1.9 0 3.5-1 4.4-2.5-.7.5-1.7.8-2.7.8z"/><linearGradient id="SVGID_7_" gradientUnits="userSpaceOnUse" x1="172.262" y1="399.81" x2="182.625" y2="399.81" gradientTransform="translate(0 83.89)"><stop offset="0" stop-color="#EB6C60"/><stop offset="1" stop-color="#96241E"/></linearGradient><path class="st9" d="M177.4 442.2c-2.9 0-5.2 2.3-5.2 5.2V520c0 2.9 2.3 5.2 5.2 5.2s5.2-2.3 5.2-5.2v-72.6c0-2.9-2.3-5.2-5.2-5.2z"/><path class="st7" d="M179.1 523.5c-2.9 0-5.2-2.3-5.2-5.2v-72.6c0-1 .3-1.9.8-2.7-1.5.9-2.5 2.5-2.5 4.4V520c0 2.9 2.3 5.2 5.2 5.2 1.9 0 3.5-1 4.4-2.5-.7.5-1.7.8-2.7.8z"/><path class="st10" d="M166.9 524.7V441c4.7-1.6 8.1-6 8.1-11.2 0-5-3.1-9.2-7.4-11 3.4 2.1 5.7 5.8 5.7 10.1 0 5.2-3.4 9.7-8.1 11.2v83.7c0 3.6 2.6 8.5 6 9.5-2.5-1.8-4.3-5.7-4.3-8.6z"/><linearGradient id="SVGID_8_" gradientUnits="userSpaceOnUse" x1="223.3" y1="308.76" x2="278.8" y2="308.76" gradientTransform="translate(0 83.89)"><stop offset="0" stop-color="#E1F0EA"/><stop offset="1" stop-color="#ADC5BF"/></linearGradient><path class="st11" d="M225.7 495.3l53.1 8.6c-10.9-16.5-14-20-14-23.4V304.8c0-2.5 1.1-4.1 11.6-14.8l-53.1-8.6c10.9 16.5 14 20 14 23.4v175.7c0 2.5-1.1 4.2-11.6 14.8z"/><path class="st12" d="M274.2 290c-10.5 10.6-11.6 12.3-11.6 14.8v175.7c0 3.4 3.1 6.9 13.8 23l2.5.4c-10.9-16.5-14-20-14-23.4V304.8c0-2.5 1.1-4.1 11.6-14.8l-53.1-8.6.3.4 50.5 8.2z"/><linearGradient id="SVGID_9_" gradientUnits="userSpaceOnUse" x1="244.969" y1="308.71" x2="257.135" y2="308.71" gradientTransform="translate(0 83.89)"><stop offset="0" stop-color="#E1F0EA"/><stop offset="1" stop-color="#74968E"/></linearGradient><path class="st13" d="M251.1 309.9c-3.4 0-6.1 2.7-6.1 6.1v153.4c.1 3.3 2.8 5.9 6.1 5.9s6-2.6 6.1-5.9V316c-.1-3.4-2.8-6.1-6.1-6.1z"/><path class="st12" d="M253.3 474.2c-3.3 0-6-2.6-6.1-5.9V314.9c0-1.9.9-3.6 2.3-4.8-2.6.7-4.5 3.1-4.5 5.9v153.4c.1 3.3 2.8 5.9 6.1 5.9 1.4 0 2.7-.5 3.8-1.3-.6.1-1.1.2-1.6.2z"/><linearGradient id="SVGID_10_" gradientUnits="userSpaceOnUse" x1="221.019" y1="190.187" x2="280.312" y2="190.187" gradientTransform="translate(0 83.89)"><stop offset="0" stop-color="#E1F0EA"/><stop offset="1" stop-color="#ADC5BF"/></linearGradient><path class="st14" d="M267.4 256.1l-4.7 20.8c-3.1.3-7.1.1-11.9-1-4.7-1.1-8.5-2.6-11.1-4.2l4.7-20.8c-37.3 13.2-24.9 39.1 1.9 45.2 26.7 6 49.1-12 21.1-40z"/><path class="st12" d="M267.4 256.1c24.6 26.7 2.6 43.6-23.4 37.7-7.3-1.7-13.6-4.8-18.1-8.8 4.5 5 11.6 9.1 20.3 11 26.8 6.1 49.2-11.9 21.2-39.9zm-25.5-4.3l-4.5 19.9c2.7 1.6 6.4 3.1 11.1 4.2 4 .9 7.5 1.2 10.3 1.1-2.4-.1-5.1-.4-8.1-1.1-4.7-1.1-8.5-2.6-11.1-4.2l4.7-20.8-2.4.9z"/><linearGradient id="SVGID_11_" gradientUnits="userSpaceOnUse" x1="221.788" y1="427.333" x2="281.081" y2="427.333" gradientTransform="translate(0 83.89)"><stop offset="0" stop-color="#E1F0EA"/><stop offset="1" stop-color="#ADC5BF"/></linearGradient><path class="st15" d="M234.7 529.2l4.7-20.8c3.1-.3 7.1-.1 11.9 1 4.7 1.1 8.5 2.6 11.1 4.2l-4.7 20.8c37.3-13.2 24.9-39.1-1.9-45.2-26.7-6-49.1 12-21.1 40z"/><path class="st12" d="M255.9 489.2c-8.5-1.9-16.6-1.4-22.7 1.1 5.6-1.5 12.3-1.6 19.4 0 25.9 5.9 38.4 30.4 5.3 43.9v.2c37.2-13.2 24.7-39.1-2-45.2zm-6.8 19.1c-4.7-1.1-8.8-1.3-11.9-1l-4.5 19.8c.6.7 1.3 1.4 2 2.1l4.7-20.8c3.1-.3 7.1-.1 11.9 1 3.2.7 6 1.7 8.3 2.7-2.6-1.4-6.1-2.8-10.5-3.8z"/><linearGradient id="SVGID_12_" gradientUnits="userSpaceOnUse" x1="623.529" y1="243.81" x2="650.529" y2="243.81" gradientTransform="translate(0 83.89)"><stop offset="0" stop-color="#ADC5BF"/><stop offset="1" stop-color="#74968E"/></linearGradient><path class="st16" d="M623.5 307.6h27v40.2h-27v-40.2z"/><linearGradient id="SVGID_13_" gradientUnits="userSpaceOnUse" x1="611.4" y1="195.91" x2="662.68" y2="195.91" gradientTransform="translate(0 83.89)"><stop offset="0" stop-color="#ADC5BF"/><stop offset="1" stop-color="#74968E"/></linearGradient><path class="st17" d="M637 251.9c13 0 25.6 2.3 25.6 2.3v35.1l-12.1 18.4h-27l-12.1-18.4v-35.1c0-.1 12.7-2.3 25.6-2.3z"/><linearGradient id="SVGID_14_" gradientUnits="userSpaceOnUse" x1="599" y1="205.31" x2="599" y2="170.21" gradientTransform="translate(0 83.89)"><stop offset="0" stop-color="#74968E"/><stop offset="1" stop-color="#E1F0EA"/></linearGradient><path class="st18" d="M586.6 289.2s5.8-3.4 12.4-3.4c6.6 0 12.4 3.4 12.4 3.4v-35.1s-5 3.4-12.4 3.4l-12.4-3.4v35.1z"/><linearGradient id="SVGID_15_" gradientUnits="userSpaceOnUse" x1="576.4" y1="208.51" x2="576.4" y2="167.01" gradientTransform="translate(0 83.89)"><stop offset="0" stop-color="#74968E"/><stop offset="1" stop-color="#E1F0EA"/></linearGradient><path class="st19" d="M586.6 289.2c0 1.8-1.4 3.2-3.2 3.2h-14c-1.8 0-3.2-1.4-3.2-3.2v-35.1c0-1.8 1.4-3.2 3.2-3.2h14c1.8 0 3.2 1.4 3.2 3.2v35.1z"/><linearGradient id="SVGID_16_" gradientUnits="userSpaceOnUse" x1="662.7" y1="196.96" x2="710.7" y2="196.96" gradientTransform="translate(0 83.89)"><stop offset="0" stop-color="#ADC5BF"/><stop offset="1" stop-color="#74968E"/></linearGradient><path class="st20" d="M662.7 289.2s26.1-3.1 42.1 18.4h5.9c-7.2-45.2-48-53.5-48-53.5v35.1z"/><path class="st2" d="M610.3 254.8v33.8c.7.4 1.1.6 1.1.6v-35.1s-.4.3-1.1.7zm-41.8 34.4v-35.1c0-1.8 1.4-3.2 3.2-3.2h-2.3c-1.8 0-3.2 1.4-3.2 3.2v35.1c0 1.8 1.4 3.2 3.2 3.2h2.3c-1.8 0-3.2-1.4-3.2-3.2zm55 18.4h1.1v40.2h-1.1v-40.2z"/><path class="st12" d="M588.9 255.4c-1.5-.7-2.3-1.2-2.3-1.2v35.1s.9-.5 2.3-1.1v-32.8z"/><linearGradient id="SVGID_17_" gradientUnits="userSpaceOnUse" x1="622.8" y1="215.96" x2="662.7" y2="215.96" gradientTransform="translate(0 83.89)"><stop offset="0" stop-color="#E1F0EA"/><stop offset=".162" stop-color="#B7CAC4"/><stop offset=".337" stop-color="#90A7A3"/><stop offset=".51" stop-color="#738C88"/><stop offset=".68" stop-color="#5D7975"/><stop offset=".846" stop-color="#506D6A"/><stop offset="1" stop-color="#4C6966"/></linearGradient><path class="st21" d="M637 251.9h-1.1c12.6.1 24.5 2.3 24.5 2.3v35.1L649 306.5h-26.2l.7 1.1h24.8v40.2h2.3v-40.2l12.1-18.4v-35.1s-12.7-2.2-25.7-2.2z"/><path class="st12" d="M662.7 254.1v.6c8.6 2.5 39.5 14.1 45.7 52.9h2.3c-7.2-45.2-48-53.5-48-53.5z"/><linearGradient id="SVGID_18_" gradientUnits="userSpaceOnUse" x1="615.8" y1="357.26" x2="661.5" y2="357.26" gradientTransform="translate(0 83.89)"><stop offset="0" stop-color="#EB6C60"/><stop offset=".11" stop-color="#DA5E53"/><stop offset=".342" stop-color="#BD453C"/><stop offset=".57" stop-color="#A7332B"/><stop offset=".792" stop-color="#9A2821"/><stop offset="1" stop-color="#96241E"/></linearGradient><path class="st22" d="M623.5 347.9c-3.3 0-5.5 5.5-5.5 38.6s3.4 39.1 3.4 68.9c0 16-5.6 32.7-5.6 53.3 0 25.7 0 25.7 21.2 25.7 24.5 0 24.5-1 24.5-22.3s-6-45.1-6-56.7 2.2-36.9 2.2-68.4-1.7-39.1-7.2-39.1h-27z"/><path class="st10" d="M618.1 509.8c0-20.6 5.6-37.3 5.6-53.3 0-29.8-3.4-35.8-3.4-68.9s2.2-38.6 5.5-38.6h27c.3 0 .5 0 .7.1-.8-.8-1.8-1.2-3-1.2h-27c-3.3 0-5.5 5.5-5.5 38.6s3.4 39.1 3.4 68.9c0 16-5.6 32.7-5.6 53.3 0 16.9 0 22.7 6 24.7-3.7-2.8-3.7-9.1-3.7-23.6z"/><linearGradient id="SVGID_19_" gradientUnits="userSpaceOnUse" x1="422.3" y1="121.61" x2="461.428" y2="121.61" gradientTransform="translate(0 83.89)"><stop offset="0" stop-color="#4C6966"/><stop offset="1" stop-color="#ADC5BF"/></linearGradient><path class="st23" d="M441.9 185.9c-10.8 0-19.6 8.8-19.6 19.6s8.8 19.6 19.6 19.6 19.6-8.8 19.6-19.6c-.1-10.9-8.8-19.6-19.6-19.6zm0 35.4c-8.8 0-15.9-7.1-15.9-15.9s7.1-15.9 15.9-15.9 15.9 7.1 15.9 15.9-7.2 15.9-15.9 15.9z"/><path class="st12" d="M445.9 212.7c0-1.3-1.1-2.3-2.3-2.3h-3.2c-1.3 0-2.3 1.1-2.3 2.3v26.2c0 1.3 1.1 2.3 2.3 2.3h3.2c1.3 0 2.3-1.1 2.3-2.3v-26.2z"/><linearGradient id="SVGID_20_" gradientUnits="userSpaceOnUse" x1="419.7" y1="156.51" x2="464.1" y2="156.51" gradientTransform="translate(0 83.89)"><stop offset="0" stop-color="#4C6966"/><stop offset="1" stop-color="#ADC5BF"/></linearGradient><path class="st24" d="M464.1 233.2c0-5.6-14.6-5.6-22.1-5.6-7.6 0-22.3 0-22.3 5.6v20h44.4v-20z"/><path class="st12" d="M440.4 227.7v25.6h3.1v-25.6h-3.1zm5.5 25.6h3.1v-25.5c-1.1 0-2.1-.1-3.1-.1v25.6zm5.6 0h3.1v-25.1l-3.1-.3v25.4zm5.5 0h3.1v-24c-.9-.3-2-.6-3.1-.8v24.8zm5.5-22.8v22.8h1.6v-20.1c0-1.1-.6-2-1.6-2.7zm-27.6 22.8h3.1v-25.6c-1 0-2 0-3.1.1v25.5zm-5.5 0h3.1v-25.4l-3.1.3v25.1zm-5.5 0h3.1v-24.8c-1.1.2-2.2.5-3.1.8v24zm-2.5-22.9c-1.1.7-1.8 1.7-1.8 2.8v20h1.8v-22.8zm-66.1 22.2l8-3.9 11.4 16.8-8 3.9-11.4-16.8z"/><linearGradient id="SVGID_21_" gradientUnits="userSpaceOnUse" x1="247.147" y1="-215.508" x2="278.483" y2="-215.508" gradientTransform="rotate(-30 374.864 53.783)"><stop offset="0" stop-color="#4C6966"/><stop offset="1" stop-color="#ADC5BF"/></linearGradient><path class="st25" d="M345.7 258.2c2 3 11.3-1.6 16.1-3.9 4.7-2.3 13.9-6.8 11.9-9.8l-2-3c-2-3-11.2 1.5-15.9 3.8-4.8 2.3-14 6.9-12 9.9l1.9 3z"/><path class="st12" d="M354.7 245.8l6.1 8.9 1-.5 1-.5-6.1-8.9h-.1l-.9.4-1 .6zm13 5.4l1.9-1.1-5.7-8.4c-.7.2-1.4.5-2.1.8l5.9 8.7zm3.6-10c-.2-.2-.3-.2-.5-.3-.3-.2-.7-.2-1.2-.3l4 5.9c.4-.7.4-1.3 0-1.9l-2-3c-.1-.2-.2-.3-.3-.4zm-17.6 16.7c.7-.2 1.4-.5 2.1-.8l-5.9-8.7c-.6.4-1.3.7-1.8 1.1l5.6 8.4zm-5.8 1.3l-4.1-6c-.2.4-.3.7-.4 1v.7c0 .2.1.3.2.4l2 3c.5.5 1.3.8 2.3.9zm172.6-10.5l8 3.9-11.5 16.8-8-3.9 11.5-16.8z"/><linearGradient id="SVGID_22_" gradientUnits="userSpaceOnUse" x1="572.673" y1="-178.621" x2="604.093" y2="-178.621" gradientTransform="rotate(30 423.768 96.067)"><stop offset="0" stop-color="#4C6966"/><stop offset="1" stop-color="#ADC5BF"/></linearGradient><path class="st26" d="M510 244.5c-2 3 7.3 7.5 12 9.9 4.7 2.3 14 6.8 16 3.8l2-3c2-3-7.2-7.5-11.9-9.8-4.8-2.3-14.1-6.9-16.1-3.9l-2 3z"/><path class="st12" d="M527.2 244.9l-6.1 8.9 1 .5 1 .5 6.1-8.9h-.1l-.9-.4-1-.6zm.9 12.2c.7.3 1.4.6 2.1.8l5.7-8.4c-.6-.4-1.2-.8-1.9-1.1l-5.9 8.7zm12.2-2.3c.1-.2.1-.4.1-.5 0-.3-.1-.6-.3-1l-4 5.9c.9-.1 1.6-.4 2-1l2-3c.1-.2.1-.3.2-.4zm-26-4.6c.6.4 1.2.7 1.9 1.1l5.9-8.7c-.7-.3-1.4-.6-2.1-.8l-5.7 8.4zm-4.2-3.7l4.1-6c-.5 0-.9.1-1.2.3h-.1c-.2.1-.3.2-.4.3l-.1.1c-.1.1-.3.2-.4.4l-2 3c-.4.5-.4 1.2.1 1.9z"/><circle class="st12" cx="442" cy="397.9" r="156.5"/><circle class="st27" cx="442" cy="397.9" r="149.4"/><circle class="st2" cx="442" cy="397.9" r="135.8"/><circle class="st1" cx="441.9" cy="274.7" r="6.2"/><circle class="st1" cx="503.6" cy="291.2" r="6.2"/><circle class="st1" cx="548.7" cy="336.3" r="6.2"/><circle class="st1" cx="565.2" cy="397.9" r="6.2"/><circle class="st1" cx="548.7" cy="459.5" r="6.2"/><circle class="st1" cx="503.6" cy="504.6" r="6.2"/><circle class="st1" cx="442" cy="521.1" r="6.2"/><circle class="st1" cx="380.4" cy="504.6" r="6.2"/><circle class="st1" cx="335.3" cy="459.5" r="6.2"/><circle class="st1" cx="380.4" cy="291.2" r="6.2"/><circle class="st1" cx="335.2" cy="336.3" r="6.2"/><circle class="st1" cx="318.8" cy="397.9" r="6.2"/><circle class="st27" cx="429.1" cy="275.3" r="2.9"/><circle class="st27" cx="416.4" cy="277.3" r="2.9"/><circle class="st27" cx="403.9" cy="280.7" r="2.9"/><circle class="st27" cx="391.9" cy="285.3" r="2.9"/><circle class="st27" cx="369.2" cy="298.3" r="2.9"/><circle class="st27" cx="359.2" cy="306.4" r="2.9"/><circle class="st27" cx="350.1" cy="315.6" r="2.9"/><circle class="st27" cx="342" cy="325.6" r="2.9"/><circle class="st27" cx="329.1" cy="348.3" r="2.9"/><circle class="st27" cx="324.5" cy="360.3" r="2.9"/><circle class="st27" cx="321.1" cy="372.8" r="2.9"/><circle class="st27" cx="319.1" cy="385.5" r="2.9"/><circle class="st27" cx="319.5" cy="411.4" r="2.9"/><circle class="st27" cx="321.5" cy="424.1" r="2.9"/><path class="st27" d="M324.5 433.7c1.6-.2 3.1 1 3.2 2.6.2 1.6-1 3.1-2.6 3.2-1.6.2-3.1-1-3.2-2.6-.2-1.6 1-3.1 2.6-3.2z"/><circle class="st27" cx="329.4" cy="448.6" r="2.9"/><path class="st27" d="M340.9 468.5c1.3-1 3.1-.7 4.1.6 1 1.3.7 3.1-.6 4.1-1.3 1-3.1.7-4.1-.6-1-1.3-.7-3.2.6-4.1zm8.1 10c1.3-1 3.1-.7 4.1.6 1 1.3.7 3.1-.6 4.1-1.3 1-3.1.7-4.1-.6s-.7-3.2.6-4.1zm9.1 9.1c1.3-1 3.1-.7 4.1.6 1 1.3.7 3.1-.6 4.1-1.3 1-3.1.7-4.1-.7-1-1.2-.7-3 .6-4zm10 8.1c1.3-1 3.1-.7 4.1.6 1 1.3.7 3.1-.6 4.1-1.3 1-3.1.7-4.1-.6-1-1.3-.7-3.1.6-4.1zm21.6 13.9c.7-1.5 2.4-2.1 3.9-1.5 1.5.7 2.1 2.4 1.5 3.9-.7 1.5-2.4 2.1-3.9 1.5-1.5-.7-2.1-2.5-1.5-3.9zm12.1 4.6c.7-1.5 2.4-2.1 3.9-1.5 1.5.7 2.1 2.4 1.5 3.9-.7 1.5-2.4 2.1-3.9 1.5-1.5-.7-2.2-2.5-1.5-3.9zm12.4 3.3c.7-1.5 2.4-2.1 3.9-1.5 1.5.7 2.1 2.4 1.5 3.9-.7 1.5-2.4 2.1-3.9 1.5-1.5-.7-2.1-2.4-1.5-3.9zm12.8 2c.7-1.5 2.4-2.1 3.9-1.5 1.5.7 2.1 2.4 1.5 3.9-.7 1.5-2.4 2.1-3.9 1.5-1.5-.7-2.2-2.4-1.5-3.9zm25.6 1.2c-.2-1.6 1-3.1 2.6-3.2 1.6-.2 3.1 1 3.2 2.6.2 1.6-1 3.1-2.6 3.2-1.6.2-3.1-1-3.2-2.6z"/><circle class="st27" cx="468.2" cy="518.4" r="2.9"/><path class="st27" d="M477.8 515.3c-.2-1.6 1-3.1 2.6-3.2 1.6-.2 3.1 1 3.2 2.6.2 1.6-1 3.1-2.6 3.2-1.6.2-3.1-1-3.2-2.6z"/><circle class="st27" cx="492.7" cy="510.4" r="2.9"/><circle class="st27" cx="514.9" cy="497.2" r="2.9"/><circle class="st27" cx="524.9" cy="489.1" r="2.9"/><path class="st27" d="M531.7 481.7c-1-1.3-.7-3.1.6-4.1s3.1-.7 4.1.6c1 1.3.7 3.1-.7 4.1-1.2 1-3.1.7-4-.6z"/><circle class="st27" cx="542.2" cy="470" r="2.9"/><path class="st27" d="M553.6 450.1c-1.5-.7-2.1-2.4-1.5-3.9.7-1.5 2.4-2.1 3.9-1.5 1.5.7 2.1 2.4 1.5 3.9s-2.4 2.2-3.9 1.5zm4.6-12c-1.5-.7-2.1-2.4-1.5-3.9.7-1.5 2.4-2.1 3.9-1.5 1.5.7 2.1 2.4 1.5 3.9s-2.4 2.1-3.9 1.5zm3.4-12.5c-1.5-.7-2.1-2.4-1.5-3.9.7-1.5 2.4-2.1 3.9-1.5s2.1 2.4 1.5 3.9c-.7 1.5-2.4 2.2-3.9 1.5zm2-12.7c-1.5-.7-2.1-2.4-1.5-3.9.7-1.5 2.4-2.1 3.9-1.5 1.5.7 2.1 2.4 1.5 3.9-.7 1.5-2.4 2.1-3.9 1.5zm1.2-25.6c-1.6.2-3.1-1-3.2-2.6-.2-1.6 1-3.1 2.6-3.2 1.6-.2 3.1 1 3.2 2.6.2 1.6-1 3-2.6 3.2zm-2-12.7c-1.6.2-3.1-1-3.2-2.6-.2-1.6 1-3.1 2.6-3.2 1.6-.2 3.1 1 3.2 2.6.2 1.6-1 3-2.6 3.2zm-3.4-12.5c-1.6.2-3.1-1-3.2-2.6-.2-1.6 1-3.1 2.6-3.2 1.6-.2 3.1 1 3.2 2.6.2 1.6-1 3-2.6 3.2zm-4.6-12c-1.6.2-3.1-1-3.2-2.6-.2-1.6 1-3.1 2.6-3.2 1.6-.2 3.1 1 3.2 2.6.2 1.5-1 3-2.6 3.2zm-11.7-22.8c-1.3 1-3.1.7-4.1-.6-.9-1.3-.7-3.1.7-4.1 1.3-1 3.1-.7 4.1.6.9 1.3.6 3.1-.7 4.1zm-8.1-10c-1.3 1-3.1.7-4.1-.6-1-1.3-.7-3.1.6-4.1s3.1-.7 4.1.6c1 1.3.7 3.1-.6 4.1z"/><circle class="st27" cx="524.1" cy="305.8" r="2.9"/><circle class="st27" cx="514.1" cy="297.7" r="2.9"/><path class="st27" d="M494.2 286.2c-.7 1.5-2.4 2.1-3.9 1.5-1.5-.7-2.1-2.4-1.5-3.9.7-1.5 2.4-2.1 3.9-1.5 1.5.7 2.2 2.4 1.5 3.9zm-12-4.6c-.7 1.5-2.4 2.1-3.9 1.5-1.5-.7-2.1-2.4-1.5-3.9.7-1.5 2.4-2.1 3.9-1.5 1.5.7 2.2 2.4 1.5 3.9z"/><circle class="st27" cx="467" cy="277.1" r="2.9"/><circle class="st27" cx="454.3" cy="275" r="2.9"/><path class="st1" d="M389.7 411c0 1.6-1.3 2.9-2.9 2.9s-2.9-1.3-2.9-2.9 1.3-2.9 2.9-2.9 2.9 1.3 2.9 2.9z"/><circle class="st1" cx="396.1" cy="413.5" r="2.9"/><path class="st1" d="M405.8 420.3c0 1.6-1.3 2.9-2.9 2.9s-2.9-1.3-2.9-2.9 1.3-2.9 2.9-2.9 2.9 1.3 2.9 2.9z"/><circle class="st1" cx="405.4" cy="429.6" r="2.9"/><path class="st1" d="M405.8 438.9c0 1.6-1.3 2.9-2.9 2.9s-2.9-1.3-2.9-2.9 1.3-2.9 2.9-2.9 2.9 1.3 2.9 2.9zm-6.8 6.9c0 1.6-1.3 2.9-2.9 2.9s-2.9-1.3-2.9-2.9 1.3-2.9 2.9-2.9c1.6-.1 2.9 1.2 2.9 2.9zm-9.3 2.5c0 1.6-1.3 2.9-2.9 2.9s-2.9-1.3-2.9-2.9 1.3-2.9 2.9-2.9c1.6-.1 2.9 1.2 2.9 2.9zm-9.3-2.5c0 1.6-1.3 2.9-2.9 2.9s-2.9-1.3-2.9-2.9 1.3-2.9 2.9-2.9c1.6-.1 2.9 1.2 2.9 2.9z"/><circle class="st1" cx="370.6" cy="438.9" r="2.9"/><path class="st1" d="M380.4 413.5c0 1.6-1.3 2.9-2.9 2.9s-2.9-1.3-2.9-2.9 1.3-2.9 2.9-2.9 2.9 1.3 2.9 2.9zm-6.8 6.8c0 1.6-1.3 2.9-2.9 2.9s-2.9-1.3-2.9-2.9 1.3-2.9 2.9-2.9c1.5 0 2.9 1.3 2.9 2.9z"/><circle class="st1" cx="368.1" cy="429.6" r="2.9"/><path class="st1" d="M382 419.5h3.9v15.6H382v-15.6z"/><path class="st12" d="M383.4 418.1h3.9v15.6h-3.9v-15.6z"/><path class="st1" d="M500.1 411c0 1.6-1.3 2.9-2.9 2.9s-2.9-1.3-2.9-2.9 1.3-2.9 2.9-2.9 2.9 1.3 2.9 2.9z"/><circle class="st1" cx="506.5" cy="413.5" r="2.9"/><path class="st1" d="M516.3 420.3c0 1.6-1.3 2.9-2.9 2.9-1.6 0-2.9-1.3-2.9-2.9s1.3-2.9 2.9-2.9c1.5 0 2.9 1.3 2.9 2.9z"/><circle class="st1" cx="515.8" cy="429.6" r="2.9"/><path class="st1" d="M516.3 438.9c0 1.6-1.3 2.9-2.9 2.9-1.6 0-2.9-1.3-2.9-2.9s1.3-2.9 2.9-2.9c1.5 0 2.9 1.3 2.9 2.9zm-6.9 6.9c0 1.6-1.3 2.9-2.9 2.9s-2.9-1.3-2.9-2.9 1.3-2.9 2.9-2.9c1.6-.1 2.9 1.2 2.9 2.9zm-9.3 2.5c0 1.6-1.3 2.9-2.9 2.9s-2.9-1.3-2.9-2.9 1.3-2.9 2.9-2.9c1.6-.1 2.9 1.2 2.9 2.9zm-9.3-2.5c0 1.6-1.3 2.9-2.9 2.9s-2.9-1.3-2.9-2.9 1.3-2.9 2.9-2.9c1.6-.1 2.9 1.2 2.9 2.9zm-6.8-6.9c0 1.6-1.3 2.9-2.9 2.9s-2.9-1.3-2.9-2.9 1.3-2.9 2.9-2.9 2.9 1.3 2.9 2.9zm6.8-25.4c0 1.6-1.3 2.9-2.9 2.9s-2.9-1.3-2.9-2.9 1.3-2.9 2.9-2.9 2.9 1.3 2.9 2.9zm-6.8 6.8c0 1.6-1.3 2.9-2.9 2.9s-2.9-1.3-2.9-2.9 1.3-2.9 2.9-2.9 2.9 1.3 2.9 2.9z"/><circle class="st1" cx="478.6" cy="429.6" r="2.9"/><path class="st1" d="M493.9 418.1h3.9v15.6h-3.9v-15.6z"/><path class="st12" d="M495.2 416.7h3.9v15.6h-3.9v-15.6z"/><path class="st1" d="M451.8 400.6c0-4.7-2.6-8.8-6.4-10.9v-89.6l-6.1-9.6-6.1 9.6v89.6c-3.8 2.1-6.4 6.2-6.4 10.9s2.6 8.8 6.4 10.9v8.3h12.3v-8.3c3.7-2.1 6.3-6.2 6.3-10.9z"/><path class="st12" d="M448.1 297.4l-6.1-9.6-6.1 9.6v119.8h12.3l-.1-119.8z"/><circle class="st27" cx="442" cy="397.9" r="12.5"/><circle class="st2" cx="442" cy="397.9" r="3.9"/><path class="st1" d="M442 262.1c-37.8 0-72.1 15.5-96.7 40.5 24.5-24.2 58.2-39.1 95.3-39.1 75 0 135.8 60.8 135.8 135.8 0 37.1-14.9 70.8-39.1 95.3 25-24.6 40.5-58.8 40.5-96.7-.1-75-60.8-135.8-135.8-135.8z"/></svg>