<svg xmlns="http://www.w3.org/2000/svg" viewBox="0 0 126.564 125.56"><path d="M35.069 86.341v7.739h8.944v-7.739h2.418v18.494h-2.418v-8.668h-8.944v8.668h-2.415V86.341zm39.353 2.034h-5.626v-2.034h13.692v2.034h-5.651v16.46h-2.415zm10.392 15.062l10.262-15.01v-.08h-9.383v-2.006h12.485v1.457l-10.205 14.955v.08h10.343v2.002H84.814zm17.323-17.096h2.417v16.492h7.899v2.002h-10.316zm14.001 0v18.494h10.426v-2.002h-8.01v-6.666h7.16v-1.974h-7.16v-5.846h7.6v-2.006zM30.64 115.626v.645h3.183v9.154h.691v-9.154h3.183v-.645zm9.737 0v9.799h5.356v-.631h-4.671v-4.199h4.41v-.631h-4.41v-3.709h4.671v-.629zm43.853 0v4.352h-5.724v-4.352h-.684v9.799h.684v-4.816h5.724v4.816h.69v-9.799zm14.354 0v.645h3.184v9.154h.69v-9.154h3.185v-.645zm9.424 0v.645h5.476l-5.738 8.645v.509h6.811v-.642h-5.907l5.752-8.647v-.51z"/><path fill="#B5123E" d="M84.814 35.306c-1.365 10.802-8.904 19.431-18.9 23.169-.258-1.733-.502-4.42.111-6.033 2.205-5.812 2.571-11.929 1.849-15.98-.112-.63-.294-1.35-.509-2.094 1.726-3.431 3.896-7.739 4.271-8.438.638-1.189.974-.395 3.179-3.481 1.262-1.768 1.149-3.279 2.762-5.953.791-.137 1.565-.023 2.382-.563 3.855 5.539 5.746 12.324 4.855 19.373M57.984 2.927c7.149.874 13.428 3.997 18.135 8.514-3.389 2.771-8.545 7.101-16.432 13.931 0 0 9.645-6.877 16.807-12.26l-.479 1.373c-.378.349-.799.771-1.273 1.285-2.834 3.082-5.512 3.726-6.254 7.252-1 1.213-2.733 3.051-4.463 4.827-1.385.479-3.614 1.905-5.672 4.607l-.982-1.86a173.822 173.822 0 0 0 3.045-2.208c.451-.334.569-.773.271-1.139-1.174-1.442-4.223-5.012-8.067-4.961-4.817.062-7.516 4.592-5.119 8.284 1.036 1.597 3.122 2.436 5.011 2.375l.187.239c.357.553.542.995.904 1.914l-.427.248c-1.586.139-3.473.65-4.18 1.214a6.655 6.655 0 0 0-1.098 1.102c-2.02.588-4.652 1.463-7.37 2.669.471-.747 2.328-3.134 3.358-4.445.614.44 1.522.62 2.459.417 1.508-.328 3.732-1.523 3.474-2.668-.257-1.146-2.899-1.81-4.406-1.481a3.513 3.513 0 0 0-1.024.394l-.199.064c-1.4.512-5.318 3.62-7.429 6.608-1.262 1.785-1.567 3.681-1.168 4.528.868 1.849 10.123 1.271 16.096-.424.305.531.588 1.078.816 1.624 1.178 2.829 5.466 5.72 3.482 7.562-2.774 2.577-4.313 6.165-4.901 7.769l-.053-.006a23.567 23.567 0 0 0-.508 1.591c.54.096 1.087.176 1.638.244 17.087 2.087 32.66-9.843 34.785-26.648 1.008-7.986-1.203-15.636-5.635-21.689-.054-1.062-.791-2.437-1.334-3.315 1.623-1.263 2.901-2.302 3.578-2.943.799-.757 1.018 1.715 1.018 1.715L91.265 0 80.779 5.266s2.557.521 1.912 1.058c-.303.252-1.132.732-4.709 3.605-4.729-4.629-10.998-7.808-18.13-8.68A31.443 31.443 0 0 0 35.3 8.758C41.478 4.2 49.533 1.894 57.984 2.927"/><path d="M.63 101.927c1.07.66 2.607 1.18 4.254 1.18 2.442 0 3.87-1.26 3.87-3.129 0-1.725-.988-2.744-3.486-3.672C2.25 95.259.384 93.669.384 91.091c0-2.883 2.386-5.023 5.981-5.023 1.865 0 3.264.439 4.06.881l-.657 1.975c-.577-.357-1.81-.879-3.486-.879-2.524 0-3.485 1.51-3.485 2.77 0 1.703 1.126 2.553 3.678 3.543 3.127 1.234 4.691 2.713 4.691 5.43 0 2.828-2.084 5.326-6.447 5.326-1.783 0-3.732-.551-4.719-1.211l.63-1.976zm28.132 2.305c-.849.438-2.634.881-4.884.881-5.214 0-9.11-3.293-9.11-9.355 0-5.791 3.925-9.689 9.66-9.689 2.276 0 3.758.496 4.388.797l-.603 1.975c-.876-.438-2.168-.77-3.705-.77-4.334 0-7.216 2.775-7.216 7.602 0 4.525 2.607 7.408 7.08 7.408 1.481 0 2.965-.299 3.925-.768l.465 1.919zm33.137-19.508h-6.586v-1.512h6.586v1.512zm-7.736 1.617V97.32c0 4.115 1.839 5.871 4.307 5.871 2.717 0 4.5-1.811 4.5-5.871V86.341h2.415v10.812c0 5.68-2.992 7.986-6.997 7.986-3.785 0-6.64-2.141-6.64-7.904V86.341h2.415zm-34.748 34.121c0-1.404-.357-2.459-1.07-3.168-.713-.707-1.758-1.064-3.139-1.064H13.4v8.592h1.622c2.928 0 4.393-1.451 4.393-4.36m.742-.027c0 1.643-.429 2.887-1.291 3.727-.863.844-2.132 1.264-3.803 1.264h-2.346v-9.799h2.65c1.564 0 2.752.41 3.568 1.229.815.817 1.222 2.011 1.222 3.579M24.283 121.349h3.505l-1.334-3.529c-.111-.277-.246-.66-.402-1.152-.121.43-.252.818-.395 1.166l-1.374 3.515zm3.733.617h-3.981l-1.368 3.459h-.757l3.941-9.84h.436l3.86 9.84h-.77l-1.361-3.459zm27.942 3.459h-.69l-5.805-8.699h-.053c.053 1.037.08 1.818.08 2.346v6.354h-.657v-9.799h.684l5.798 8.686h.04c-.04-.803-.06-1.568-.06-2.291v-6.395h.663v9.798zm9.109-2.523c0 .816-.301 1.465-.901 1.943-.602.479-1.399.715-2.396.715-1.197 0-2.118-.131-2.757-.395v-.682c.706.299 1.609.445 2.704.445.804 0 1.441-.184 1.912-.553.471-.367.706-.85.706-1.449 0-.371-.076-.678-.231-.924-.156-.242-.411-.465-.764-.666s-.871-.416-1.555-.648c-1.001-.344-1.694-.715-2.076-1.117-.382-.398-.574-.934-.574-1.6 0-.732.288-1.332.862-1.791.575-.465 1.314-.693 2.217-.693.92 0 1.782.174 2.592.523l-.247.59c-.812-.34-1.59-.51-2.332-.51-.724 0-1.3.166-1.729.5-.429.336-.643.791-.643 1.367 0 .363.064.662.196.895.132.232.349.441.648.625.299.188.813.406 1.542.666.763.264 1.335.518 1.72.77.384.244.666.527.841.844.177.313.265.698.265 1.145m7.351-6.797c-1.229 0-2.196.393-2.902 1.18-.706.785-1.059 1.863-1.059 3.23 0 1.398.333 2.484.998 3.258.666.771 1.617 1.156 2.855 1.156.822 0 1.577-.102 2.266-.312v.604c-.648.227-1.457.34-2.426.34-1.377 0-2.461-.443-3.252-1.332s-1.186-2.131-1.186-3.727c0-.996.188-1.877.566-2.637a4.125 4.125 0 0 1 1.627-1.76c.711-.412 1.533-.617 2.472-.617.956 0 1.812.18 2.567.537l-.275.615a4.974 4.974 0 0 0-2.251-.535M95.961 115.626v6.342c0 1.125-.326 2.006-.978 2.639-.653.635-1.562.953-2.728.953-1.136 0-2.022-.318-2.658-.957-.639-.635-.955-1.523-.955-2.662v-6.314h.689v6.342c0 .941.262 1.68.784 2.201.522.527 1.263.787 2.22.787.934 0 1.657-.26 2.172-.773.514-.518.771-1.232.771-2.148v-6.408h.683z"/></svg>