<svg xmlns="http://www.w3.org/2000/svg" viewBox="0 0 191.6 49.6"><path fill="#e2001a" d="M16.3 48.7h.8v.8h-.8zm2.6-.2H20v1.1h-1.1zm2.7 0h1.1v1.1h-1.1zm2.7 0h1.1v1.1h-1.1zM10.9 46h.8v.8h-.8zm2.7 0h.8v.8h-.8zm2.6-.2h1.2V47h-1.2zm2.5-.2h1.5v1.5h-1.5zm2.7 0h1.5v1.5h-1.5zm2.7 0h1.5v1.5h-1.5zM8.2 43.3H9v.8h-.8zm2.5-.2h1.2v1.2h-1.2zm2.6-.2h1.5v1.5h-1.5zm2.7 0h1.5v1.5H16zm2.5-.2h1.9v1.9h-1.9zm2.7 0h1.9v1.9h-1.9zm2.7 0h1.9v1.9h-1.9zM5.5 40.6h.8v.8h-.8zm2.5-.2h1.2v1.2H8zm2.6-.2h1.5v1.5h-1.5zm2.5-.2H15v1.9h-1.9zm2.7 0h1.9v1.9h-1.9zm-13-2.1h.8v.8h-.8zm2.5-.2h1.2v1.2H5.3zm2.6-.2h1.5V39H7.9zm2.5-.2h1.9v1.9h-1.9zm-7.6-2.1h.8v.8h-.8zm2.4-.4h1.5v1.5H5.2zm2.5-.1h1.9v1.9H7.7zM.1 32.5h.8v.8H.1zm2.5-.2h1.2v1.2H2.6zm2.6-.2h1.5v1.5H5.2zm2.5-.1h1.9v1.9H7.7zM0 29.7h1.1v1.1H0zm2.5-.3H4v1.5H2.5zm2.5-.1h1.9v1.9H5zM0 27h1.1v1.1H0zm2.5-.3H4v1.5H2.5zm2.5-.1h1.9v1.9H5zm-5-2.3h1.1v1.1H0zm2.5-.3H4v1.5H2.5zm2.5-.1h1.9v1.9H5zm27.5 24.8h.8v.8h-.8zm-2.8-.2h1.1v1.1h-1.1zm-2.7 0h1.1v1.1H27zm-2.7 0h1.1v1.1h-1.1zM37.9 46h.8v.8h-.8zm-2.7 0h.8v.8h-.8zm-2.8-.2h1.2V47h-1.2zm-2.9-.2H31v1.5h-1.5zm-2.7 0h1.5v1.5h-1.5zm-2.7 0h1.5v1.5h-1.5zm16.5-2.3h.8v.8h-.8zm-2.8-.2H39v1.2h-1.2zm-2.9-.2h1.5v1.5h-1.5zm-2.7 0h1.5v1.5h-1.5zm-2.9-.2h1.9v1.9h-1.9zm-2.7 0h1.9v1.9h-1.9zm-2.7 0h1.9v1.9h-1.9zm19.4-2.1h.8v.8h-.8zm-2.8-.2h1.2v1.2h-1.2zm-2.9-.2h1.5v1.5h-1.5zm-2.9-.2h1.9v1.9h-1.9zM32 40h1.9v1.9H32zm14-2.1h.8v.8H46zm-2.8-.2h1.2v1.2h-1.2zm-2.9-.2h1.5V39h-1.5zm-2.9-.2h1.9v1.9h-1.9zm8.6-2.1h.8v.8H46zm-3-.4h1.5v1.5H43zm-2.9-.1H42v1.9h-1.9zm8.7-2.2h.8v.8h-.8zm-2.9-.2h1.2v1.2h-1.2zm-2.9-.2h1.5v1.5H43zm-2.9-.1H42v1.9h-1.9zm8.5-2.3h1.1v1.1h-1.1zm-2.9-.3h1.5v1.5h-1.5zm-2.9-.1h1.9v1.9h-1.9zm5.8-2.3h1.1v1.1h-1.1zm-2.9-.3h1.5v1.5h-1.5zm-2.9-.1h1.9v1.9h-1.9zm5.8-2.3h1.1v1.1h-1.1zm-2.9-.3h1.5v1.5h-1.5zm-2.9-.1h1.9v1.9h-1.9zM16.3.1h.8v.8h-.8zm2.6-.1H20v1.1h-1.1zm2.7 0h1.1v1.1h-1.1zm2.7 0h1.1v1.1h-1.1zM10.9 2.8h.8v.8h-.8zm2.7 0h.8v.8h-.8zm2.6-.2h1.2v1.2h-1.2zm2.5-.1h1.5V4h-1.5zm2.7 0h1.5V4h-1.5zm2.7 0h1.5V4h-1.5zm-15.9 3H9v.8h-.8zm2.5-.2h1.2v1.2h-1.2zm2.6-.1h1.5v1.5h-1.5zm2.7 0h1.5v1.5H16zm2.5-.2h1.9v1.9h-1.9zm2.7 0h1.9v1.9h-1.9zm2.7 0h1.9v1.9h-1.9zM5.5 8.2h.8V9h-.8zM8 8h1.2v1.2H8zm2.6-.1h1.5v1.5h-1.5zm2.5-.2H15v1.9h-1.9zm2.7 0h1.9v1.9h-1.9zm-13 3.2h.8v.8h-.8zm2.5-.2h1.2v1.2H5.3zm2.6-.1h1.5v1.5H7.9zm2.5-.2h1.9v1.9h-1.9zm-7.6 3.2h.8v.8h-.8zm2.4-.4h1.5v1.5H5.2zm2.5-.1h1.9V15H7.7zM.1 16.3h.8v.8H.1zm2.5-.2h1.2v1.2H2.6zm2.6-.2h1.5v1.5H5.2zm2.5-.1h1.9v1.9H7.7zM0 18.9h1.1V20H0zm2.5-.3H4v1.5H2.5zm2.5-.1h1.9v1.9H5zm-5 3.1h1.1v1.1H0zm2.5-.3H4v1.5H2.5zm2.5-.1h1.9v1.9H5zm-5 3.1h1.1v1.1H0zm2.5-.3H4v1.5H2.5zm2.5-.1h1.9v1.9H5zM32.5.1h.8v.8h-.8zM29.7 0h1.1v1.1h-1.1zM27 0h1.1v1.1H27zm-2.7 0h1.1v1.1h-1.1zm13.6 2.8h.8v.8h-.8zm-2.7 0h.8v.8h-.8zm-2.8-.2h1.2v1.2h-1.2zm-2.9-.1H31V4h-1.5zm-2.7 0h1.5V4h-1.5zm-2.7 0h1.5V4h-1.5zm16.5 3h.8v.8h-.8zm-2.8-.2H39v1.2h-1.2zm-2.9-.1h1.5v1.5h-1.5zm-2.7 0h1.5v1.5h-1.5zM29.3 5h1.9v1.9h-1.9zm-2.7 0h1.9v1.9h-1.9zm-2.7 0h1.9v1.9h-1.9zm19.4 3.2h.8V9h-.8zM40.5 8h1.2v1.2h-1.2zm-2.9-.1h1.5v1.5h-1.5zm-2.9-.2h1.9v1.9h-1.9zm-2.7 0h1.9v1.9H32zm14 3.2h.8v.8H46zm-2.8-.2h1.2v1.2h-1.2zm-2.9-.1h1.5v1.5h-1.5zm-2.9-.2h1.9v1.9h-1.9zm8.6 3.2h.8v.8H46zm-3-.4h1.5v1.5H43zm-2.9-.1H42V15h-1.9zm8.7 3.2h.8v.8h-.8zm-2.9-.2h1.2v1.2h-1.2zm-2.9-.2h1.5v1.5H43zm-2.9-.1H42v1.9h-1.9zm8.5 3.1h1.1V20h-1.1zm-2.9-.3h1.5v1.5h-1.5zm-2.9-.1h1.9v1.9h-1.9zm5.8 3.1h1.1v1.1h-1.1zm-2.9-.3h1.5v1.5h-1.5zm-2.9-.1h1.9v1.9h-1.9zm5.8 3.1h1.1v1.1h-1.1zm-2.9-.3h1.5v1.5h-1.5zm-2.9-.1h1.9v1.9h-1.9zM7.3 29h1.5v-.3H7.3v-7.8h1.5v-.3H7.3v-2.5h2.8l-.1-2.5h1.5v-.4H10l.1-2.4h2.7v-2.7h5.4V7.4h2.5v1.4h.3V7.4h7.8v1.4h.3V7.4h2.4v2.7h5.4v2.7h2.7v2.4h-1.4v.4h1.4v2.5h2.7v2.5h-1.4v.3h1.4v7.8h-1.4v.3h1.4v2.5h-2.7v2.6h-1.4v.3h1.4v2.5h-2.7v2.7h-5.4v2.6h-2.4v-1.4h-.3v1.4H21v-1.4h-.3v1.4h-2.5v-2.6h-5.4v-2.7h-2.7l-.1-2.5h1.5v-.3H10l.1-2.6H7.3z"/><path fill="#fff" d="M34 32.5c.4 0 1.3.1.5 1.4-.6 1-2.5 1.6-2.5 1.6s.9 0 .7.5c-.1.5-.5.9-2.9 1-2.4.1-6.7-1.7-7.2-1.9.1.5.1 1.7-.8 1.6-.6-.1-.8-.8-.7-.9.1-.1.7-.2.6-.6s-1-1.1-2.2-1.4c-.2 0-.7 1-1 1.2.4 0 1.5.1 1.2 1.1-.3 1-1.5.6-1.5.1 0-.2.3 0 .2-.4 0-.2-.4-.2-.7.2-.4.4-1.3.7-2 .7s-2.4-.4-2.5-2.1c-.1-1.7 1.6-2.4 2.2-2.5.6-.1 1.2 0 1.4 0 .1-.2.2-.5 0-.7-.2-.2 0-.8.6-.8s1.1.5.6 1.5c.3.2.6.3.7.3.1 0 .2-.5.3-.7.1-.5.2-1.4-.1-1.9-.2-.5-.5-.4-.7-.4-.2 0-.5-.3-.5-.7 0-.4.5-.8.8-.8.4 0 .9.5 1.1 1 .2-1 0-2.8-.3-3.4-.3-.6-.5-.9-1-.9s-.5.3-.8.5c-.7-.3-.7-1.2-.3-1.6.4-.4 1.1-.4 1.3-.4.1-.2.1-.3.3-.3.4 0 .8.4 1 .7.2.3.5 1 .5 1.3.1-.1.1-.1.2-.3.1-.1.3-.2.3-.2v-.2c-.1-.1-.3-.3-.3-.5s.1-.5.1-.6c0 0-.2 0-.3-.5-.1-.4.4-1.3.5-1.4.1-.1.2-.8-.1-.8-.9-.1-.4.3-.7.2-.8-.1-.8-1.7.2-2 .9-.2 1.5.7 1.7 1 0-.2.2-.9.8-2.5.6-1.5 1-1.6 1-2.1s-.4-.4-.7-.4c0-.7.2-1.4 1.1-1.5.8-.1 1.2.8 1.2.8s2.9-2.2 6-2.2 3.9 2.5 3.8 3.4c0 .8-.3 2.2-1.7 2.6-.7.2-1.4-.9-.7-1.8 0 0 .8.6 1.2.3-.4 0-.4-.2-.4-.3 0-.1.8-.5.5-1-.1-.1-.3.6-.7.1-.2-.5.2-1.3-1.2-1.3.2.1 1.1 1.5-.1 1.8-1.5.2.2-1.8-2.9-1.8 0 0-1.3 0-2.4 1.1.6.1 1.5 1.1 0 1.7-.2-.2.4-.7-.8-.5-1.2.1-2.7 1.9-2.9 4.4.5-.5.9-.1 1.1.2s-.3.7-.5.7-.6.2-.6.7c0 .5-.1 1.1-.5 1.3 0 0 .3.2.2.6-.1.3-.3.5-.4.5v.1s.3.5.2 1.2c.2-.1.9-.4 1.2.2.3.6 0 1-.4 1.2-.4.1-.4.1-.6-.1-.2-.2-.5.1-.5.4 0 .3-.5 1.9-.7 2.6-.2.7-1.1 2.6-1.3 2.9.2.1.9.6 2.2.5 1.3-.1 1.8-.6 1.9-.7-.2-.1-.2-.7.1-.9.3-.2 1.2-.2 1.6.6.3.8 0 1.8-1.5 2 .9.1 1.1.6 4 .7 3 .1 4.7-2 4.4-3.6-.3-1.5-.6-1.1-1.4-.8-.6-.2-.7-1.2-.2-1.6.2-.2.8-.5 1.1-.5.1-.2.3-.8 1-.5.4.6 2 1.4.6 4.5zm-15.8 1.1s-1.5-.3-2.1-.2c0 .3 0 .7-.6.7-.5 0-.6-.3-.8-.3-.2.2-.8.9-.4 1.5.4.7 1.2.8 1.7.3.3-.3.2-.8.2-1 0-.2.5-.1.7.3.4-.1 1.1-.9 1.3-1.3"/><path d="M54 11.7h6.5v.7h-2.8v8.8h-.9v-8.8H54zm14.4 4.8c0-2.7-1.1-4.2-2.9-4.2-1.7 0-2.9 1.5-2.9 4.2s1.1 4.2 2.9 4.2c1.7-.1 2.9-1.6 2.9-4.2m.8 0c0 2.8-1.4 4.9-3.7 4.9-2.4 0-3.7-2.1-3.7-4.9 0-2.8 1.4-4.9 3.7-4.9 2.4 0 3.7 2 3.7 4.9M72.3 11.7v6.5c0 1.8.9 2.4 2.6 2.4 1.7 0 2.6-.6 2.6-2.4v-6.5h.9v6.4c0 2.2-1.1 3.2-3.4 3.2s-3.4-1.1-3.4-3.2v-6.4h.7zm9.7 4.4h2.3c1.3 0 2.1-.7 2.1-1.9s-.7-1.9-2.1-1.9H82v3.8zm5.6 5.1h-.9l-2.2-4.3H82v4.3h-.9v-9.5h3.2c1.9 0 2.9 1 2.9 2.6 0 1.2-.6 2.1-2 2.4l2.4 4.5zm2.5-9.5h.9v9.5h-.9zm3.7 6.8c.4 1.4 1.2 2.1 2.7 2.1 1.2 0 1.9-.7 1.9-1.9 0-2.6-5.1-1.6-5.1-4.7 0-1.4 1-2.5 2.7-2.5 1.5 0 2.6.8 3 2.3l-.8.2c-.2-1-1-1.7-2.2-1.7-1.1 0-1.9.6-1.9 1.8 0 .6.2 1.1 1.9 1.8 2.7 1 3.2 1.7 3.2 3 0 1.6-1.4 2.5-2.9 2.5-1.8 0-2.9-.8-3.4-2.5l.9-.4zm7.6 2.7v-9.5h1.5l2.7 8.1 2.6-8.1h1.5v9.5h-.8v-8.8l-2.9 8.8h-.8l-2.9-8.8v8.8zm12-9.5v6.5c0 1.8.9 2.4 2.6 2.4 1.7 0 2.6-.6 2.6-2.4v-6.5h.9v6.4c0 2.2-1.1 3.2-3.4 3.2s-3.4-1.1-3.4-3.2v-6.4h.7zm8.8 6.8c.4 1.4 1.2 2.1 2.7 2.1 1.2 0 1.9-.7 1.9-1.9 0-2.6-5.1-1.6-5.1-4.7 0-1.4 1-2.5 2.7-2.5 1.5 0 2.6.8 3 2.3l-.8.2c-.3-1.1-1.1-1.8-2.3-1.8-1.1 0-1.9.6-1.9 1.8 0 .6.2 1.1 1.9 1.8 2.7 1 3.2 1.7 3.2 3 0 1.6-1.4 2.5-2.9 2.5-1.8 0-2.9-.8-3.4-2.5l1-.3zm13.6-3.1c.9-.5 1.5-1.3 1.5-2.1 0-.6-.3-1.1-1.1-1.1-.6 0-1 .4-1 1.4 0 .7.2 1.3.6 1.8m0 5.2c1.1 0 1.8-.6 2.1-.9-.6-.6-1.9-2.4-2.4-3.2-1.1.6-1.7 1.2-1.7 2.5-.1 1.1 1 1.6 2 1.6m4.4-3.7c-.2 1-.6 2-1.2 2.8.4.4 1 .8 1.6.9v.8c-.8 0-1.6-.4-2.2-1-.7.7-1.7 1-2.7 1-1.5 0-2.9-.8-2.9-2.4 0-1.4.6-2.1 2.2-3.1-.4-.6-.8-1.4-.8-2.2 0-1.3.8-2 1.9-2 1.1 0 1.9.7 1.9 1.8 0 1.3-1 2-1.9 2.7.7 1 1.4 2.2 2.2 3 .5-.7.8-1.6 1-2.4l.9.1zm6.2 4.3v-9.5h5.5v.7h-4.6v3.5h3.3v.7h-3.3v3.9h4.8v.7zm6.3-9.5h1l2.5 8.3h.1l2.6-8.3h.9l-3.1 9.5h-.9zm8.8 9.5v-9.5h5.4v.7h-4.6v3.5h3.3v.7h-3.3v3.9h4.8v.7zm7.5-9.5h1.4l4.5 7.9h.1v-7.9h.8v9.5h-.9l-5-8.8h-.1v8.8h-.8zm8.8 0h6.5v.7h-2.9v8.8h-.8v-8.8h-2.8zm8.3 6.8c.4 1.4 1.2 2.1 2.7 2.1 1.2 0 1.9-.7 1.9-1.9 0-2.6-5.1-1.6-5.1-4.7 0-1.4 1-2.5 2.7-2.5 1.5 0 2.6.8 3 2.3l-.8.2c-.3-1.1-1.1-1.8-2.3-1.8-1.1 0-1.9.6-1.9 1.8 0 .6.2 1.1 1.9 1.8 2.7 1 3.2 1.7 3.2 3 0 1.6-1.4 2.5-2.9 2.5-1.8 0-2.9-.8-3.4-2.5l1-.3zm-130.8 9h.8v8.8h4.3v.7h-5.1zm7.6 0V34c0 1.8.9 2.4 2.6 2.4 1.7 0 2.6-.6 2.6-2.4v-6.5h.9v6.4c0 2.2-1.1 3.2-3.4 3.2s-3.4-1.1-3.4-3.2v-6.4h.7zm9.7 8.8h1.8c2.1 0 3.2-1.5 3.2-4s-1.1-4-3.2-4h-1.8v8zm-.9-8.8h2.7c2.9 0 4.1 2.2 4.1 4.7s-1.2 4.7-4.1 4.7h-2.7v-9.4zm7.9 0h.9l2 7.9 1.9-7.9h.9l1.8 7.9h.1l2-7.9h.9L87.6 37h-.9l-1.9-7.8L83 37h-.9zm12.3 0h.9V37h-.9zm9.2 2.7c-.3-1.2-1-2.2-2.4-2.2-1.7 0-2.8 1.6-2.8 4.2 0 2 .6 4.2 3 4.2 1.3 0 2.2-1 2.2-2.3v-.9h-2.4v-.7h3.3V37h-.8v-1c-.6.7-1.3 1.1-2.6 1.1-2.1 0-3.6-1.7-3.6-4.9 0-3.1 1.6-4.9 3.7-4.9 1.8 0 2.9 1.1 3.2 2.7l-.8.2zm3.5 4.1c.4 1.4 1.2 2.1 2.7 2.1 1.2 0 1.9-.7 1.9-1.9 0-2.6-5.1-1.6-5.1-4.7 0-1.4 1-2.5 2.7-2.5 1.5 0 2.6.8 3 2.3l-.8.2c-.3-1.1-1.1-1.8-2.3-1.8-1.1 0-1.9.6-1.9 1.8 0 .6.2 1.1 1.9 1.8 2.7 1 3.2 1.7 3.2 3 0 1.6-1.4 2.5-2.9 2.5-1.8 0-2.9-.8-3.4-2.5l1-.3zm8.4 2h2.2c1.7 0 2.4-.6 2.4-1.9 0-1.1-.8-1.9-2.7-1.9h-2v3.8zm0-4.6h2.1c1.1 0 2.2-.4 2.2-1.8s-.9-1.7-2.6-1.7H113v3.5zm-.8-4.2h2.7c2.3 0 3.4.7 3.4 2.4 0 1-.4 1.6-1.3 2.1 1 .5 1.7 1.3 1.7 2.5 0 2-1.3 2.6-3.4 2.6h-3v-9.6zm9.8 0V34c0 1.8.9 2.4 2.6 2.4 1.7 0 2.6-.6 2.6-2.4v-6.5h.9v6.4c0 2.2-1.1 3.2-3.4 3.2s-3.4-1.1-3.4-3.2v-6.4h.7zm9.7 4.4h2.3c1.3 0 2.1-.7 2.1-1.9s-.7-1.9-2.1-1.9h-2.3v3.8zm5.6 5.1h-.9l-2.2-4.3h-2.5V37h-.9v-9.5h3.2c1.9 0 2.9 1 2.9 2.6 0 1.2-.6 2.1-2 2.4l2.4 4.5zm7.9-6.8c-.3-1.2-1-2.2-2.4-2.2-1.7 0-2.8 1.6-2.8 4.2 0 2 .6 4.2 3 4.2 1.3 0 2.2-1 2.2-2.3v-.9h-2.4v-.7h3.3V37h-.8v-1c-.6.7-1.3 1.1-2.6 1.1-2.1 0-3.6-1.7-3.6-4.9 0-3.1 1.6-4.9 3.7-4.9 1.8 0 2.9 1.1 3.2 2.7l-.8.2z"/></svg>