<?xml version="1.0" encoding="utf-8"?>
<!-- Generator: Adobe Illustrator 19.0.0, SVG Export Plug-In . SVG Version: 6.00 Build 0)  -->
<svg version="1.1" id="Ebene_1" xmlns="http://www.w3.org/2000/svg" xmlns:xlink="http://www.w3.org/1999/xlink" x="0px" y="0px"
	 viewBox="0 0 151.1 96.9" style="enable-background:new 0 0 151.1 96.9;" xml:space="preserve">
<style type="text/css">
	.st0{fill:#706F6F;}
	.st1{fill:#95C11F;}
</style>
<path class="st0" d="M5,88c0-6.1,2.2-9.1,5.7-9.1c3.5,0,5.7,3.2,5.7,9c0,6.1-2.1,9-5.7,9C7.3,96.9,5,93.8,5,88z M15,88.1
	c0-5.6-1.5-8-4.3-8c-2.9,0-4.3,2.2-4.3,7.8c0,5.5,1.5,7.8,4.3,7.8C13.6,95.7,15,93.7,15,88.1z"/>
<path class="st0" d="M25.8,79.2h3.8c3.3,0,5,1.6,5,4.6c0,2.8-1.6,4.4-4.1,4.6c0.8,0.3,1.4,1.3,1.9,2.3l3.1,5.9H34l-2.9-5.6
	c-1-1.9-1.3-2.4-2.9-2.4h-1v8.1h-1.3V79.2z M29.4,87.5c2.7,0,3.8-0.9,3.8-3.7c0-2.5-1.2-3.4-3.6-3.4h-2.5v7.1H29.4z"/>
<path class="st0" d="M43.3,87.9c0-5.9,2.2-9,6-9c1.9,0,3.2,0.7,4.1,1.5l-0.8,1c-0.9-0.9-1.8-1.4-3.3-1.4c-3.2,0-4.5,2.5-4.5,7.7
	c0,5.6,1.5,7.9,4.7,7.9c1.3,0,2.2-0.3,3-0.8V89H49l-0.1-1.1h4.9v7.7c-1.1,0.7-2.6,1.2-4.4,1.2C45.6,96.8,43.3,94,43.3,87.9z"/>
<path class="st0" d="M65.2,90.9l-1.5,5.7h-1.4l5-17.3h1.5l4.9,17.3h-1.5l-1.5-5.7H65.2z M70.3,89.8l-1.1-3.9c-0.5-1.7-1-3.7-1.3-5
	c-0.2,1.3-0.8,3.2-1.3,5l-1.1,3.9H70.3z"/>
<path class="st0" d="M82.4,79.2h1.4l5.4,11.1c0.4,0.8,1.3,2.9,1.8,4.2c-0.2-1.8-0.2-3.2-0.2-4.8V79.2H92v17.3h-1.2l-5.5-11.4
	c-0.6-1.4-1.1-2.4-1.8-4.2c0.2,1.8,0.2,3.2,0.2,4.8v10.8h-1.2V79.2z"/>
<path class="st0" d="M102.2,79.2h1.3v17.3h-1.3V79.2z"/>
<path class="st0" d="M113,87.9c0-6,1.9-8.9,5.9-8.9c1.8,0,3.2,0.7,4.1,1.6l-0.8,0.9c-0.9-0.9-1.9-1.4-3.3-1.4
	c-3.1,0-4.5,2.2-4.5,7.7c0,5.7,1.3,8,4.5,8c1.6,0,2.4-0.5,3.4-1.3l0.7,1c-0.9,0.8-2.3,1.5-4.2,1.5C115.1,96.8,113,93.7,113,87.9z"/>
<path class="st0" d="M130.9,95.3l0.6-1c0.9,0.8,2.1,1.5,3.8,1.5c2.1,0,3.4-1.4,3.4-3.9c0-1.9-0.8-2.9-2.7-3.6l-1.2-0.4
	c-2.1-0.7-3.4-2-3.4-4.5c0-2.8,1.7-4.5,4.3-4.5c1.6,0,2.8,0.5,3.8,1.3l-0.7,1c-0.7-0.6-1.7-1.2-3.1-1.2c-1.9,0-3,1.3-3,3.3
	c0,1.7,0.6,2.7,2.6,3.4l1.2,0.4c2.3,0.8,3.6,2.1,3.6,4.7c0,3.1-1.8,5-4.8,5C133.5,96.9,132,96.2,130.9,95.3z"/>
<path class="st0" d="M144.1,78.1c0-2.4,1.5-4.1,3.5-4.1c2.1,0,3.5,1.7,3.5,4.1c0,2.4-1.4,4-3.5,4C145.5,82.2,144.1,80.5,144.1,78.1z
	 M150.6,78.1c0-2-1.2-3.5-3-3.5c-1.7,0-3,1.5-3,3.5c0,2,1.2,3.5,3,3.5C149.3,81.6,150.6,80.1,150.6,78.1z M146.4,75.9h1.2
	c0.9,0,1.3,0.4,1.3,1.2c0,0.6-0.3,1.1-0.9,1.1c0.2,0.1,0.3,0.3,0.5,0.5l0.6,1.4h-0.7l-0.6-1.4c-0.2-0.4-0.2-0.4-0.5-0.4h-0.2v1.8
	h-0.7V75.9z M147.5,77.9c0.5,0,0.7-0.2,0.7-0.8c0-0.5-0.2-0.7-0.7-0.7h-0.5v1.4H147.5z"/>
<path class="st1" d="M97.6,8.7c-24.9-16.2-42.9-7.9-49.7,9C29.2,11.6,11,12.4,0,30.4C10.7,20.6,30.6,18,44.8,22
	c10.1,2.8,16.4,9.2,16.4,9.2s-7.4-3.7-15.5-6.3c-3.6,17.6,6.8,27.6,23.6,31.3c40.3,9,77.9-33.2,77.9-33.2S132.3,31.3,97.6,8.7z
	 M102,42.8c-1,1.3-11.6,13.4-38.4-6.7c-0.1,0-0.1,0.1-0.2,0.1c-0.2,0.2-3.4,5-4.7,6.7c-1.3,1.7-2.4,3.1-3.3,4
	c-1.2,1.3-2.1,2.4-0.7-0.5c0.5-1.1,1.3-2.8,2.4-4.6c10.3-17.4,12.6-20.2,15.8-23.3c4-3.9,9.1-4.3,9.4-4.3c0.8,0,0.4,0.2,0.1,0.4
	c-0.3,0.2-5,2.6-7.5,5.4c-2.5,2.7-4.3,5.3-8.4,11.6c0.1-0.1,0.1-0.1,0.2-0.2c0.8-1.3,11.3-8.5,19.7-6.2c0.6,0.2,0.2,0.3,0,0.3
	c-2.9,0.2-13.4,3.5-20.7,8.8c22.3,15.1,29.9,8.5,32,6c3.5-4.3,0-8-10.6-3.7c-1.6,0.7-5,2.2-5.5,2.5c-0.5,0.2-0.2-0.2-0.2-0.2
	c7.6-12.6,15.5-21.9,16-22.4c0.6-0.5,1.2-1,1.9-1.4c0.8-0.4,1.5-0.7,2.2-0.8c0.2,0,0.5,0,0.7,0c0.1,0,0.2,0,0.2,0
	c-0.3,0.1-0.6,0.2-0.9,0.3c-0.6,0.3-1.1,0.7-1.7,1.2c-0.5,0.5-1,1-1.4,1.5c-0.5,0.6-6.5,10.8-13.5,18.4c0,0,3.8-3.1,8.5-4.1
	C101.1,30,107.4,35.7,102,42.8z"/>
</svg>
