<svg xmlns="http://www.w3.org/2000/svg" viewBox="0 0 585.6 111.6" enable-background="new 0 0 585.6 111.6"><style type="text/css">.st0{fill:#676B6B;} .st1{fill:#D72738;}</style><path class="st0" d="M266.5 93.1h-1.7v13.6h5.9v-1.5h-4.2zM274.3 98.2v4.9c0 2.3 1.1 3.9 3.6 3.9s3.6-1.6 3.6-3.9v-4.9h-1.6v4.7c0 1.4-.3 2.6-2 2.6-1.6 0-2-1.2-2-2.6v-4.7h-1.6zM292.7 106.7h1.6v-15.7h-1.6v8.7c-.7-1-1.7-1.7-3-1.7-2.4 0-4 2.1-4 4.4 0 2.4 1.5 4.6 4.1 4.6 1.2 0 2.2-.7 2.9-1.6v1.3zm-2.7-1.1c-1.7 0-2.7-1.5-2.7-3.1s1-3 2.7-3c1.8 0 2.8 1.4 2.8 3 0 1.7-1 3.1-2.8 3.1"/><path class="st0" d="M299.6 98.2h-1.9l4.3 8.8 2.5-5.7 2.5 5.7 4.3-8.8h-1.8l-2.5 5.4-2.5-5.8-2.5 5.8zM316 93.2c-.6 0-1.1.5-1.1 1.1 0 .6.5 1.1 1.1 1.1.6 0 1.1-.5 1.1-1.1.1-.6-.5-1.1-1.1-1.1m.8 5h-1.6v8.5h1.6v-8.5zM330.1 98.2h-1.6v1.5c-.7-1.1-1.7-1.7-3-1.7-2.4 0-4 2.1-4 4.4 0 2.4 1.4 4.6 4.1 4.6 1.2 0 2.2-.7 2.9-1.6v1.6c0 1.7-.4 3.1-2.4 3.1-1.5 0-2.5-.9-2.5-2.4h-1.6c0 2.4 1.7 3.8 4.1 3.8 3.3 0 4.1-2.1 4.1-5v-8.3zm-4.3 7.4c-1.7 0-2.7-1.5-2.7-3.1s1-3 2.7-3c1.8 0 2.8 1.4 2.8 3 0 1.7-1 3.1-2.8 3.1"/><path class="st0" d="M339.7 99.5c-.5-.9-1.3-1.5-2.3-1.5-1.4 0-2.5 1.1-2.5 2.5 0 1.2.7 1.6 1.6 2.1l1.6.9c.4.3.6.5.6.9 0 .7-.6 1.2-1.3 1.2-.8 0-1.2-.5-1.5-1.1l-1.4.6c.5 1.2 1.7 1.9 2.9 1.9 1.6 0 2.9-1.2 2.9-2.8 0-1.3-1-2-2-2.4-1-.5-2-.8-2-1.5 0-.5.4-.8.9-.8s.9.3 1.1.7l1.4-.7zM344.5 106.7h1.6v-1.3c.7 1 1.7 1.6 2.9 1.6 2.6 0 4.1-2.2 4.1-4.6 0-2.3-1.5-4.4-4-4.4-1.3 0-2.3.7-3 1.7v-8.7h-1.6v15.7zm4.2-1.1c-1.7 0-2.7-1.5-2.7-3.1s1-3 2.7-3c1.8 0 2.8 1.4 2.8 3 0 1.7-1 3.1-2.8 3.1"/><path class="st0" d="M357.3 98.2v4.9c0 2.3 1.1 3.9 3.6 3.9s3.6-1.6 3.6-3.9v-4.9h-1.6v4.7c0 1.4-.3 2.6-2 2.6-1.6 0-2-1.2-2-2.6v-4.7h-1.6zM371.1 98.2h-1.6v8.5h1.6v-4.2c0-1.4.2-3 2-3 .4 0 .7.1 1 .3l.7-1.5c-.4-.3-.9-.4-1.3-.4-1.1 0-1.9.6-2.3 1.6h-.1v-1.3zM386.4 98.2h-1.6v1.5c-.7-1.1-1.7-1.7-3-1.7-2.4 0-4 2.1-4 4.4 0 2.4 1.4 4.6 4.1 4.6 1.2 0 2.2-.7 2.9-1.6v1.6c0 1.7-.4 3.1-2.4 3.1-1.5 0-2.5-.9-2.5-2.4h-1.6c0 2.4 1.7 3.8 4.1 3.8 3.3 0 4.1-2.1 4.1-5v-8.3zm-4.3 7.4c-1.7 0-2.7-1.5-2.7-3.1s1-3 2.7-3c1.8 0 2.8 1.4 2.8 3 0 1.7-1 3.1-2.8 3.1M383.5 73.7c-20.8 13.2-43.6 14.3-50.9 2.5-7.3-11.9 3.6-32.2 24.5-45.4 1.8-1.1 3.6-2.2 5.4-3.2-17.4 13.1-26 31-19.3 41.8 6.7 10.8 26.3 10.8 45.5.7-1.6 1.3-3.4 2.5-5.2 3.6"/><path class="st1" d="M383.5 73.7c-20.8 13.2-43.6 14.3-50.9 2.5-7.3-11.9 3.6-32.2 24.5-45.4 1.8-1.1 3.6-2.2 5.4-3.2-17.4 13.1-26 31-19.3 41.8 6.7 10.8 26.3 10.8 45.5.7-1.6 1.3-3.4 2.5-5.2 3.6"/><path class="st0" d="M15.9 52.5l-12.3 12.6v-12.6h-3.6v29h3.6v-12.1l1.5-1.4 10.9 13.5h4.8l-13.2-16 13-13zM24.8 52.5h3.6v28.9h-3.6zM35.4 81.5h3.6v-21.6l21.7 22.8v-30.2h-3.6v21.4l-21.7-22.7zM71.1 55.8h1.3c7.4 0 13.7 2.7 13.7 11.2 0 8.4-6.4 11.2-13.7 11.2h-1.3v-22.4zm-3.6 25.7h5.9c9.1 0 16.3-4.8 16.3-14.6 0-9.6-7.4-14.3-16.2-14.3h-6v28.9zM95.2 81.5h15.5v-3.3h-11.9v-11h11.6v-3.3h-11.6v-8.1h11.9v-3.3h-15.5zM120.7 55.8h1c3.6 0 7.9.7 7.9 5.2 0 4.6-4 5.3-7.7 5.3h-1.2v-10.5zm5.3 13.1c4.2-.5 6.9-4 6.9-8.1 0-2.8-1.4-5.5-3.8-6.9-2.3-1.3-5.1-1.3-7.6-1.3h-4.4v28.9h3.6v-12.3h1.5l8.5 12.2h4.4l-9.1-12.5zM140.6 52.5h-4l12.1 30.1 8.1-21.2 8.2 21.2 12-30.1h-3.9l-8.1 20.8-8.2-21.4-8.1 21.4zM180.7 52.5v18.3c0 6.4 4 11.2 10.6 11.2s10.6-4.9 10.6-11.2v-18.3h-3.6v17.1c0 4.7-1.4 9.1-7 9.1s-7-4.4-7-9.1v-17.1h-3.6zM208.4 81.5h3.6v-21.6l21.8 22.8v-30.2h-3.6v21.4l-21.8-22.7zM256.5 56.3c-1.6-2.8-4.2-4.4-7.4-4.4-4.4 0-8.5 2.8-8.5 7.5 0 4 3 5.9 6.3 7.3l2 .8c2.5 1 5 2.4 5 5.5 0 3-2.2 5.6-5.3 5.6-3.1 0-5.6-2.3-5.6-5.5l-3.6.8c.6 4.6 4.3 8.1 8.9 8.1 5.2 0 9.2-3.8 9.2-9 0-4.8-3.1-7.1-7.2-8.7l-2.1-.8c-1.8-.7-4-1.9-4-4.1 0-2.5 2.5-4.1 4.8-4.1 2.2 0 3.6.9 4.6 2.7l2.9-1.7zM284.4 53.9c-2.2-1.3-4.8-2-7.3-2-8.5 0-15.4 6.7-15.4 15.2 0 8.4 6.8 14.9 15.1 14.9 2.5 0 5.4-.7 7.6-2v-4.3c-2.2 1.9-4.9 3-7.7 3-6.4 0-11.4-5.4-11.4-11.7 0-6.4 5-11.8 11.4-11.8 2.7 0 5.6 1 7.6 2.8v-4.1zM293.9 64.2v-11.7h-3.6v29h3.6v-13.9h13.8v13.9h3.6v-29h-3.6v11.7zM412.9 78.2l14.6-25.7h-18.4v3.3h12.6l-14.7 25.7h20.5v-3.3zM432.5 81.5h15.6v-3.3h-12v-11h11.6v-3.3h-11.6v-8.1h12v-3.3h-15.6zM454.1 81.5h3.6v-21.6l21.7 22.8v-30.2h-3.6v21.4l-21.7-22.7zM494.2 55.8h6.9v-3.3h-17.3v3.3h6.8v25.7h3.6zM509.5 55.8h1c3.6 0 7.9.7 7.9 5.2 0 4.6-4 5.3-7.7 5.3h-1.2v-10.5zm5.2 13.1c4.2-.5 6.9-4 6.9-8.1 0-2.8-1.4-5.5-3.8-6.9-2.3-1.3-5.1-1.3-7.6-1.3h-4.4v28.9h3.6v-12.3h1.5l8.5 12.2h4.4l-9.1-12.5zM528.1 52.5v18.3c0 6.4 4 11.2 10.6 11.2s10.6-4.9 10.6-11.2v-18.3h-3.6v17.1c0 4.7-1.4 9.1-7 9.1s-7-4.4-7-9.1v-17.1h-3.6zM569.8 74.1l-10-22.8-5.9 30.2h3.8l3.3-19.1h.1l8.7 19.7 8.7-19.7 3.4 19.1h3.7l-5.9-30.2zM382 42.7c1.8-1.8 10.5-9.5 28-12.3 12.6-2 21.8-12.9 21.8-12.9s14.6-16.1 28-17.5c-12.7 3-25.2 18.1-25.2 18.1s-9.2 12.6-24.3 15.5c-14.3 2.7-21.5 8-25.9 11.8.6 3.1-2.3 7.8-7.4 11.4-5.9 4.2-12.5 5.2-14.7 2.3-2.2-2.9.9-8.6 6.8-12.8 4.7-3.4 9.9-4.7 12.9-3.6m-13.2 13.2c1.5 1.9 5.9 1 9.7-1.9 3.8-2.9 5.7-6.8 4.2-8.7-1.5-1.9-5.9-1-9.7 1.9-3.8 2.9-5.7 6.8-4.2 8.7"/></svg>