<svg xmlns="http://www.w3.org/2000/svg" viewBox="0 0 113.386 49.203"><path fill="#283583" d="M0 9.664c33.582-16.937 66.296 1.584 66.223 1.584 25.9-17.298 47.163-1.667 47.163-1.667s-18.082-17.221-47.09-2.13c-3.872-1.564-37.555-17.245-66.296 2.213"/><path fill="#283583" d="M110.394 37.147c.977 0 1.703-.364 2.282-.942l-.447-.529c-.429.396-.958.777-1.768.777-1.473 0-2.184-.893-2.232-3.604h4.612v-.331c0-3.025-.942-4.265-2.646-4.265-1.818 0-2.877 1.636-2.877 4.463s1.059 4.431 3.076 4.431m-2.165-4.976c.082-2.315.826-3.224 1.935-3.224 1.174 0 1.735.727 1.735 3.224h-3.67zm-4.491 4.976c1.009 0 1.653-.397 2.132-.926l-.445-.562c-.479.479-.894.794-1.653.794-1.472 0-2.083-1.025-2.083-3.836 0-2.595.628-3.67 2.1-3.67.661 0 1.107.281 1.57.727l.463-.562c-.446-.479-1.124-.859-2.017-.859-2.017 0-3.026 1.57-3.026 4.43-.001 2.811.893 4.464 2.959 4.464m-10.358-.182h.858v-6.877c.546-.662 1.423-1.091 2.117-1.091.893 0 1.273.413 1.273 1.669v6.299h.858v-6.547c0-1.388-.744-2.165-1.967-2.165-.843 0-1.653.429-2.314 1.19 0-.628-.066-.926-.148-1.141l-.678.132v8.531zm-2.514.215l.397-.562c-.48-.331-.529-.579-.529-1.587v-4.365c0-1.521-.629-2.347-2.166-2.347-1.075 0-1.918.397-2.629.992l.414.562c.529-.48 1.256-.843 2.132-.843 1.01 0 1.406.446 1.406 1.587v1.471c-.067-.016-.381-.033-.711-.033-2.298 0-3.455.876-3.455 2.744 0 1.488.811 2.364 2.264 2.364.877 0 1.506-.446 1.951-1.058.132.546.497.943.926 1.075m-2.844-.661c-.958 0-1.405-.546-1.405-1.753 0-1.554.712-2.099 2.53-2.099.248 0 .545.016.728.033v2.628c-.364.645-.909 1.191-1.853 1.191m-4.627.578c.264 0 .396-.033.595-.132l-.115-.612-.231.05c-.364 0-.463-.149-.463-.777v-9.027c0-.942-.083-1.421-.116-1.537l-.744.132v10.663c-.002.86.378 1.24 1.074 1.24m-3.82.083l.396-.562c-.479-.331-.529-.579-.529-1.587v-4.365c0-1.521-.628-2.347-2.165-2.347-1.075 0-1.918.397-2.629.992l.413.562c.529-.48 1.257-.843 2.133-.843 1.008 0 1.405.446 1.405 1.587v1.471c-.066-.016-.38-.033-.711-.033-2.298 0-3.455.876-3.455 2.744 0 1.488.81 2.364 2.265 2.364.876 0 1.504-.446 1.951-1.058.132.546.497.943.926 1.075m-2.844-.661c-.959 0-1.405-.546-1.405-1.753 0-1.554.712-2.099 2.529-2.099.248 0 .546.016.729.033v2.628c-.364.645-.91 1.191-1.853 1.191m-6.552-5.671c1.24-.314 1.934-1.355 1.934-2.595 0-1.951-1.091-2.811-3.306-2.811h-2.546v11.523h2.447c2.513 0 3.719-1.091 3.719-3.191 0-1.554-.811-2.645-2.248-2.926m-3.009 5.34v-4.91h1.67c1.835 0 2.629.727 2.629 2.529 0 1.736-.777 2.381-2.662 2.381h-1.637zm0-5.67v-4.299h1.753c1.652 0 2.248.529 2.248 2.067 0 1.554-.76 2.232-2.199 2.232h-1.802zm-9.29 6.629c1.008 0 1.652-.397 2.132-.926l-.446-.562c-.479.479-.893.794-1.652.794-1.473 0-2.084-1.025-2.084-3.836 0-2.595.629-3.67 2.1-3.67.661 0 1.107.281 1.571.727l.463-.562c-.447-.479-1.125-.859-2.018-.859-2.017 0-3.025 1.57-3.025 4.43-.001 2.811.891 4.464 2.959 4.464m-6.151-.182h.86v-8.679l-.86.132v8.547zm.447-10.25c.331 0 .595-.248.595-.578 0-.348-.264-.579-.595-.579-.33 0-.578.248-.578.579 0 .33.248.578.578.578m-3.554 10.382c.264 0 .396-.033.595-.132l-.116-.612-.23.05c-.364 0-.464-.149-.464-.777v-9.027c0-.942-.083-1.421-.115-1.537l-.744.132v10.663c-.001.86.38 1.24 1.074 1.24m-6.349.05c1.901 0 2.942-1.604 2.942-4.414 0-2.827-.992-4.48-2.909-4.48-1.918 0-2.943 1.57-2.943 4.43 0 2.811.992 4.464 2.91 4.464m.017-.694c-1.355 0-2.018-.976-2.018-3.836 0-2.629.662-3.67 2.018-3.67s2.017.975 2.017 3.852c0 2.629-.661 3.654-2.017 3.654m-7.726.694c1.472 0 2.794-1.075 2.794-4.414 0-3.174-1.024-4.48-2.645-4.48-.811 0-1.505.479-2.018 1.091v-2.745c0-.942-.083-1.421-.115-1.537l-.744.132v11.771h.728c.049-.215.082-.446.1-.694.495.529 1.223.876 1.9.876m-.098-.694c-.695 0-1.307-.348-1.77-.943v-5.455c.496-.662 1.142-1.058 1.935-1.058 1.239 0 1.818.859 1.818 3.802s-.711 3.654-1.983 3.654m-5.143.727l.397-.562c-.479-.331-.529-.579-.529-1.587v-4.365c0-1.521-.628-2.347-2.166-2.347-1.074 0-1.917.397-2.628.992l.413.562c.529-.48 1.256-.843 2.133-.843 1.008 0 1.405.446 1.405 1.587v1.471c-.066-.016-.38-.033-.711-.033-2.298 0-3.455.876-3.455 2.744 0 1.488.81 2.364 2.265 2.364.876 0 1.504-.446 1.95-1.058.133.546.497.943.926 1.075m-2.843-.661c-.959 0-1.405-.546-1.405-1.753 0-1.554.71-2.099 2.529-2.099.248 0 .546.016.728.033v2.628c-.363.645-.909 1.191-1.852 1.191m-5.015.628c.413 0 .794-.099 1.141-.265l-.199-.645c-.197.099-.479.198-.825.198-.661 0-.877-.281-.877-1.19v-6.134h1.72l.083-.678h-1.803v-2.347l-.711.198c-.05.232-.132 1.224-.132 2.149h-.959v.678h.959v6.316c-.001 1.174.494 1.72 1.603 1.72m-6.795 0c.976 0 1.703-.364 2.281-.942l-.446-.529c-.43.396-.958.777-1.769.777-1.472 0-2.183-.893-2.231-3.604h4.611v-.331c0-3.025-.941-4.265-2.645-4.265-1.818 0-2.876 1.636-2.876 4.463.001 2.827 1.058 4.431 3.075 4.431m-2.165-4.976c.082-2.315.826-3.224 1.934-3.224 1.174 0 1.736.727 1.736 3.224h-3.67zm-11.87 4.794h.86l.495-7.307c.082-1.273.165-2.645.182-3.422.148.793.463 2.132.776 3.405l1.786 7.324h.843l1.819-7.373c.297-1.174.628-2.513.76-3.323.018.793.1 2.199.183 3.339l.512 7.357h.893l-.877-11.523h-1.207l-1.802 7.175c-.297 1.19-.595 2.414-.693 3.34-.116-.91-.381-2.199-.679-3.356l-1.769-7.159h-1.222l-.86 11.523zM112.38 48.441h-1.84v-4.291h-.841v4.974h2.545l.136-.683zm-5.722-4.291h-.848v4.974h.848v-4.974zm-3.34 0h-2.631v4.974h.826v-2.279h1.388v-.668h-1.388v-1.351h1.703l.102-.676zm-6.473 3.403c-.048.238-.118.432-.212.583-.094.151-.21.262-.349.334-.139.072-.302.108-.489.108-.21 0-.39-.043-.539-.13-.147-.086-.269-.214-.362-.384s-.161-.379-.204-.626c-.044-.246-.065-.53-.065-.851 0-.594.087-1.054.262-1.38.176-.326.472-.489.889-.489.22 0 .404.045.553.136.149.091.266.223.353.396.087.172.147.381.184.625s.054.518.054.819c-.003.336-.026.622-.075.859m.888-1.922c-.084-.312-.213-.583-.385-.813-.174-.23-.39-.41-.651-.542-.261-.132-.566-.198-.916-.198-.312 0-.594.056-.849.169-.254.113-.472.278-.653.496-.183.218-.324.486-.424.805-.102.319-.151.682-.151 1.089 0 .369.043.71.129 1.024s.218.585.396.812c.178.228.397.407.661.536.264.129.572.194.928.194.32 0 .607-.06.862-.18.253-.119.469-.291.644-.514.175-.222.308-.492.398-.808.092-.317.137-.669.137-1.057-.001-.364-.043-.702-.126-1.013m-7.566.298c-.04.103-.094.188-.161.255-.077.077-.178.131-.302.162-.125.031-.295.047-.511.047h-.423v-1.575h.452c.369 0 .63.064.78.191.151.127.227.317.227.571 0 .13-.021.246-.062.349m1.19 3.195l-.733-1.193-.205-.32-.208-.298-.198-.238-.157-.136c.19 0 .363-.038.517-.115.154-.077.284-.177.392-.302.108-.125.189-.27.244-.435.056-.165.083-.336.083-.514 0-.191-.031-.374-.097-.546-.065-.173-.163-.324-.295-.453-.132-.129-.299-.232-.503-.309s-.444-.115-.723-.115h-1.517v4.974h.812v-2.149l.187.043.137.108c.135.139.267.302.396.489.13.186.28.433.453.74l.431.769h.984zm-7.146-2.775c-.144.144-.369.216-.676.216h-.647v-1.747h.647c.163 0 .3.021.41.062.109.04.204.101.28.183.134.139.201.347.201.625.001.297-.071.518-.215.661m.952-1.444c-.117-.216-.286-.388-.506-.518l-.209-.108-.251-.072-.338-.043-.467-.014h-1.323v4.974h.818v-1.898h.842c.225 0 .436-.037.633-.111.195-.074.366-.18.51-.316.145-.137.258-.303.342-.5.083-.196.125-.417.125-.661 0-.273-.058-.518-.176-.733m-5.678 3.536h-1.84v-4.291h-.842v4.974h2.545l.137-.683zm-7.937-1.315l.071-.237.112-.374.129-.442.13-.449.106-.389.076-.266h.007l.051.22.104.402.133.489.134.481.106.381.062.184h-1.221zm2.717 1.998l-1.589-4.981h-.956l-1.632 4.981h.856l.401-1.308h1.61l.403 1.308h.907zm-5.684-4.974h-3.443v.69h1.259v4.284h.827v-4.284h1.25l.107-.69zm-6.046 0h-.848v4.974h.848v-4.974zm-3.354 0h-.862l-.912 2.774c-.087.259-.151.468-.194.626l-.107.417h-.016l-.097-.442c-.04-.17-.094-.356-.161-.557l-.898-2.818h-.906l1.675 4.996h.769l1.709-4.996z"/></svg>
