<svg xmlns="http://www.w3.org/2000/svg" viewBox="0 0 191.6 49.6"><path fill="#e2001a" d="M16.3 48.7h.8v.8h-.8zM18.9 48.5h1.1v1.1h-1.1zM21.6 48.5h1.1v1.1h-1.1zM24.3 48.5h1.1v1.1h-1.1zM10.9 46h.8v.8h-.8zM13.6 46h.8v.8h-.8zM16.2 45.8h1.2v1.2h-1.2zM18.7 45.6h1.5v1.5h-1.5zM21.4 45.6h1.5v1.5h-1.5zM24.1 45.6h1.5v1.5h-1.5zM8.2 43.3h.8v.8h-.8zM10.7 43.1h1.2v1.2h-1.2zM13.3 42.9h1.5v1.5h-1.5zM16 42.9h1.5v1.5h-1.5zM18.5 42.7h1.9v1.9h-1.9zM21.2 42.7h1.9v1.9h-1.9zM23.9 42.7h1.9v1.9h-1.9zM5.5 40.6h.8v.8h-.8zM8 40.4h1.2v1.2h-1.2zM10.6 40.2h1.5v1.5h-1.5zM13.1 40h1.9v1.9h-1.9zM15.8 40h1.9v1.9h-1.9zM2.8 37.9h.8v.8h-.8zM5.3 37.7h1.2v1.2h-1.2zM7.9 37.5h1.5v1.5h-1.5zM10.4 37.3h1.9v1.9h-1.9zM2.8 35.2h.8v.8h-.8zM5.2 34.8h1.5v1.5h-1.5zM7.7 34.7h1.9v1.9h-1.9zM.1 32.5h.8v.8h-.8zM2.6 32.3h1.2v1.2h-1.2zM5.2 32.1h1.5v1.5h-1.5zM7.7 32h1.9v1.9h-1.9zM0 29.7h1.1v1.1h-1.1zM2.5 29.4h1.5v1.5h-1.5zM5 29.3h1.9v1.9h-1.9zM0 27h1.1v1.1h-1.1zM2.5 26.7h1.5v1.5h-1.5zM5 26.6h1.9v1.9h-1.9zM0 24.3h1.1v1.1h-1.1zM2.5 24h1.5v1.5h-1.5zM5 23.9h1.9v1.9h-1.9zM32.5 48.7h.8v.8h-.8zM29.7 48.5h1.1v1.1h-1.1zM27 48.5h1.1v1.1h-1.1zM24.3 48.5h1.1v1.1h-1.1zM37.9 46h.8v.8h-.8zM35.2 46h.8v.8h-.8zM32.4 45.8h1.2v1.2h-1.2zM29.5 45.6h1.5v1.5h-1.5zM26.8 45.6h1.5v1.5h-1.5zM24.1 45.6h1.5v1.5h-1.5zM40.6 43.3h.8v.8h-.8zM37.8 43.1h1.2v1.2h-1.2zM34.9 42.9h1.5v1.5h-1.5zM32.2 42.9h1.5v1.5h-1.5zM29.3 42.7h1.9v1.9h-1.9zM26.6 42.7h1.9v1.9h-1.9zM23.9 42.7h1.9v1.9h-1.9zM43.3 40.6h.8v.8h-.8zM40.5 40.4h1.2v1.2h-1.2zM37.6 40.2h1.5v1.5h-1.5zM34.7 40h1.9v1.9h-1.9zM32 40h1.9v1.9h-1.9zM46 37.9h.8v.8h-.8zM43.2 37.7h1.2v1.2h-1.2zM40.3 37.5h1.5v1.5h-1.5zM37.4 37.3h1.9v1.9h-1.9zM46 35.2h.8v.8h-.8zM43 34.8h1.5v1.5h-1.5zM40.1 34.7h1.9v1.9h-1.9zM48.8 32.5h.8v.8h-.8zM45.9 32.3h1.2v1.2h-1.2zM43 32.1h1.5v1.5h-1.5zM40.1 32h1.9v1.9h-1.9zM48.6 29.7h1.1v1.1h-1.1zM45.7 29.4h1.5v1.5h-1.5zM42.8 29.3h1.9v1.9h-1.9zM48.6 27h1.1v1.1h-1.1zM45.7 26.7h1.5v1.5h-1.5zM42.8 26.6h1.9v1.9h-1.9zM48.6 24.3h1.1v1.1h-1.1zM45.7 24h1.5v1.5h-1.5zM42.8 23.9h1.9v1.9h-1.9zM16.3.1h.8v.8h-.8zM18.9 0h1.1v1.1h-1.1zM21.6 0h1.1v1.1h-1.1zM24.3 0h1.1v1.1h-1.1zM10.9 2.8h.8v.8h-.8zM13.6 2.8h.8v.8h-.8zM16.2 2.6h1.2v1.2h-1.2zM18.7 2.5h1.5v1.5h-1.5zM21.4 2.5h1.5v1.5h-1.5zM24.1 2.5h1.5v1.5h-1.5zM8.2 5.5h.8v.8h-.8zM10.7 5.3h1.2v1.2h-1.2zM13.3 5.2h1.5v1.5h-1.5zM16 5.2h1.5v1.5h-1.5zM18.5 5h1.9v1.9h-1.9zM21.2 5h1.9v1.9h-1.9zM23.9 5h1.9v1.9h-1.9zM5.5 8.2h.8v.8h-.8zM8 8h1.2v1.2h-1.2zM10.6 7.9h1.5v1.5h-1.5zM13.1 7.7h1.9v1.9h-1.9zM15.8 7.7h1.9v1.9h-1.9zM2.8 10.9h.8v.8h-.8zM5.3 10.7h1.2v1.2h-1.2zM7.9 10.6h1.5v1.5h-1.5zM10.4 10.4h1.9v1.9h-1.9zM2.8 13.6h.8v.8h-.8zM5.2 13.2h1.5v1.5h-1.5zM7.7 13.1h1.9v1.9h-1.9zM.1 16.3h.8v.8h-.8zM2.6 16.1h1.2v1.2h-1.2zM5.2 15.9h1.5v1.5h-1.5zM7.7 15.8h1.9v1.9h-1.9zM0 18.9h1.1v1.1h-1.1zM2.5 18.6h1.5v1.5h-1.5zM5 18.5h1.9v1.9h-1.9zM0 21.6h1.1v1.1h-1.1zM2.5 21.3h1.5v1.5h-1.5zM5 21.2h1.9v1.9h-1.9zM0 24.3h1.1v1.1h-1.1zM2.5 24h1.5v1.5h-1.5zM5 23.9h1.9v1.9h-1.9zM32.5.1h.8v.8h-.8zM29.7 0h1.1v1.1h-1.1zM27 0h1.1v1.1h-1.1zM24.3 0h1.1v1.1h-1.1zM37.9 2.8h.8v.8h-.8zM35.2 2.8h.8v.8h-.8zM32.4 2.6h1.2v1.2h-1.2zM29.5 2.5h1.5v1.5h-1.5zM26.8 2.5h1.5v1.5h-1.5zM24.1 2.5h1.5v1.5h-1.5zM40.6 5.5h.8v.8h-.8zM37.8 5.3h1.2v1.2h-1.2zM34.9 5.2h1.5v1.5h-1.5zM32.2 5.2h1.5v1.5h-1.5zM29.3 5h1.9v1.9h-1.9zM26.6 5h1.9v1.9h-1.9zM23.9 5h1.9v1.9h-1.9zM43.3 8.2h.8v.8h-.8zM40.5 8h1.2v1.2h-1.2zM37.6 7.9h1.5v1.5h-1.5zM34.7 7.7h1.9v1.9h-1.9zM32 7.7h1.9v1.9h-1.9zM46 10.9h.8v.8h-.8zM43.2 10.7h1.2v1.2h-1.2zM40.3 10.6h1.5v1.5h-1.5zM37.4 10.4h1.9v1.9h-1.9zM46 13.6h.8v.8h-.8zM43 13.2h1.5v1.5h-1.5zM40.1 13.1h1.9v1.9h-1.9zM48.8 16.3h.8v.8h-.8zM45.9 16.1h1.2v1.2h-1.2zM43 15.9h1.5v1.5h-1.5zM40.1 15.8h1.9v1.9h-1.9zM48.6 18.9h1.1v1.1h-1.1zM45.7 18.6h1.5v1.5h-1.5zM42.8 18.5h1.9v1.9h-1.9zM48.6 21.6h1.1v1.1h-1.1zM45.7 21.3h1.5v1.5h-1.5zM42.8 21.2h1.9v1.9h-1.9zM48.6 24.3h1.1v1.1h-1.1zM45.7 24h1.5v1.5h-1.5zM42.8 23.9h1.9v1.9h-1.9zM7.3 29h1.5v-.3h-1.5v-7.8h1.5v-.3h-1.5v-2.5h2.8l-.1-2.5h1.5v-.4h-1.5l.1-2.4h2.7v-2.7h5.4v-2.7h2.5v1.4h.3v-1.4h7.8v1.4h.3v-1.4h2.4v2.7h5.4v2.7h2.7v2.4h-1.4v.4h1.4v2.5h2.7v2.5h-1.4v.3h1.4v7.8h-1.4v.3h1.4v2.5h-2.7v2.6h-1.4v.3h1.4v2.5h-2.7v2.7h-5.4v2.6h-2.4v-1.4h-.3v1.4h-7.8v-1.4h-.3v1.4h-2.5v-2.6h-5.4v-2.7h-2.7l-.1-2.5h1.5v-.3h-1.5l.1-2.6h-2.8z"/><path fill="#fff" d="M34 32.5c.4 0 1.3.1.5 1.4-.6 1-2.5 1.6-2.5 1.6s.9 0 .7.5c-.1.5-.5.9-2.9 1-2.4.1-6.7-1.7-7.2-1.9.1.5.1 1.7-.8 1.6-.6-.1-.8-.8-.7-.9.1-.1.7-.2.6-.6s-1-1.1-2.2-1.4c-.2 0-.7 1-1 1.2.4 0 1.5.1 1.2 1.1-.3 1-1.5.6-1.5.1 0-.2.3 0 .2-.4 0-.2-.4-.2-.7.2-.4.4-1.3.7-2 .7s-2.4-.4-2.5-2.1c-.1-1.7 1.6-2.4 2.2-2.5.6-.1 1.2 0 1.4 0 .1-.2.2-.5 0-.7-.2-.2 0-.8.6-.8s1.1.5.6 1.5c.3.2.6.3.7.3.1 0 .2-.5.3-.7.1-.5.2-1.4-.1-1.9-.2-.5-.5-.4-.7-.4-.2 0-.5-.3-.5-.7 0-.4.5-.8.8-.8.4 0 .9.5 1.1 1 .2-1 0-2.8-.3-3.4-.3-.6-.5-.9-1-.9s-.5.3-.8.5c-.7-.3-.7-1.2-.3-1.6.4-.4 1.1-.4 1.3-.4.1-.2.1-.3.3-.3.4 0 .8.4 1 .7.2.3.5 1 .5 1.3.1-.1.1-.1.2-.3.1-.1.3-.2.3-.2v-.2c-.1-.1-.3-.3-.3-.5s.1-.5.1-.6c0 0-.2 0-.3-.5-.1-.4.4-1.3.5-1.4.1-.1.2-.8-.1-.8-.9-.1-.4.3-.7.2-.8-.1-.8-1.7.2-2 .9-.2 1.5.7 1.7 1 0-.2.2-.9.8-2.5.6-1.5 1-1.6 1-2.1s-.4-.4-.7-.4c0-.7.2-1.4 1.1-1.5.8-.1 1.2.8 1.2.8s2.9-2.2 6-2.2 3.9 2.5 3.8 3.4c0 .8-.3 2.2-1.7 2.6-.7.2-1.4-.9-.7-1.8 0 0 .8.6 1.2.3-.4 0-.4-.2-.4-.3 0-.1.8-.5.5-1-.1-.1-.3.6-.7.1-.2-.5.2-1.3-1.2-1.3.2.1 1.1 1.5-.1 1.8-1.5.2.2-1.8-2.9-1.8 0 0-1.3 0-2.4 1.1.6.1 1.5 1.1 0 1.7-.2-.2.4-.7-.8-.5-1.2.1-2.7 1.9-2.9 4.4.5-.5.9-.1 1.1.2s-.3.7-.5.7-.6.2-.6.7c0 .5-.1 1.1-.5 1.3 0 0 .3.2.2.6-.1.3-.3.5-.4.5v.1s.3.5.2 1.2c.2-.1.9-.4 1.2.2.3.6 0 1-.4 1.2-.4.1-.4.1-.6-.1-.2-.2-.5.1-.5.4 0 .3-.5 1.9-.7 2.6-.2.7-1.1 2.6-1.3 2.9.2.1.9.6 2.2.5 1.3-.1 1.8-.6 1.9-.7-.2-.1-.2-.7.1-.9.3-.2 1.2-.2 1.6.6.3.8 0 1.8-1.5 2 .9.1 1.1.6 4 .7 3 .1 4.7-2 4.4-3.6-.3-1.5-.6-1.1-1.4-.8-.6-.2-.7-1.2-.2-1.6.2-.2.8-.5 1.1-.5.1-.2.3-.8 1-.5.4.6 2 1.4.6 4.5zm-15.8 1.1s-1.5-.3-2.1-.2c0 .3 0 .7-.6.7-.5 0-.6-.3-.8-.3-.2.2-.8.9-.4 1.5.4.7 1.2.8 1.7.3.3-.3.2-.8.2-1 0-.2.5-.1.7.3.4-.1 1.1-.9 1.3-1.3"/><path d="M54 11.7h6.5v.7h-2.8v8.8h-.9v-8.8h-2.8zM68.4 16.5c0-2.7-1.1-4.2-2.9-4.2-1.7 0-2.9 1.5-2.9 4.2s1.1 4.2 2.9 4.2c1.7-.1 2.9-1.6 2.9-4.2m.8 0c0 2.8-1.4 4.9-3.7 4.9-2.4 0-3.7-2.1-3.7-4.9 0-2.8 1.4-4.9 3.7-4.9 2.4 0 3.7 2 3.7 4.9"/><path d="M72.3 11.7v6.5c0 1.8.9 2.4 2.6 2.4 1.7 0 2.6-.6 2.6-2.4v-6.5h.9v6.4c0 2.2-1.1 3.2-3.4 3.2s-3.4-1.1-3.4-3.2v-6.4h.7zM82 16.1h2.3c1.3 0 2.1-.7 2.1-1.9s-.7-1.9-2.1-1.9h-2.3v3.8zm5.6 5.1h-.9l-2.2-4.3h-2.5v4.3h-.9v-9.5h3.2c1.9 0 2.9 1 2.9 2.6 0 1.2-.6 2.1-2 2.4l2.4 4.5zM90.1 11.7h.9v9.5h-.9zM93.8 18.5c.4 1.4 1.2 2.1 2.7 2.1 1.2 0 1.9-.7 1.9-1.9 0-2.6-5.1-1.6-5.1-4.7 0-1.4 1-2.5 2.7-2.5 1.5 0 2.6.8 3 2.3l-.8.2c-.2-1-1-1.7-2.2-1.7-1.1 0-1.9.6-1.9 1.8 0 .6.2 1.1 1.9 1.8 2.7 1 3.2 1.7 3.2 3 0 1.6-1.4 2.5-2.9 2.5-1.8 0-2.9-.8-3.4-2.5l.9-.4zM101.4 21.2v-9.5h1.5l2.7 8.1 2.6-8.1h1.5v9.5h-.8v-8.8l-2.9 8.8h-.8l-2.9-8.8v8.8zM113.4 11.7v6.5c0 1.8.9 2.4 2.6 2.4 1.7 0 2.6-.6 2.6-2.4v-6.5h.9v6.4c0 2.2-1.1 3.2-3.4 3.2s-3.4-1.1-3.4-3.2v-6.4h.7zM122.2 18.5c.4 1.4 1.2 2.1 2.7 2.1 1.2 0 1.9-.7 1.9-1.9 0-2.6-5.1-1.6-5.1-4.7 0-1.4 1-2.5 2.7-2.5 1.5 0 2.6.8 3 2.3l-.8.2c-.3-1.1-1.1-1.8-2.3-1.8-1.1 0-1.9.6-1.9 1.8 0 .6.2 1.1 1.9 1.8 2.7 1 3.2 1.7 3.2 3 0 1.6-1.4 2.5-2.9 2.5-1.8 0-2.9-.8-3.4-2.5l1-.3zM135.8 15.4c.9-.5 1.5-1.3 1.5-2.1 0-.6-.3-1.1-1.1-1.1-.6 0-1 .4-1 1.4 0 .7.2 1.3.6 1.8m0 5.2c1.1 0 1.8-.6 2.1-.9-.6-.6-1.9-2.4-2.4-3.2-1.1.6-1.7 1.2-1.7 2.5-.1 1.1 1 1.6 2 1.6m4.4-3.7c-.2 1-.6 2-1.2 2.8.4.4 1 .8 1.6.9v.8c-.8 0-1.6-.4-2.2-1-.7.7-1.7 1-2.7 1-1.5 0-2.9-.8-2.9-2.4 0-1.4.6-2.1 2.2-3.1-.4-.6-.8-1.4-.8-2.2 0-1.3.8-2 1.9-2 1.1 0 1.9.7 1.9 1.8 0 1.3-1 2-1.9 2.7.7 1 1.4 2.2 2.2 3 .5-.7.8-1.6 1-2.4l.9.1zM146.4 21.2v-9.5h5.5v.7h-4.6v3.5h3.3v.7h-3.3v3.9h4.8v.7zM152.7 11.7h1l2.5 8.3h.1l2.6-8.3h.9l-3.1 9.5h-.9zM161.5 21.2v-9.5h5.4v.7h-4.6v3.5h3.3v.7h-3.3v3.9h4.8v.7zM169 11.7h1.4l4.5 7.9h.1v-7.9h.8v9.5h-.9l-5-8.8h-.1v8.8h-.8zM177.8 11.7h6.5v.7h-2.9v8.8h-.8v-8.8h-2.8zM186.1 18.5c.4 1.4 1.2 2.1 2.7 2.1 1.2 0 1.9-.7 1.9-1.9 0-2.6-5.1-1.6-5.1-4.7 0-1.4 1-2.5 2.7-2.5 1.5 0 2.6.8 3 2.3l-.8.2c-.3-1.1-1.1-1.8-2.3-1.8-1.1 0-1.9.6-1.9 1.8 0 .6.2 1.1 1.9 1.8 2.7 1 3.2 1.7 3.2 3 0 1.6-1.4 2.5-2.9 2.5-1.8 0-2.9-.8-3.4-2.5l1-.3zM55.3 27.5h.8v8.8h4.3v.7h-5.1zM62.9 27.5v6.5c0 1.8.9 2.4 2.6 2.4 1.7 0 2.6-.6 2.6-2.4v-6.5h.9v6.4c0 2.2-1.1 3.2-3.4 3.2s-3.4-1.1-3.4-3.2v-6.4h.7zM72.6 36.3h1.8c2.1 0 3.2-1.5 3.2-4s-1.1-4-3.2-4h-1.8v8zm-.9-8.8h2.7c2.9 0 4.1 2.2 4.1 4.7s-1.2 4.7-4.1 4.7h-2.7v-9.4zM79.6 27.5h.9l2 7.9 1.9-7.9h.9l1.8 7.9h.1l2-7.9h.9l-2.5 9.5h-.9l-1.9-7.8-1.8 7.8h-.9zM91.9 27.5h.9v9.5h-.9zM101.1 30.2c-.3-1.2-1-2.2-2.4-2.2-1.7 0-2.8 1.6-2.8 4.2 0 2 .6 4.2 3 4.2 1.3 0 2.2-1 2.2-2.3v-.9h-2.4v-.7h3.3v4.5h-.8v-1c-.6.7-1.3 1.1-2.6 1.1-2.1 0-3.6-1.7-3.6-4.9 0-3.1 1.6-4.9 3.7-4.9 1.8 0 2.9 1.1 3.2 2.7l-.8.2zM104.6 34.3c.4 1.4 1.2 2.1 2.7 2.1 1.2 0 1.9-.7 1.9-1.9 0-2.6-5.1-1.6-5.1-4.7 0-1.4 1-2.5 2.7-2.5 1.5 0 2.6.8 3 2.3l-.8.2c-.3-1.1-1.1-1.8-2.3-1.8-1.1 0-1.9.6-1.9 1.8 0 .6.2 1.1 1.9 1.8 2.7 1 3.2 1.7 3.2 3 0 1.6-1.4 2.5-2.9 2.5-1.8 0-2.9-.8-3.4-2.5l1-.3zM113 36.3h2.2c1.7 0 2.4-.6 2.4-1.9 0-1.1-.8-1.9-2.7-1.9h-2v3.8zm0-4.6h2.1c1.1 0 2.2-.4 2.2-1.8s-.9-1.7-2.6-1.7h-1.7v3.5zm-.8-4.2h2.7c2.3 0 3.4.7 3.4 2.4 0 1-.4 1.6-1.3 2.1 1 .5 1.7 1.3 1.7 2.5 0 2-1.3 2.6-3.4 2.6h-3v-9.6zM122 27.5v6.5c0 1.8.9 2.4 2.6 2.4 1.7 0 2.6-.6 2.6-2.4v-6.5h.9v6.4c0 2.2-1.1 3.2-3.4 3.2s-3.4-1.1-3.4-3.2v-6.4h.7zM131.7 31.9h2.3c1.3 0 2.1-.7 2.1-1.9s-.7-1.9-2.1-1.9h-2.3v3.8zm5.6 5.1h-.9l-2.2-4.3h-2.5v4.3h-.9v-9.5h3.2c1.9 0 2.9 1 2.9 2.6 0 1.2-.6 2.1-2 2.4l2.4 4.5zM145.2 30.2c-.3-1.2-1-2.2-2.4-2.2-1.7 0-2.8 1.6-2.8 4.2 0 2 .6 4.2 3 4.2 1.3 0 2.2-1 2.2-2.3v-.9h-2.4v-.7h3.3v4.5h-.8v-1c-.6.7-1.3 1.1-2.6 1.1-2.1 0-3.6-1.7-3.6-4.9 0-3.1 1.6-4.9 3.7-4.9 1.8 0 2.9 1.1 3.2 2.7l-.8.2z"/></svg>
