<svg xmlns="http://www.w3.org/2000/svg" viewBox="0 0 24 24"><path d="M22 7h-7v-2h7v2zm1.726 10c-.442 1.297-2.03 3-5.1 3-3.075 0-5.565-1.73-5.565-5.675 0-3.91 2.326-5.92 5.467-5.92 3.082 0 4.964 1.782 5.375 4.426.078.507.11 1.19.095 2.14h-8.028c.13 3.212 3.483 3.313 4.588 2.03h3.168zm-7.686-4h4.965c-.105-1.547-1.136-2.22-2.477-2.22-1.466 0-2.277.77-2.488 2.22zm-9.574 6.988h-6.466v-14.968h6.953c5.476.082 5.58 5.445 2.72 6.907 3.46 1.26 3.577 8.06-3.207 8.06zm-3.466-8.988h3.584c2.508 0 2.906-3-.312-3h-3.272v3zm3.39 3h-3.39v3.016h3.34c3.056 0 2.87-3.016.05-3.016z"/></svg>
