<svg xmlns="http://www.w3.org/2000/svg" viewBox="0 0 2283.9 1508.9"><path d="M987.6 1279.8c-5.3 34.5-8.8 52.5-31.7 72-11.7 10-25.5 20.4-37.5 26.6-21.2 11.1-21.5 12.8-21.5 16.3s.3 15.6 34.9 15.6h523.1c34.6 0 34.9-12.1 34.9-15.6s-.3-5.2-21.5-16.3c-12-6.3-25.8-16.7-37.5-26.6-22.9-19.5-26.4-37.5-31.7-72-3.8-24.8-13.1-106.1-18-149.8h-375.7c-4.7 43.7-14 125-17.8 149.8zM2074.6 0h-1762.4c-24.2 0-44 19.8-44 44v1042c0 24.2 19.8 44 44 44h148.6l98.2-98h-213.8v-955h1696.4v955h-1212.7l-98.2 98h1344c24.2 0 44-19.8 44-44v-1042c-.1-24.2-19.9-44-44.1-44zm-881.2 45.1c-4.5 0-8.1-3.6-8.1-8.1s3.6-8.1 8.1-8.1 8.1 3.6 8.1 8.1-3.6 8.1-8.1 8.1zM849.8 977.2l75.7-75.6c13.9-13.9 13.9-36.5 0-50.4l-50.5-50.4c-7-7-16.1-10.4-25.2-10.4s-18.3 3.5-25.2 10.4l-75.7 75.6 100.9 100.8zM995.3 1437.2h-693.5c-19.8 0-35.9 16.1-35.9 35.9 0 19.8 16.1 35.9 35.9 35.9h693.5c19.8 0 35.9-16.1 35.9-35.9 0-19.9-16.1-35.9-35.9-35.9zM420.7 1204l100.9 100.8 303-302.4-101-100.8zM361.6 1363.5l134.6-33.5-101-100.8zM1760 920.2h-757.5c-21.6 0-39.2-17.5-39.2-39.2v-653c0-21.6 17.5-39.2 39.2-39.2h757.5c21.6 0 39.2 17.5 39.2 39.2v653c0 21.7-17.5 39.2-39.2 39.2zm-561.6-39.2h561.6v-339.5h-561.6v339.5zm-195.9 0h156.7v-339.5h-156.7v339.5zm39.2-653c-21.6 0-39.2 17.5-39.2 39.2 0 21.6 17.5 39.2 39.2 39.2 21.6 0 39.2-17.5 39.2-39.2 0-21.6-17.5-39.2-39.2-39.2zm117.6 0c-21.6 0-39.2 17.5-39.2 39.2 0 21.6 17.5 39.2 39.2 39.2 21.6 0 39.2-17.5 39.2-39.2-.1-21.6-17.6-39.2-39.2-39.2zm117.5 0c-21.6 0-39.2 17.5-39.2 39.2 0 21.6 17.5 39.2 39.2 39.2 21.6 0 39.2-17.5 39.2-39.2 0-21.6-17.6-39.2-39.2-39.2zm444.1 117.6h-718.3v156.7h757.5v-156.7h-39.2z"/></svg>
