<svg xmlns="http://www.w3.org/2000/svg" viewBox="0 0 33 47.2" enable-background="new 0 0 33 47.2"><style type="text/css">.st0{fill:#D51130;}</style><path class="st0" d="M5.8 2.6c-5.9 4.3-7.6 12.5-3.6 18.7 1.2 2 2.9 3.5 4.8 4.6v-1.1c-1.4-1.1-2.7-2.5-3.7-4.1-4-6.2-2.8-14.1 2.5-18.1zM6.9 24.8v-18.9h16.9c.3.4.6.9.8 1.2.8 1.2 1.3 2.5 1.7 3.8-5.5 4.4-12.7 8.5-12.7 8.5 5-2.4 9.5-5.1 12.9-7.6 1 4 .2 8.2-2.2 11.2 1.5-1.7 2.6-3.8 3.1-6l-.7 5.4.2.7c-.7 1.1-.8 3.2-.8 3.2s-1 .7-1.2 1.5h-1l-.6-1.6-1.8.6-.9-.9.9.3 3.1-.9.1.3-.9 1.1 1.1-1.2v-.6l-.1-.1-1-.4.1-.3-1.2-.2-.1-.3c-4-2.2-6.9 3.4-2 4.2 0 0 .3 1 .5 1.7-.2.3-.7.7-.7.7s-1.3-.1-2.1.4c0 0-2.2-.2-3.6.9-1.8-1.1-4.1-2.4-4.1-2.4s-.4-1.2-.6-1.7c1.7.5 3.4.7 5.1.6-2.8-.2-5.8-1.3-8.2-3.2m8.3 3zm-2.7-5.9c0-1.3-1-2.3-2.3-2.3-1.3 0-2.3 1-2.3 2.3 0 1.3 1 2.3 2.3 2.3 1.3 0 2.3-1 2.3-2.3"/><path class="st0" d="M32.7 3c-.9-.6-3.6.2-7.7 2.5-2.5-3.3-6.3-5.3-10.2-5.5 3.4.5 6.7 2.8 9 6h1.5999999999999999c.1.2.3.4.4.5.7 1.2 1.3 2.4 1.6 3.7 1.2-1 2.4-2.1 3.3-3.1 1.9-2.1 2.8-3.6 2-4.1zm-2.1 2.9h-5.2c-.1-.1-.1-.2-.2-.2 3.5-1.9 5.9-2.5 6.3-1.9.3.4 0 1.1-.9 2.1zM22.3 35c-.1-.1-.1-.1-.2-.1h-.1c-.8-.5-1.9-.9-1.9-.9s-4.3.3-6.7-.1c-2-1.5-2.2-1.7-4.2-4.4 0 0-2-3-2.3-3.4v9.5h16l-.6-.6zM30.6 8.6c-.9.8-1.9 1.7-3.1 2.5l.3 1.9.9 1.4-.3 2.3c.4 1.6 1 4.3 1 4.6.2 2.7-.1 3.4-1 7.9v1.7c0 1.5 0 2.8-.1 3.9l-.1.6h2.4v-26.8zM7.7 45.3h-.8v-8.3h2.1v.8h-1.3v2.8h.8v.9h-.8v3.8zM9.7 45.3v-8.3h.8v8.3h-.8zM14.1 37l-1 3.8 1.2 4.5h-.9l-.5-2.4-.2-.8-.2.9-.5 2.3h-.9l1.1-4.5-.9-3.8h.9l.3 1.8.2.7.1-.7.4-1.8h.9zM14.5 37h2.5v.8h-.8v7.5h-.9v-7.5h-.8v-.8zM18.4 45.3h-.8v-8.3h1.3c.9 0 1.4.6 1.4 1.7v.9c0 .8-.2 1.3-.6 1.6l.6 4h-.8l-.5-3.8h-.4v3.9h-.2zm.5-4.7c.4 0 .5-.2.5-.6v-1.7c0-.4-.2-.6-.6-.6h-.4v2.8h.5v.1zM21.8 44.5h1.3v.8h-2.1v-8.3h2.1v.8h-1.3v2.8h.7v.9h-.7v3zM23.8 45.3v-8.3h1.2l.6 4.5.1 1.4.1-1.4.6-4.5h1.2v8.3h-.7v-6.5l-.1 1-.7 5.5h-.7l-.8-5.6v-.9 6.5h-.8zM29.3 44.5h1.3v.8h-2.1v-8.3h2.1v.8h-1.3v2.8h.8v.9h-.8v3zM30.6 47.2v-.7h-23.7v.7h23.7z"/></svg>