<?xml version="1.0" encoding="utf-8"?>
<!-- Generator: Adobe Illustrator 19.0.0, SVG Export Plug-In . SVG Version: 6.00 Build 0)  -->
<svg version="1.1" id="Layer_1" xmlns="http://www.w3.org/2000/svg" xmlns:xlink="http://www.w3.org/1999/xlink" x="0px" y="0px"
	 viewBox="7 182.6 525 149.4" style="enable-background:new 7 182.6 525 149.4;" xml:space="preserve">
<style type="text/css">
	.st0{fill:#FFC900;}
</style>
<polygon class="st0" points="44,219.3 44,213.7 38.2,213.7 38.3,219.3 "/>
<polygon class="st0" points="42.9,202.2 42.9,198.7 39.3,198.7 39.3,202.2 "/>
<rect x="38.7" y="206.2" class="st0" width="4.6" height="4.6"/>
<rect x="31.7" y="199.2" class="st0" width="2.5" height="2.5"/>
<polygon class="st0" points="26,209.8 26,207.3 23.5,207.3 23.5,209.8 "/>
<polygon class="st0" points="34.7,210.3 34.7,206.8 31.1,206.8 31.2,210.3 "/>
<rect x="39.9" y="191.1" class="st0" width="2.5" height="2.5"/>
<rect x="30.2" y="230.1" class="st0" width="5.7" height="5.7"/>
<rect x="30.6" y="214.2" class="st0" width="4.6" height="4.6"/>
<rect x="30.2" y="221.9" class="st0" width="5.7" height="5.7"/>
<polygon class="st0" points="59.2,194.1 59.2,190.6 55.6,190.6 55.7,194.1 "/>
<polygon class="st0" points="68.3,203.3 68.3,197.6 62.7,197.6 62.7,203.3 "/>
<polygon class="st0" points="52,211.3 52,205.7 46.3,205.7 46.3,211.3 "/>
<rect x="63.2" y="190.1" class="st0" width="4.6" height="4.6"/>
<rect x="56.2" y="182.9" class="st0" width="2.5" height="2.5"/>
<polygon class="st0" points="51.5,202.7 51.5,198.1 46.9,198.1 47,202.7 "/>
<rect x="48" y="191.1" class="st0" width="2.5" height="2.5"/>
<polygon class="st0" points="60,205.7 54.4,205.7 54.3,211.3 60,211.3 "/>
<polygon class="st0" points="59.7,202.7 59.7,198.1 55,198.1 55.1,202.7 "/>
<rect x="7" y="239.4" class="st0" width="3.2" height="3.2"/>
<polygon class="st0" points="26.5,218.3 26.5,214.8 23,214.8 23,218.3 "/>
<polygon class="st0" points="15.5,291 18,291 18,288.5 15.5,288.5 "/>
<rect x="15.5" y="296.6" class="st0" width="2.5" height="2.5"/>
<rect x="7" y="247.6" class="st0" width="3.2" height="3.2"/>
<rect x="64" y="182.6" class="st0" width="3.2" height="3.2"/>
<rect x="14.4" y="263.2" class="st0" width="4.6" height="4.6"/>
<polygon class="st0" points="15,283.4 18.5,283.4 18.5,279.9 14.9,279.9 "/>
<rect x="14.4" y="255" class="st0" width="4.6" height="4.6"/>
<rect x="14.4" y="271.2" class="st0" width="4.6" height="4.6"/>
<rect x="7" y="255.7" class="st0" width="3.2" height="3.2"/>
<rect x="15.5" y="223.5" class="st0" width="2.5" height="2.5"/>
<polygon class="st0" points="27.2,230.6 22.5,230.6 22.5,235.2 27.2,235.2 "/>
<polygon class="st0" points="18,217.9 18,215.4 15.4,215.4 15.5,217.9 "/>
<polygon class="st0" points="27.2,222.5 22.5,222.5 22.5,227.1 27.2,227.1 "/>
<polygon class="st0" points="18.5,234.7 18.5,231.1 15,231.1 15,234.7 "/>
<polygon class="st0" points="7.3,282.9 9.8,282.9 9.8,280.4 7.3,280.4 "/>
<rect x="7" y="271.9" class="st0" width="3.2" height="3.2"/>
<rect x="7" y="263.9" class="st0" width="3.2" height="3.2"/>
<rect x="14.4" y="246.9" class="st0" width="4.6" height="4.6"/>
<rect x="7.3" y="231.6" class="st0" width="2.5" height="2.5"/>
<polygon class="st0" points="132,201.7 132,199.2 129.4,199.2 129.5,201.7 "/>
<polygon class="st0" points="132.8,214.4 128.2,214.4 128.1,219 132.8,219 "/>
<polygon class="st0" points="132.4,206.8 128.9,206.8 128.8,210.3 132.4,210.3 "/>
<rect x="135.5" y="238.2" class="st0" width="5.7" height="5.7"/>
<rect x="121.3" y="191.1" class="st0" width="2.5" height="2.5"/>
<rect x="127.5" y="222" class="st0" width="5.7" height="5.6"/>
<rect x="136.1" y="230.6" class="st0" width="4.6" height="4.6"/>
<polygon class="st0" points="124.4,202.1 124.4,198.6 120.8,198.6 120.9,202.1 "/>
<rect x="127.4" y="230.1" class="st0" width="5.7" height="5.7"/>
<polygon class="st0" points="140.4,218.5 140.4,214.9 136.9,214.9 137,218.5 "/>
<rect x="145.4" y="223.6" class="st0" width="2.5" height="2.5"/>
<polygon class="st0" points="156.2,242.6 156.2,239.4 153,239.4 153,242.6 "/>
<rect x="145.6" y="215.4" class="st0" width="2.5" height="2.5"/>
<rect x="153.5" y="231.7" class="st0" width="2.5" height="2.5"/>
<rect x="137.5" y="207.3" class="st0" width="2.5" height="2.5"/>
<polygon class="st0" points="140.9,227.1 140.9,222.5 136.2,222.5 136.3,227.1 "/>
<polygon class="st0" points="124.8,206.2 120.2,206.2 120.1,210.8 124.8,210.8 "/>
<polygon class="st0" points="148.3,234.7 148.3,231.2 144.8,231.2 145,234.7 "/>
<rect x="144.2" y="238.7" class="st0" width="4.7" height="4.6"/>
<polygon class="st0" points="125.1,213.9 119.5,213.9 119.4,219.5 125.1,219.5 "/>
<polygon class="st0" points="92.3,190 87.7,190 87.6,194.6 92.3,194.6 "/>
<polygon class="st0" points="80.2,185.8 83.5,185.8 83.5,182.6 83.4,182.6 83.4,182.6 80.2,182.6 80.2,185.8 80.2,185.8 "/>
<polygon class="st0" points="93,197.5 87.3,197.5 87.3,203.1 93,203.1 "/>
<rect x="88.4" y="182.6" class="st0" width="3.2" height="3.2"/>
<polygon class="st0" points="84.1,194.6 84.2,194.6 84.2,190 79.5,190 79.5,190.1 79.5,190.1 79.5,194.7 84.1,194.7 "/>
<polygon class="st0" points="101,197.5 95.4,197.5 95.3,203.1 101,203.1 "/>
<polygon class="st0" points="76,194.7 76,190.1 71.4,190.1 71.4,194.7 "/>
<rect x="72.1" y="182.6" class="st0" width="3.2" height="3.2"/>
<polygon class="st0" points="79,203.3 84.5,203.3 84.5,203.3 84.7,203.3 84.7,197.6 79,197.6 79,197.6 78.9,197.6 "/>
<rect x="95.8" y="190" class="st0" width="4.6" height="4.6"/>
<rect x="105" y="183" class="st0" width="2.5" height="2.5"/>
<rect x="70.8" y="197.6" class="st0" width="5.7" height="5.7"/>
<rect x="111.5" y="205.7" class="st0" width="5.7" height="5.6"/>
<rect x="113.1" y="191.1" class="st0" width="2.5" height="2.5"/>
<rect x="112.2" y="198" class="st0" width="4.6" height="4.6"/>
<rect x="103.3" y="205.7" class="st0" width="5.7" height="5.6"/>
<polygon class="st0" points="99.7,185.8 99.7,182.6 96.5,182.6 96.5,185.8 "/>
<polygon class="st0" points="108.7,198 104.1,198 104,202.6 108.7,202.6 "/>
<rect x="104.5" y="190.5" class="st0" width="3.6" height="3.6"/>
<rect x="63.2" y="319.8" class="st0" width="4.6" height="4.6"/>
<rect x="135.5" y="246.3" class="st0" width="5.7" height="5.7"/>
<polygon class="st0" points="129,307.6 132.8,307.6 132.8,304 129.2,304 "/>
<polygon class="st0" points="129.5,315.2 132,315.2 132,312.7 129.4,312.7 "/>
<polygon class="st0" points="120,300.4 125.8,300.4 125.8,294.7 120.1,294.7 "/>
<path class="st0" d="M126.4,229.5h-4.3v-1.1h4.3v-7.3h-8.1V213H102v-8.2h-7.2v4.3h-1.1v-4.3H70.3v4.3h-1.1v-4.3h-7.5v8.2H45.5v8.1
	h-8.1v7.3h4.3v1h-4.3v7.8h-8.2v7.4h4.2v1h-4.3v23.3h4.3v1.1h-4.3l0,7.3h8.1v7.8h4.3v1h-4.3v7.5h8.1v8h16.3v8h7.5v-4.2h1.1v4.3h23.4
	v-4.3h1.1v4.3h7.3v-8h16.1v-8.1h8.1v-7.5H122v-1h4.3v-7.7h8.2V270h-4.3v-1h4.3v-23.3h-4.3v-1h4.3v-7.3h-8.1V229.5z M107.9,231.1
	c0-0.3,2.4-1.4,1.5-3.1c-0.4-0.4-1,1.8-2.2,0.4c-0.7-1.4,0.6-3.8-3.6-4c0.7,0.4,3.3,4.4-0.4,5.4c-4.5,0.7,0.6-5.3-8.9-5.5
	c0,0-3.9-0.2-7.3,3.2c1.9,0.4,4.6,3.3-0.2,5.1c-0.6-0.7,1.1-2-2.4-1.6c-3.5,0.4-8.1,5.6-8.8,13.3c1.6-1.4,2.8-0.3,3.4,0.7
	c0.5,0.9-0.8,2.1-1.5,2.2c-0.7,0.1-1.7,0.6-1.8,2.2s-0.4,3.2-1.7,3.8c0,0,0.8,0.7,0.5,1.8c-0.3,1-1,1.3-1.3,1.4v0.2
	c0,0,0.9,1.6,0.6,3.7c0.7-0.3,2.7-1.2,3.6,0.6c0.9,1.8-0.2,3.2-1.2,3.6s-1.2,0.3-1.8-0.3c-0.7-0.6-1.6,0.4-1.6,1.2
	c-0.1,0.8-1.7,5.6-2.3,7.9c-0.6,2.2-3.2,7.9-3.8,8.7c0.7,0.2,2.6,1.8,6.6,1.5c3.9-0.2,5.3-1.8,5.6-2.2c-0.5-0.2-0.7-2.1,0.2-2.6
	c0.9-0.6,3.7-0.5,4.7,1.9c0.9,2.4-0.1,5.3-4.5,6c2.7,0.5,3.2,1.8,12.1,2.1c8.9,0.4,14.2-6.1,13.4-10.8c-0.8-4.6-1.7-3.3-4.1-2.4
	c-1.9-0.6-2.1-3.6-0.5-4.8c0.6-0.5,2.4-1.6,3.3-1.5c0.3-0.6,0.8-2.3,2.8-1.5c2,0.8,7.1,3.1,2.7,12.4h-0.1l0.4,0.3
	c1.1,0.1,3.8,0.4,1.4,4.4c-1.8,2.9-7.5,5-7.5,5s2.7,0.2,2.2,1.7c-0.4,1.5-1.4,2.6-8.7,3c-7.3,0.5-20.1-5.1-21.6-5.7
	c0.4,1.5,0.5,5.1-2.5,4.9c-1.9-0.1-2.4-2.3-2.2-2.5c0.3-0.2,2.2-0.6,1.8-1.9c-0.4-1.2-3-3.3-6.5-4.1c-0.5,0.1-2.2,3.1-2.9,3.6
	c1.3,0,4.5,0.3,3.7,3.4s-4.4,1.8-4.4,0.5c0-0.6,0.9-0.1,0.7-1.1c-0.1-0.6-1.1-0.7-2.2,0.6c-1.1,1.3-3.9,2.1-6.1,2.2
	c-2.1,0-7.1-1.1-7.6-6.2c-0.4-5.2,4.8-7.3,6.6-7.5c1.8-0.1,3.7,0,4.3,0c0.4-0.4,0.7-1.5,0.1-2c-0.6-0.5,0.2-2.3,1.9-2.3
	c1.8,0.1,3.5,1.7,1.8,4.7c1.1,0.8,1.9,0.9,2.2,0.8c0.3-0.1,0.8-1.5,0.9-2.1c0.3-1.5,0.5-4.3-0.2-5.9s-1.4-1.1-2.1-1.2
	c-0.6-0.1-1.4-0.9-1.5-2.3c0-1.3,1.4-2.4,2.6-2.4s2.8,1.6,3.3,3c0.6-2.9,0-8.4-0.9-10.4c-0.8-1.9-1.5-2.7-3.1-2.6
	c-1.6,0-1.4,1-2.4,1.5c-2.1-0.9-2-3.7-0.9-4.9c1.2-1.3,3.4-1.2,3.8-1.2c0.3-0.5,0.5-0.8,0.9-0.8c1.2-0.1,2.3,1.3,3.1,2.1
	c0.8,0.8,1.4,2.9,1.5,3.8l0.5-0.8c0.2-0.4,0.8-0.5,0.8-0.5s0.1-0.3,0-0.6c-0.3-0.2-0.8-1-0.9-1.6s0.4-1.5,0.4-1.7
	c0-0.1-0.6,0-0.9-1.3s1.3-4,1.5-4.3c0.3-0.4,0.7-2.4-0.3-2.5c-2.5-0.3-1.1,0.9-2.1,0.7c-2.3-0.3-2.2-5.2,0.5-5.9
	c2.8-0.7,4.7,2.2,5.1,3c0.2-0.6,0.6-2.8,2.5-7.4c1.9-4.6,3.1-4.8,3.1-6.3c0.1-1.5-1-1.3-2.1-1.3c0-2,0.8-4.4,3.3-4.5
	c2.6-0.2,3.5,2.3,3.5,2.3s8.2-7,17.6-6.9c9.4,0.1,11.6,7.6,11.6,10.1c-0.1,2.5-0.8,6.7-5.1,7.7c-2.1,0.5-4.2-2.9-2.1-5.3
	c0,0,2.4,1.8,3.5,0.9C108.1,231.9,107.9,231.4,107.9,231.1z"/>
<polygon class="st0" points="128,292.2 134,292.2 134,286.5 128.3,286.5 "/>
<rect x="120.5" y="303.5" class="st0" width="4.6" height="4.6"/>
<path class="st0" d="M55.6,283.1c0,1-0.1,2-1.8,2c-1.6,0-1.8-0.9-2.5-0.9c-0.6,0.6-2.4,2.6-1.1,4.6c1.3,2,3.5,2.5,5.2,0.9
	c0.9-0.8,0.6-2.5,0.6-3c0-0.5,1.5-0.2,2.2,0.9c0.8-0.3,2.9-2.5,3.5-3.8v0C61.8,283.8,57.3,282.9,55.6,283.1z"/>
<polygon class="st0" points="128,284.1 134,284.1 134,278.4 128.4,278.4 "/>
<rect x="128.8" y="295.3" class="st0" width="4.6" height="4.6"/>
<rect x="104.5" y="320.4" class="st0" width="3.6" height="3.5"/>
<rect x="103.8" y="302.9" class="st0" width="5.7" height="5.7"/>
<polygon class="st0" points="104,316.1 108.7,316.1 108.7,311.5 104.1,311.5 "/>
<rect x="105" y="329.1" class="st0" width="2.5" height="2.5"/>
<rect x="121.3" y="321" class="st0" width="2.5" height="2.5"/>
<polygon class="st0" points="120.9,315.6 124.4,315.6 124.4,312.1 120.8,312.1 "/>
<rect x="113.1" y="321" class="st0" width="2.5" height="2.5"/>
<rect x="111.9" y="302.9" class="st0" width="5.7" height="5.7"/>
<rect x="112.2" y="311.5" class="st0" width="4.6" height="4.6"/>
<polygon class="st0" points="145.2,255 144.2,255 144.2,259.6 148.8,259.6 148.8,259.6 149.8,259.6 149.8,254.6 145.2,254.6 "/>
<polygon class="st0" points="145,267.6 149.8,267.6 149.8,262.7 145.2,262.7 "/>
<polygon class="st0" points="95.3,316.6 101,316.6 101,311 95.5,311 "/>
<polygon class="st0" points="156.2,250.8 156.2,247.6 153,247.6 153,250.8 "/>
<polygon class="st0" points="145,275.6 149.8,275.6 149.8,270.8 145.2,270.8 "/>
<polygon class="st0" points="154,282.5 156.8,282.5 156.8,279.9 154.3,279.9 "/>
<polygon class="st0" points="154,274.7 157.2,274.7 157.2,271.5 154,271.5 "/>
<polygon class="st0" points="154,255.3 154,255.7 153,255.7 153.1,258.9 156.3,258.9 156.3,258.6 157.2,258.6 157.2,255.3 "/>
<polygon class="st0" points="145.7,283 149.2,283 149.2,279.4 145.6,279.4 "/>
<rect x="154" y="263.4" class="st0" width="3.2" height="3.2"/>
<polygon class="st0" points="137,283.5 141.6,283.5 141.6,278.9 137,278.9 "/>
<polygon class="st0" points="137,291.6 141.6,291.6 141.6,287 136.9,287 "/>
<polygon class="st0" points="146,290.6 148.6,290.6 148.6,288.1 146.1,288.1 "/>
<polygon class="st0" points="141.2,259.7 142.1,259.7 142.1,254 136.5,254 136.5,254.4 135.5,254.4 135.6,260 141.2,260 "/>
<rect x="137.8" y="304.5" class="st0" width="2.5" height="2.5"/>
<polygon class="st0" points="137,299.4 141,299.4 141,295.8 137.4,295.8 "/>
<polygon class="st0" points="136.2,276 142.2,276 142.2,270.3 136.5,270.3 "/>
<polygon class="st0" points="146,298.8 148.6,298.8 148.6,296.3 146.1,296.3 "/>
<rect x="144.2" y="246.9" class="st0" width="4.6" height="4.6"/>
<polygon class="st0" points="136.2,267.8 142.2,267.8 142.2,262.2 136.5,262.2 "/>
<rect x="55.6" y="320.4" class="st0" width="3.6" height="3.5"/>
<rect x="30.2" y="287" class="st0" width="5.7" height="5.6"/>
<polygon class="st0" points="30.7,300.2 35.3,300.2 35.3,295.6 30.7,295.6 "/>
<polygon class="st0" points="31.1,307.7 34.6,307.7 34.6,304.1 31,304.1 "/>
<rect x="30.1" y="278.8" class="st0" width="5.7" height="5.7"/>
<rect x="39.9" y="321" class="st0" width="2.5" height="2.5"/>
<rect x="31.6" y="312.7" class="st0" width="2.5" height="2.5"/>
<polygon class="st0" points="38.3,300.7 44,300.7 44,295 38.3,295 "/>
<polygon class="st0" points="38.7,308.2 43.3,308.2 43.3,303.6 38.6,303.6 "/>
<rect x="39.2" y="312.1" class="st0" width="3.5" height="3.5"/>
<rect x="22" y="262.7" class="st0" width="5.7" height="5.7"/>
<rect x="22" y="238.2" class="st0" width="5.7" height="5.7"/>
<rect x="22.5" y="279.4" class="st0" width="4.6" height="4.6"/>
<rect x="23.1" y="296.1" class="st0" width="3.6" height="3.5"/>
<polygon class="st0" points="23.5,307.1 26,307.1 26,304.6 23.4,304.6 "/>
<polygon class="st0" points="22.5,292.1 27.2,292.1 27.2,287.5 22.6,287.5 "/>
<rect x="22" y="246.4" class="st0" width="5.7" height="5.7"/>
<rect x="22" y="270.7" class="st0" width="5.7" height="5.7"/>
<polygon class="st0" points="22,254.5 22,260.1 22,260.1 27.7,260.1 27.7,260.1 27.7,254.5 27.7,254.5 22,254.5 "/>
<polygon class="st0" points="48,323.5 50.5,323.5 50.5,321 48,321 "/>
<rect x="72.1" y="328.8" class="st0" width="3.2" height="3.2"/>
<rect x="46.8" y="311.5" class="st0" width="4.6" height="4.6"/>
<polygon class="st0" points="79.5,319.8 79.4,319.8 79.4,324.4 79.5,324.4 84,324.4 84.2,324.4 84.2,319.8 84,319.8 "/>
<rect x="70.6" y="310.9" class="st0" width="5.6" height="5.7"/>
<polygon class="st0" points="84.3,310.9 78.7,310.9 79,316.6 84.3,316.6 85,316.6 85,311 84.3,311 "/>
<polygon class="st0" points="87.3,316.6 93,316.6 93,311 87.4,311 "/>
<polygon class="st0" points="88.3,332 91.6,332 91.6,328.8 88.4,328.8 "/>
<polygon class="st0" points="96.5,332 99.7,332 99.7,328.8 96.5,328.8 "/>
<polygon class="st0" points="71.4,324.4 76,324.4 76,319.8 71.3,319.8 "/>
<polygon class="st0" points="87.6,324.4 92.3,324.4 92.3,319.8 87.7,319.8 "/>
<polygon class="st0" points="80.2,328.8 80.2,328.8 80.2,332 80.2,332 83.4,332 83.5,332 83.5,328.8 83.4,328.8 "/>
<polygon class="st0" points="55,316.1 59.5,316.1 59.5,311.5 54.9,311.5 "/>
<rect x="14.4" y="238.7" class="st0" width="4.6" height="4.6"/>
<rect x="95.8" y="319.8" class="st0" width="4.6" height="4.6"/>
<polygon class="st0" points="46.3,308.7 52,308.7 52,303.1 46.2,303.1 "/>
<rect x="56.2" y="329.1" class="st0" width="2.5" height="2.5"/>
<rect x="54.4" y="303.1" class="st0" width="5.7" height="5.7"/>
<rect x="62.5" y="310.9" class="st0" width="5.7" height="5.7"/>
<rect x="64" y="328.8" class="st0" width="3.2" height="3.2"/>
<path d="M173.9,276.2h20.4v-2.8h-16.9v-35h-3.5V276.2z M200.3,238.4v25.5c0,8.6,4.5,12.9,13.7,12.9s13.7-4.3,13.7-12.8v-25.6h-3.5
	v25.8c0,7.2-3.5,9.7-10.2,9.7s-10.2-2.5-10.2-9.7v-25.8h-3.4L200.3,238.4z"/>
<path d="M240.5,241.2h7.4c8.4,0,12.9,5.9,12.9,16.1c0,10.2-4.5,16.1-12.9,16.1h-7.4L240.5,241.2L240.5,241.2z M237,276.2h10.7
	c11.8,0,16.5-8.8,16.5-18.9c0-10.1-4.7-18.9-16.5-18.9h-10.7L237,276.2L237,276.2z"/>
<path d="M279.3,276.2h3.5l7.4-31.1h0.1l7.4,31.1h3.5l10.2-37.7h-3.5l-8.2,31.5h-0.1l-7.4-31.5h-3.5L281,270h-0.1l-8.1-31.5h-3.5
	L279.3,276.2z M320,238.4h3.5v37.8H320V238.4z M360.2,248.9c-1.4-6.4-5.8-10.9-12.9-10.9c-8.1,0-14.7,6.9-14.7,19.4
	c0,12.5,6.1,19.4,14.5,19.4c5.2,0,8-1.3,10.3-4.2h0.1v3.7h3v-17.8h-13v2.8h9.5v3.5c0,5-3.5,9.1-8.9,9.1c-9.8,0-12.1-8.5-12.1-16.6
	c0-10.2,4.4-16.6,11-16.6c5.6,0,8.6,3.8,9.8,8.7l3.3-0.6L360.2,248.9z M367.8,266.6c2.1,6.9,6.2,10.1,13.5,10.1
	c6.1,0,11.5-3.5,11.5-10c0-5.4-2.2-8-12.8-12c-7-2.6-7.7-4.4-7.7-7c0-4.4,3.1-6.9,7.5-6.9c4.8,0,7.8,3,9.2,7.2l3-0.9
	c-1.7-5.8-6.1-9-12.1-9c-7,0-10.9,4.2-10.9,9.8c0,12.5,20.6,8.6,20.6,18.7c0,4.6-2.8,7.6-7.5,7.6c-6,0-9.3-2.5-10.8-8.2l-3.2,1
	L367.8,266.6z"/>
<path d="M404.8,258h7.9c7.6,0,10.8,3.3,10.8,7.6c0,5.4-3,7.8-9.7,7.8h-9L404.8,258L404.8,258z M404.8,241.2h6.8
	c6.8,0,10.3,1.4,10.3,6.9c0,5.6-4.4,7-8.9,7h-8.2L404.8,241.2L404.8,241.2z M401.3,276.2h12.1c8.2,0,13.5-2.5,13.5-10.4
	c0-4.8-2.7-7.9-6.8-9.8c3.8-1.7,5.4-4.1,5.4-8.2c0-6.5-4.1-9.5-13.4-9.5h-10.6v37.8L401.3,276.2z"/>
<path d="M435.6,238.4v25.4c0,8.6,4.5,12.9,13.7,12.9s13.7-4.3,13.7-12.9v-25.4h-3.5v25.8c0,7.2-3.5,9.7-10.2,9.7s-10.2-2.5-10.2-9.7
	v-25.8h-3.4H435.6z"/>
<path d="M476,241.2h9.4c5.5,0,8.2,2.8,8.2,7.4c0,4.7-3.2,7.4-8.2,7.4H476V241.2L476,241.2z M489.2,258.3c5.4-1.4,7.9-4.7,7.9-9.7
	c0-6.2-4.2-10.3-11.7-10.3h-12.8v37.8h3.5v-17.2h9.8l8.8,17.3h3.8L489.2,258.3L489.2,258.3z"/>
<path d="M531.6,248.8c-1.3-6.4-5.8-10.9-12.8-10.9c-8.1,0-14.7,6.9-14.7,19.4c0,12.5,6.1,19.4,14.5,19.4c5.3,0,8.1-1.3,10.3-4.3h0.1
	v3.7h3v-17.6h-13v2.8h9.6v3.5c0,5-3.5,9.1-8.9,9.1c-9.7,0-12.1-8.5-12.1-16.6c0-10.2,4.4-16.6,11.1-16.6c5.6,0,8.6,3.8,9.8,8.7
	l3.3-0.6L531.6,248.8z"/>
</svg>
