<?xml version="1.0" encoding="utf-8"?>
<!-- Generator: Adobe Illustrator 19.0.0, SVG Export Plug-In . SVG Version: 6.00 Build 0)  -->
<svg version="1.1" id="Ebene_1" xmlns="http://www.w3.org/2000/svg" xmlns:xlink="http://www.w3.org/1999/xlink" x="0px" y="0px"
	 viewBox="0 0 157.7 68.5" style="enable-background:new 0 0 157.7 68.5;" xml:space="preserve">
<style type="text/css">
	.st0{fill:#23408D;}
</style>
<path class="st0" d="M2.1,35.4h1.7l2.5,10C6.7,47,7.1,48.8,7.2,50c0.1-1.3,0.6-3,1-4.6l2.5-10h1.7l1.2,16h-1.2l-0.7-10.2
	c-0.1-1.6-0.2-3.5-0.3-4.6c-0.2,1.1-0.6,3-1.1,4.6L7.8,51.4H6.6L4.1,41.2c-0.4-1.8-0.9-3.6-1.1-4.7c0,1.1-0.1,3-0.3,4.8L2.1,51.4
	H0.9L2.1,35.4z"/>
<path class="st0" d="M16.2,45.5c0-3.9,1.5-6.2,4-6.2c2.4,0,3.7,1.7,3.7,5.9v0.5h-6.4c0.1,3.8,1.1,5,3.1,5c1.1,0,1.9-0.5,2.5-1.1
	l0.6,0.7c-0.8,0.8-1.8,1.3-3.2,1.3C17.6,51.7,16.2,49.4,16.2,45.5z M22.5,44.8c0-3.5-0.8-4.5-2.4-4.5c-1.5,0-2.6,1.3-2.7,4.5H22.5z"
	/>
<path class="st0" d="M27.7,49.3v-8.8h-1.3v-0.9h1.3c0-1.3,0.1-2.7,0.2-3l1-0.3v3.3h2.5l-0.1,0.9h-2.4V49c0,1.3,0.3,1.7,1.2,1.7
	c0.5,0,0.9-0.1,1.1-0.3l0.3,0.9c-0.5,0.2-1,0.4-1.6,0.4C28.4,51.7,27.7,50.9,27.7,49.3z"/>
<path class="st0" d="M39.5,50.2c-0.6,0.8-1.5,1.5-2.7,1.5c-2,0-3.2-1.2-3.2-3.3c0-2.6,1.6-3.8,4.8-3.8c0.5,0,0.9,0,1,0v-2
	c0-1.6-0.6-2.2-2-2.2c-1.2,0-2.2,0.5-3,1.2L34,40.8c1-0.8,2.2-1.4,3.7-1.4c2.1,0,3,1.2,3,3.3v6.1c0,1.4,0.1,1.7,0.7,2.2l-0.6,0.8
	C40.2,51.5,39.7,51,39.5,50.2z M39.4,49.1v-3.7c-0.3,0-0.7,0-1,0c-2.5,0-3.5,0.8-3.5,2.9c0,1.7,0.6,2.4,2,2.4
	C38.2,50.8,38.9,50,39.4,49.1z"/>
<path class="st0" d="M45.4,50.5c0,0.3-0.1,0.7-0.1,1h-1V35.1l1-0.2c0,0.2,0.2,0.8,0.2,2.1v3.8c0.7-0.8,1.7-1.5,2.8-1.5
	c2.3,0,3.7,1.8,3.7,6.2c0,4.6-1.8,6.1-3.9,6.1C47.1,51.7,46.1,51.2,45.4,50.5z M50.7,45.6c0-4.1-0.8-5.3-2.5-5.3
	c-1.1,0-2,0.6-2.7,1.5v7.6c0.6,0.8,1.5,1.3,2.5,1.3C49.7,50.7,50.7,49.7,50.7,45.6z"/>
<path class="st0" d="M54.8,45.5c0-4,1.4-6.2,4.1-6.2c2.7,0,4,2.3,4,6.2c0,3.9-1.4,6.1-4.1,6.1C56.1,51.7,54.8,49.4,54.8,45.5z
	 M61.6,45.6c0-4-0.9-5.4-2.8-5.4c-1.9,0-2.8,1.4-2.8,5.1c0,4,0.9,5.3,2.8,5.3C60.7,50.7,61.6,49.3,61.6,45.6z"/>
<path class="st0" d="M66.1,49.9V35.1l1-0.2c0,0.2,0.2,0.8,0.2,2.1v12.6c0,0.9,0.1,1.1,0.6,1.1c0.1,0,0.3,0,0.3-0.1l0.2,0.9
	c-0.3,0.1-0.5,0.2-0.8,0.2C66.6,51.6,66.1,51.1,66.1,49.9z"/>
<path class="st0" d="M71.8,36.4c0-0.5,0.3-0.8,0.8-0.8c0.5,0,0.8,0.3,0.8,0.8c0,0.5-0.4,0.8-0.8,0.8C72.1,37.2,71.8,36.8,71.8,36.4z
	 M71.9,39.5l1.2-0.2v12.1h-1.2V39.5z"/>
<path class="st0" d="M76.4,45.5c0-4,1.4-6.2,4.2-6.2c1.2,0,2.2,0.5,2.8,1.2l-0.6,0.8c-0.6-0.6-1.3-1-2.2-1c-2,0-2.9,1.5-2.9,5.1
	c0,3.9,0.9,5.3,2.9,5.3c1.1,0,1.6-0.4,2.3-1.1l0.6,0.8c-0.7,0.7-1.6,1.3-3,1.3C77.6,51.7,76.4,49.4,76.4,45.5z"/>
<path class="st0" d="M100.7,47c0,2.9-1.7,4.4-5.2,4.4h-3.4v-16h3.5c3.1,0,4.6,1.2,4.6,3.9c0,1.7-1,3.2-2.7,3.6
	C99.6,43.3,100.7,44.8,100.7,47z M95.9,42.5c2,0,3.1-0.9,3.1-3.1c0-2.1-0.8-2.9-3.1-2.9h-2.4v6H95.9z M95.7,50.3
	c2.6,0,3.7-0.9,3.7-3.3c0-2.5-1.1-3.5-3.7-3.5h-2.3v6.8H95.7z"/>
<path class="st0" d="M109.4,50.2c-0.6,0.8-1.5,1.5-2.7,1.5c-2,0-3.2-1.2-3.2-3.3c0-2.6,1.6-3.8,4.8-3.8c0.5,0,0.9,0,1,0v-2
	c0-1.6-0.6-2.2-2-2.2c-1.2,0-2.2,0.5-3,1.2l-0.6-0.8c1-0.8,2.2-1.4,3.7-1.4c2.1,0,3,1.2,3,3.3v6.1c0,1.4,0.1,1.7,0.7,2.2l-0.6,0.8
	C110.1,51.5,109.6,51,109.4,50.2z M109.3,49.1v-3.7c-0.3,0-0.7,0-1,0c-2.5,0-3.5,0.8-3.5,2.9c0,1.7,0.6,2.4,2,2.4
	C108,50.8,108.8,50,109.3,49.1z"/>
<path class="st0" d="M114.5,49.9V35.1l1-0.2c0,0.2,0.2,0.8,0.2,2.1v12.6c0,0.9,0.1,1.1,0.6,1.1c0.1,0,0.3,0,0.3-0.1l0.2,0.9
	c-0.3,0.1-0.5,0.2-0.8,0.2C115,51.6,114.5,51.1,114.5,49.9z"/>
<path class="st0" d="M125.1,50.2c-0.6,0.8-1.5,1.5-2.7,1.5c-2,0-3.2-1.2-3.2-3.3c0-2.6,1.6-3.8,4.8-3.8c0.5,0,0.9,0,1,0v-2
	c0-1.6-0.6-2.2-2-2.2c-1.2,0-2.2,0.5-3,1.2l-0.6-0.8c1-0.8,2.2-1.4,3.7-1.4c2.1,0,3,1.2,3,3.3v6.1c0,1.4,0.1,1.7,0.7,2.2l-0.6,0.8
	C125.8,51.5,125.3,51,125.1,50.2z M125,49.1v-3.7c-0.3,0-0.7,0-1,0c-2.5,0-3.5,0.8-3.5,2.9c0,1.7,0.6,2.4,2,2.4
	C123.7,50.8,124.5,50,125,49.1z"/>
<path class="st0" d="M129.9,39.6l0.9-0.2c0.1,0.3,0.2,0.7,0.2,1.6c0.9-1.1,2-1.7,3.2-1.7c1.7,0,2.7,1.1,2.7,3v9.1h-1.2v-8.8
	c0-1.7-0.5-2.3-1.8-2.3c-1,0-2.2,0.6-2.9,1.5v9.6h-1.2V39.6z"/>
<path class="st0" d="M140.1,45.5c0-4,1.4-6.2,4.2-6.2c1.2,0,2.2,0.5,2.8,1.2l-0.6,0.8c-0.6-0.6-1.3-1-2.2-1c-2,0-2.9,1.5-2.9,5.1
	c0,3.9,0.9,5.3,2.9,5.3c1.1,0,1.6-0.4,2.3-1.1l0.6,0.8c-0.7,0.7-1.6,1.3-3,1.3C141.4,51.7,140.1,49.4,140.1,45.5z"/>
<path class="st0" d="M149.2,45.5c0-3.9,1.5-6.2,4-6.2c2.4,0,3.7,1.7,3.7,5.9v0.5h-6.4c0.1,3.8,1.1,5,3.1,5c1.1,0,1.9-0.5,2.5-1.1
	l0.6,0.7c-0.8,0.8-1.8,1.3-3.2,1.3C150.7,51.7,149.2,49.4,149.2,45.5z M155.6,44.8c0-3.5-0.8-4.5-2.4-4.5c-1.5,0-2.6,1.3-2.7,4.5
	H155.6z"/>
<path class="st0" d="M0,13.4c46.7-23.6,92.2,2.2,92.1,2.2c36-24.1,65.6-2.3,65.6-2.3s-25.2-24-65.5-3C86.8,8.2,40-13.6,0,13.4"/>
<path class="st0" d="M101.7,66.3c0,0.3-0.1,0.6-0.2,0.8c-0.1,0.3-0.3,0.5-0.5,0.7c-0.2,0.2-0.5,0.4-0.8,0.5
	c-0.3,0.1-0.7,0.2-1.2,0.2c-0.4,0-0.8-0.1-1.2-0.2c-0.4-0.1-0.8-0.3-1.1-0.5l0.4-0.9c0.3,0.2,0.6,0.3,0.9,0.4c0.3,0.1,0.6,0.2,1,0.2
	c0.4,0,0.8-0.1,1-0.3c0.2-0.2,0.4-0.5,0.4-0.8c0-0.3-0.1-0.5-0.2-0.6c-0.2-0.2-0.4-0.3-0.8-0.4l-0.7-0.2c-0.3-0.1-0.6-0.2-0.8-0.3
	c-0.2-0.1-0.4-0.3-0.5-0.5c-0.2-0.3-0.3-0.6-0.3-1c0-0.3,0.1-0.6,0.2-0.8c0.1-0.2,0.3-0.5,0.5-0.6c0.2-0.2,0.5-0.3,0.7-0.4
	c0.3-0.1,0.6-0.2,1-0.2c0.4,0,0.8,0.1,1.2,0.2c0.4,0.1,0.7,0.3,1,0.5l-0.5,0.8c-0.3-0.2-0.6-0.3-0.8-0.4c-0.2-0.1-0.5-0.1-0.8-0.1
	c-0.3,0-0.6,0.1-0.8,0.3c-0.2,0.2-0.3,0.4-0.3,0.7c0,0.2,0.1,0.4,0.2,0.5c0.1,0.1,0.4,0.2,0.7,0.3l0.8,0.2c0.5,0.1,0.9,0.4,1.2,0.7
	C101.6,65.3,101.7,65.7,101.7,66.3z"/>
<path class="st0" d="M105.1,68.3v-6.9h3.8l-0.1,0.9h-2.5v1.9h2.1v0.9h-2.1v2.2h2.8v1H105.1z"/>
<path class="st0" d="M118,68.3l-0.3-4.3c0-0.1,0-0.2,0-0.3c0-0.1,0-0.2,0-0.3c0-0.1,0-0.2,0-0.3c0-0.1,0-0.2,0-0.2
	c0,0.1-0.1,0.3-0.1,0.5c0,0.2-0.1,0.4-0.2,0.6l-1.3,4.4h-1l-1.1-4.2c0-0.1-0.1-0.2-0.1-0.4c0-0.1-0.1-0.3-0.1-0.4
	c0-0.1-0.1-0.2-0.1-0.3c0-0.1,0-0.1,0-0.2c0,0.1,0,0.1,0,0.2c0,0.1,0,0.2,0,0.3c0,0.1,0,0.2,0,0.4c0,0.1,0,0.2,0,0.4l-0.3,4.2h-1.1
	l0.6-6.9h1.5l1.1,3.9c0.1,0.3,0.1,0.5,0.2,0.7c0,0.2,0.1,0.3,0.1,0.4c0-0.1,0-0.3,0.1-0.5c0-0.2,0.1-0.4,0.2-0.7l1.1-3.9h1.5
	l0.6,6.9H118z"/>
<path class="st0" d="M122.7,68.3v-6.9h1.2v6.9H122.7z"/>
<path class="st0" d="M131.1,68.3l-1.5-3.2c-0.1-0.2-0.2-0.4-0.3-0.6c-0.1-0.2-0.2-0.4-0.3-0.6c-0.1-0.2-0.1-0.3-0.2-0.5
	c-0.1-0.2-0.1-0.3-0.1-0.4l0,0c0,0.3,0,0.6,0,0.9c0,0.3,0,0.7,0,1l0,3.3h-1.1v-6.9h1.3l1.7,3.4c0.1,0.2,0.2,0.3,0.2,0.5
	c0.1,0.2,0.1,0.3,0.2,0.5c0.1,0.2,0.1,0.3,0.2,0.4c0,0.1,0.1,0.2,0.1,0.3l0,0c0-0.1,0-0.2,0-0.4c0-0.2,0-0.3,0-0.5
	c0-0.2,0-0.4,0-0.6c0-0.2,0-0.4,0-0.5l0-3.2h1.1v6.9H131.1z"/>
<path class="st0" d="M140,68.3l-0.6-1.8h-2.2l-0.6,1.8h-1.2l2.3-6.9h1.3l2.2,6.9H140z M139.2,65.6c0,0,0-0.1-0.1-0.3
	c0-0.1-0.1-0.3-0.2-0.5c-0.1-0.2-0.1-0.4-0.2-0.7c-0.1-0.2-0.1-0.5-0.2-0.7c-0.1-0.2-0.1-0.4-0.1-0.6c0-0.2-0.1-0.3-0.1-0.3h0
	c0,0.1-0.1,0.2-0.1,0.4c0,0.2-0.1,0.3-0.2,0.5c-0.1,0.2-0.1,0.4-0.2,0.6c-0.1,0.2-0.1,0.4-0.2,0.6c-0.1,0.2-0.1,0.4-0.2,0.5
	c0,0.2-0.1,0.3-0.1,0.3H139.2z"/>
<path class="st0" d="M147.7,68.3l-0.6-1.1c-0.2-0.4-0.4-0.8-0.6-1c-0.2-0.3-0.4-0.5-0.6-0.7c-0.1-0.1-0.1-0.1-0.2-0.1
	c-0.1,0-0.1-0.1-0.3-0.1v3h-1.1v-6.9h2.1c0.4,0,0.7,0.1,1,0.2c0.3,0.1,0.5,0.2,0.7,0.4c0.2,0.2,0.3,0.4,0.4,0.6
	c0.1,0.2,0.1,0.5,0.1,0.8c0,0.2,0,0.5-0.1,0.7c-0.1,0.2-0.2,0.4-0.3,0.6c-0.1,0.2-0.3,0.3-0.5,0.4c-0.2,0.1-0.5,0.2-0.7,0.2
	c0.1,0,0.1,0.1,0.2,0.2c0.1,0.1,0.2,0.2,0.3,0.3c0.1,0.1,0.2,0.3,0.3,0.4c0.1,0.2,0.2,0.3,0.3,0.4l1,1.7H147.7z M147.5,63.4
	c0-0.4-0.1-0.6-0.3-0.8c-0.2-0.2-0.6-0.3-1.1-0.3h-0.6v2.2h0.6c0.3,0,0.5,0,0.7-0.1c0.2,0,0.3-0.1,0.4-0.2c0.1-0.1,0.2-0.2,0.2-0.4
	C147.4,63.8,147.5,63.6,147.5,63.4z"/>
<path class="st0" d="M152.2,68.3v-6.9h3.8l-0.1,0.9h-2.5v1.9h2.1v0.9h-2.1v2.2h2.8v1H152.2z"/>
</svg>
