<svg xmlns="http://www.w3.org/2000/svg" viewBox="0 0 364.7 151.8" enable-background="new 0 0 364.7 151.8"><style type="text/css">.st0{fill:#1D1D1B;} .st1{fill:#11B1DF;}</style><path class="st0" d="M9.1 106c2.6 0 4.8.7 6.5 2.1 1.7 1.4 2.6 3.6 2.6 6.4v2.4l-5.2-1.1v-1.4c0-1-.4-1.8-1.1-2.5-.8-.7-1.6-1.1-2.7-1.1-.8 0-1.4.2-1.9.5s-.9.7-1.2 1.2c-.3.5-.5 1-.6 1.6-.1.6-.1 1.2-.1 1.8 0 .9.2 1.8.6 2.8.4 1 .9 1.9 1.6 2.9.6.9 1.3 1.9 2.1 2.8.8.9 1.4 1.8 2.1 2.5.8 1.1 1.7 2.1 2.5 3.3.8 1.1 1.6 2.3 2.2 3.5.7 1.2 1.2 2.4 1.6 3.7.4 1.3.6 2.6.6 4s-.2 2.7-.5 3.9c-.3 1.3-.9 2.4-1.7 3.3-.8 1-1.8 1.7-3 2.3-1.2.6-2.7.8-4.4.8-1.4 0-2.6-.2-3.7-.7-1.1-.5-2-1.1-2.8-1.9-.8-.8-1.4-1.7-1.8-2.7-.4-1-.6-2.2-.6-3.4v-2.4l5.3 1.1v1.3c0 1 .4 1.9 1.2 2.6s1.7 1.1 2.7 1.1c1.4 0 2.4-.4 3.1-1.2.7-.8 1-1.8 1-3 0-1-.1-1.8-.2-2.6s-.3-1.5-.7-2.3c-.5-1.2-1-2.3-1.7-3.3-.7-1.1-1.4-2.1-2.2-3.1l-2.4-3c-.8-1-1.6-2-2.3-3-1.2-1.6-2.1-3.1-2.8-4.6-.7-1.5-1-3.4-1-5.6 0-2.7.8-4.9 2.3-6.5 1.4-1.7 3.6-2.5 6.6-2.5"/><path class="st0" d="M43.5 143.2c0 1.4-.2 2.6-.7 3.6-.5 1.1-1.1 2-1.9 2.7-.8.7-1.8 1.3-2.9 1.7-1.1.4-2.3.6-3.5.6-1.2 0-2.4-.2-3.5-.6-1.1-.4-2-.9-2.9-1.7-.8-.7-1.5-1.6-2-2.7s-.7-2.3-.7-3.6v-28.6c0-1.5.2-2.7.7-3.8.5-1.1 1.1-2 2-2.7.8-.7 1.8-1.2 2.9-1.6 1.1-.3 2.2-.5 3.5-.5 1.3 0 2.4.2 3.5.6 1.1.4 2 1 2.9 1.7.8.7 1.5 1.6 1.9 2.7.5 1.1.7 2.3.7 3.5v1.5h-5.2v-1.5c0-1.2-.4-2.2-1.1-2.7-.8-.6-1.6-.9-2.7-.9s-2 .3-2.7.9c-.7.6-1.1 1.5-1.1 2.7v28.6c0 1 .4 1.9 1.1 2.6.7.7 1.6 1 2.7 1 1 0 1.9-.3 2.7-1 .8-.7 1.1-1.6 1.1-2.6v-.6l5.2-1.6v2.3zM68.7 151h-5.2v-20h-7.6v20h-5.3v-44.3h5.3v19.3h7.6v-19.3h5.2zM104.2 106.7l-6.1 44.3h-4.8l-3.8-27.6-3.8 27.6h-4.8l-6-44.3h6l2.8 27.7 4-27.7h4.5l3.9 27.7 2.8-27.7zM118.9 140.9l-2.7-19.4-2.7 19.4h5.4zm6.7 10.1h-5.3l-.8-5.5h-6.6l-.7 5.5h-5.6l7.1-44.3h4.8l7.1 44.3zM145.1 135.4c0-1.7-.3-2.9-1-3.7-.7-.8-1.9-1.2-3.5-1.2h-3.1v15.5h3.1c1.5 0 2.7-.4 3.4-1.1.7-.8 1.1-2 1.1-3.6v-5.9zm-7.6-23.7v14.2h2.7c1.3 0 2.3-.4 3.2-1.1.9-.7 1.3-2 1.3-3.7v-4.7c0-1.5-.3-2.7-.9-3.5-.6-.8-1.8-1.2-3.5-1.2h-2.8zm12.9 30.4c0 2.6-.8 4.8-2.3 6.4-1.5 1.6-3.7 2.5-6.4 2.5h-9.3v-44.3h8.3c3.1 0 5.4.8 6.9 2.5s2.2 3.8 2.2 6.4v6.2c0 3.5-1.3 5.7-3.8 6.5 1.3.4 2.3 1.1 3.2 2.1.8 1 1.3 2.5 1.3 4.5v7.2zM173 151h-15.4v-44.3h15.4v5h-10.2v14h5.9v5h-5.9v15.3h10.2zM197.9 151h-4.6l-8.5-27v27h-4.9v-44.3h5.2l7.9 27.3v-27.3h4.9z"/><path class="st1" d="M218.3 116.4c0-1.8-.3-3-1-3.7-.7-.7-1.8-1-3.5-1h-3.1v15.9h3.1c1.4 0 2.5-.3 3.3-1 .8-.7 1.2-1.9 1.2-3.7v-6.5zm5.3 7.3c0 1.2-.2 2.4-.5 3.4-.4 1.1-.9 2.1-1.6 2.9-.7.8-1.6 1.5-2.7 2s-2.4.7-3.9.7h-4.1v18.3h-5.2v-44.3h9.3c2.8 0 5 .8 6.5 2.4 1.5 1.6 2.2 3.8 2.2 6.5v8.1zM242.6 116.4c0-1.6-.3-2.8-.9-3.6-.6-.8-1.8-1.2-3.7-1.2h-2.7v14.2h2.7c1.6 0 2.7-.4 3.5-1.1.7-.7 1.1-2 1.1-3.7v-4.6zm5.5 34.6h-5.2v-15.6c0-1-.1-1.8-.2-2.5-.2-.6-.4-1.1-.8-1.5-.4-.3-.8-.6-1.4-.7-.6-.1-1.3-.2-2.1-.2h-3.1v20.5h-5.3v-44.3h9c2.8 0 5 .7 6.5 2.2s2.2 3.7 2.2 6.6v6.1c0 1.6-.4 2.9-1.1 3.9-.8 1-1.8 1.7-3 2.1 1.2.4 2.3 1.1 3.1 2.3.9 1.1 1.3 2.7 1.3 4.8v16.3zM255.5 106.7h5.2v44.3h-5.2zM286.4 151h-4.7l-8.5-27v27h-4.9v-44.3h5.2l8 27.3v-27.3h4.9zM308.5 111.7h-5.4v39.3h-5.2v-39.3h-5.3v-5h15.9z"/><path class="st0" d="M316.7 148c0 .9-.2 1.6-.7 2.3-.4.7-1.1 1-2 1-.9 0-1.6-.3-2-1-.4-.7-.6-1.4-.6-2.2 0-.9.2-1.6.6-2.3.4-.7 1.1-1 2-1 .9 0 1.5.3 2 1 .5.5.7 1.3.7 2.2"/><path class="st0" d="M336.6 115.4c0-1.2-.4-2.1-1.1-2.7-.7-.6-1.6-1-2.7-1h-3.8v34.3h3.8c1.1 0 2-.4 2.7-1.1.7-.7 1.1-1.6 1.1-2.6v-26.9zm5.3 26.9c0 1.2-.2 2.3-.6 3.4-.4 1.1-1 2-1.8 2.7-.8.8-1.7 1.4-2.9 1.8-1.1.5-2.4.7-3.8.7h-9v-44.3h9c1.4 0 2.6.2 3.8.7 1.1.4 2.1 1 2.9 1.8.8.8 1.4 1.7 1.8 2.7.4 1.1.6 2.2.6 3.4v27.1zM364.7 151h-15.4v-44.3h15.4v5h-10.1v14h5.9v5h-5.9v15.3h10.1zM176.2 35.4c-1-.2-5.1-.7-10.4-1.5-9-1.3-17.3-2.4-17.8-2.5-3.5-.6-4.3-3.6-4.4-5.4l-.1 13.9s-.6 6 4.3 6.9c1.8.3 9.9 1.4 18.4 2.6 5.5.8 9.6 1.3 9.8 1.4 3.5.6 4.3 3.6 4.4 5.4l.1-13.9c.1-.1.7-6.1-4.3-6.9M193.7 41"/><path class="st1" d="M180.5 39.9c0 .5-.1 4.4-4.4 6.9-.7.4-4.7 2.8-10.1 5.9v-.1c-11.3 6.7-22.4 13.2-22.4 13.2v15.4s10.8-6.4 22-12.9v.1c5.4-3.2 9.5-5.7 10.7-6.4 4.2-2.7 4.4-6.9 4.4-6.9l-.2-15.2z"/><path class="st0" d="M216.7 19.4c-1.3-.9-7-4.2-13.9-8.3-9.8-5.8-18.5-10.9-18.5-10.9v15.4s8.3 4.9 17.9 10.6v.1c7.4 4.4 13.5 8 14.3 8.4 4.3 2.4 4.4 6.4 4.4 6.9l.1-15.3c.1 0 0-4.2-4.3-6.9"/><path class="st1" d="M221.4 39.8l-.1-13.9c-.1 1.8-.9 4.8-4.4 5.4-.4.1-6 .8-12.8 1.8-7.4 1-13.9 1.9-15.2 2.2-5 .8-4.4 6.9-4.4 6.9v1.7h-.1v37.6l13.6-7.7v-24.5c1.7-.2 3.5-.5 5.5-.8 6.6-.9 12.2-1.7 13.6-1.9 4.9-.8 4.3-6.8 4.3-6.8M163.4 10c-7.7 4.5-14.3 8.4-15.7 9.3-4.2 2.7-4.3 6.9-4.3 6.9l.1 15.3c0-.5.1-4.4 4.4-6.9.9-.5 7.4-4.3 15.2-9 9.3-5.5 17.3-10.3 17.3-10.3v-15.3s-7.8 4.6-17 10"/></svg>