<svg xmlns="http://www.w3.org/2000/svg" viewBox="0 0 136.1 39.7" enable-background="new 0 0 136.1 39.7"><style type="text/css">.st0{fill:#0078B8;} .st1{fill:#4A4A49;}</style><path class="st0" d="M8.6 23.4h-3.4l-5.2-22.7h3.4l3.6 15.8.2 1.1.2-1.1 4.1-15.8h3.4l4 15.8.2 1.1.2-1.1 3.7-15.8h3.2l-5.3 22.7h-3.4l-4.2-16.1-.2-1.3-.1.6-.1.6-4.3 16.2zM32.2.7h3.6v22.7h-3.6zM46.7 23.4h-3.6v-22.7h7.2c.9 0 1.6.1 2.3.2.7.1 1.2.3 1.7.6l1.2.9c.4.4.7.8.9 1.3.5 1 .8 2 .8 3.1 0 .4 0 .9-.1 1.3s-.3.9-.5 1.3l-.6 1.2c-.2.4-.5.7-.8 1.1-.3.3-.6.5-1 .8-.4.3-.8.5-1.3.7.1.1.2.2.3.2l.3.2c.1.1.3.3.4.5.2.2.3.4.5.7l.5.8c.1.3.3.5.4.7l3.8 7h-4.1l-3.2-6c-.3-.6-.8-1.3-1.2-1.9-.5-.6-1-1.2-1.5-1.6h-2.4v9.6zm0-12.4h2.5c1.1 0 1.9-.2 2.5-.5.6-.3 1-.8 1.3-1.5.3-.7.5-1.4.5-2.1 0-.6-.1-1.2-.4-1.7-.3-.5-.6-.9-1.1-1.2-.5-.3-1.4-.5-2.6-.5h-2.7v7.5zM84.5.7h3.6v22.7h-3.6zM94.8 23.4v-22.7h3.3l10.3 15.9.2.3v-16.2h3.3v22.7h-3.4l-10.2-15.9-.2-.5v16.4zM136.1 22.3c-2.5 1.2-4.8 1.8-7 1.8-1.1 0-2.2-.1-3.1-.4-.9-.2-1.8-.6-2.5-1-.7-.5-1.3-1-1.9-1.7-.6-.7-1.1-1.4-1.5-2.2-.8-1.7-1.3-3.9-1.3-6.5 0-3 .4-5.3 1.2-6.9.4-.8.9-1.6 1.5-2.2.6-.7 1.2-1.2 1.9-1.7s1.5-.8 2.4-1.1c.9-.2 1.8-.4 2.8-.4.7 0 1.3.1 2 .2.6.1 1.2.3 1.8.5.6.2 1.1.5 1.5.8.5.3.9.7 1.2 1.2.7.9 1 1.8 1 2.7v.5h-3.3v-.5c0-.4-.2-.9-.5-1.2-.4-.4-.8-.7-1.4-.9-.6-.2-1.3-.4-2.1-.4-2 0-3.6.8-4.6 2.4-1.1 1.6-1.6 3.9-1.6 6.7 0 1.4.1 2.7.4 3.8s.7 2.1 1.2 2.9c.5.8 1.2 1.4 2 1.8.8.4 1.6.6 2.6.6.6 0 1.2-.1 1.9-.2s1.4-.3 2.1-.6v-5.7h-5v-2.9h8.3v10.6z"/><path class="st1" d="M54 39.6l-2.1-2.9h-.1v2.9h-.9v-6.5h1.6c1.3 0 2.2.5 2.2 1.7 0 1.1-.9 1.7-1.9 1.8l.6.7 1.8 2.3h-1.2zm-1.6-5.8h-.6v2.2h.5c.9 0 1.5-.5 1.5-1.2s-.5-1-1.4-1"/><path class="st1" d="M57.5 33.1v6.5h3.3v-.7h-2.4v-2.3h2.3v-.7h-2.3v-2.1h2.4v-.7zM66 39.7c-2.1 0-2.9-1.3-2.9-3.2 0-2 1-3.5 3.2-3.5.5 0 1 .1 1.5.2l-.1.8c-.5-.2-1-.2-1.4-.2-1.5 0-2.1 1.1-2.1 2.6 0 1.6.7 2.5 2.2 2.5.5 0 1-.1 1.4-.3l.1.8c-.6.1-1.2.3-1.9.3"/><path class="st1" d="M74.4 33.1v2.8h-3.3v-2.8h-.9v6.5h.9v-3h3.3v3h.9v-6.5zM77.4 33.1v.8h1.9v5.7h.9v-5.7h1.8v-.8zM85.1 39.7c-.5 0-1-.1-1.4-.2l.1-.8c.4.2.9.3 1.4.3.7 0 1.4-.3 1.4-1.1 0-1.5-2.9-.9-2.9-2.9 0-1.1.8-1.8 2.3-1.8.4 0 .8 0 1.2.1l-.2.6c-.3-.1-.7-.2-1.1-.2-.9 0-1.3.4-1.3 1 0 1.4 3 .9 3 2.9-.1 1.3-1 2.1-2.5 2.1"/><path class="st1" d="M93.8 39.6l-.5-1.5h-2.8l-.5 1.5h-.9l2.4-6.5h1l2.4 6.5h-1.1zm-1.6-4.6l-.3-.9-.3.9-.9 2.4h2.3l-.8-2.4zM100.9 39.6l-2.5-4.2c-.3-.5-.5-.9-.7-1.3 0 .7.1 2.5.1 3.6v1.8h-.9v-6.5h1.2l2.5 4.1.7 1.3c0-.8-.1-2.6-.1-3.7v-1.7h.9v6.5h-1.2zM111.1 39.6h-1.1l-1.2-4.4c-.1-.4-.2-.8-.2-1.1 0 .4-.1.7-.2 1.1l-1.2 4.4h-1.2l-1.7-6.5h.9l1.1 4.2.3 1.2.3-1.2 1.2-4.3h1l1.2 4.3c.1.3.2.8.3 1.2l.2-1.1 1.1-4.4h.9l-1.7 6.6zM118.7 39.6l-.5-1.5h-2.8l-.5 1.5h-.9l2.4-6.5h1l2.4 6.5h-1.1zm-3-7c-.3 0-.5-.2-.5-.5s.2-.5.5-.5.5.2.5.5-.2.5-.5.5m1.3 2.4l-.3-.9-.3.9-.9 2.4h2.3l-.8-2.4zm.8-2.4c-.3 0-.5-.2-.5-.5s.2-.5.5-.5.5.2.5.5-.2.5-.5.5"/><path class="st1" d="M121.7 33.1v6.5h3.2v-.8h-2.3v-5.7zM125.5 33.1v.8h1.8v5.7h.9v-5.7h1.9v-.8zM132.2 33.1v6.5h3.4v-.7h-2.5v-2.3h2.3v-.7h-2.3v-2.1h2.5v-.7z"/><path class="st0" d="M66.1 11.2c.1.1.2.2.4.3l2.6-2.6-.2-.1c-.5-.3-.9-.8-1.2-1.2-.3-.5-.4-1-.4-1.5 0-.8.3-1.5.9-2.2.6-.6 1.6-1 2.9-1 .7 0 1.3.1 1.8.2s.9.3 1.1.6l.1.2 2.4-2.4-.1-.1c-.5-.5-1.2-.8-2-1-.9-.3-1.9-.4-3.1-.4-2.6 0-4.5.6-5.8 1.8-1.2 1.2-1.9 2.7-1.9 4.5 0 1 .2 1.9.6 2.7.4.8 1 1.5 1.9 2.2M77.5 13.8c-.4-.5-1-1.1-1.7-1.6l-.9-.6-2.7 2.6c.2.1.3.2.5.2.5.3 1 .6 1.4.9.3.3.5.6.7.9.2.4.3.7.3 1.2 0 .6-.1 1-.3 1.5-.2.4-.5.8-.9 1.2-.4.3-.8.6-1.3.8-.5.2-1 .3-1.6.3-.7 0-1.3-.1-1.9-.2-.5-.1-1-.3-1.4-.5-.4-.2-.6-.5-.8-.9l-2.5 2.4c.6.6 1.3 1.1 2.1 1.4 1.1.4 2.6.6 4.3.6 1.8 0 3.2-.3 4.3-.8 1.1-.6 2-1.4 2.6-2.5.6-1.1.9-2.2.9-3.4 0-.6-.1-1.3-.3-1.8-.1-.6-.4-1.1-.8-1.7"/></svg>