<svg xmlns="http://www.w3.org/2000/svg" viewBox="0 0 525 149.391"><path fill="#FFC900" d="M49.17 146.53h2.5v2.5h-2.5zm7.8-.34h3.2v3.2h-3.2zm8.12 0h3.2v3.2h-3.2zm8.1 0h3.2v3.2h-3.2zm-40.3-7.8h2.5v2.5h-2.5zm8.1 0h2.5v2.5H41zm7.6-.6h3.6v3.5h-3.6zm7.6-.6h4.6v4.6h-4.6zm8.1 0H69v4.6h-4.6zm8.1 0H77v4.6h-4.6zm-47.8-7.1h2.5v2.5h-2.5zm7.6-.6h3.5v3.5h-3.5zm7.6-.6h4.6v4.6h-4.6zm8.1 0h4.6v4.6H48zm7.6-.6h5.7v5.7h-5.7zm8.1 0h5.6v5.7h-5.6zm8.1 0h5.6v5.7H72zM16.4 122H19v2.5h-2.5zm7.6-.52h3.6v3.58h-3.5zm7.64-.5h4.62v4.6h-4.6zm7.6-.5H45v5.65h-5.7zm8.14 0h5.7v5.65h-5.7zM8.5 114H11v2.5H8.5zm7.6-.5h3.57v3.54H16.1zm7.6-.54h4.63v4.6h-4.6zm7.62-.52H37v5.65h-5.7zm-22.8-6.5H11v2.5H8.5zm7.07-1.06h4.6v4.6h-4.7zm7.6-.52h5.7V110h-5.7zM.3 97.8h2.5v2.52H.32zm7.6-.52h3.57v3.56h-3.5zm7.6-.52h4.63v4.6H15.5zm7.6-.53h5.7v5.66h-5.7zM0 89.33h3.22v3.22H0zm7.43-.7h4.63v4.6H7.43zm7.6-.52h5.7v5.7h-5.7zM0 81.3h3.22v3.2H0zm7.43-.7h4.63v4.6H7.43zm7.6-.53h5.7v5.66h-5.7zM0 73.1h3.22v3.2H0zm7.43-.7h4.63V77H7.43zm7.6-.53h5.7v5.66h-5.7zM98 146.53h2.5v2.5H98zm-8.5-.34h3.22v3.2h-3.2zm-8.13 0h3.22v3.2h-3.3zm-8.14 0h3.22v3.2h-3.22zm41.04-7.8h2.5v2.5h-2.5zm-8.14 0h2.52v2.5h-2.52zm-8.66-.6h3.56v3.5h-3.56zm-8.67-.6h4.63v4.6H88.8zm-8.13 0h4.62v4.6h-4.7zm-8.14 0h4.62v4.6h-4.62zm49.88-7.1h2.6v2.5h-2.5zm-8.6-.6h3.6v3.5h-3.5zm-8.6-.6h4.6v4.6h-4.6zm-8.1 0h4.6v4.6H97zm-8.6-.5H94v5.6h-5.7zm-8.1 0H86v5.6h-5.7zm-8.1 0H78v5.6h-6zm58.5-6.5h2.5v2.5h-2.5zm-8.6-.5h3.6v3.6H122zm-8.7-.5h4.6v4.6h-4.6zm-8.6-.6h5.7v5.7h-5.7zm-8.1 0h5.7v5.7h-5.7zm42.3-6.6h2.5v2.5H139zm-8.7-.5h3.6v3.6h-4zm-8.6-.5h4.6v4.6h-4.6zm-8.7-.6h5.7v5.7H113zm26-6.6h2.5v2.5H139zm-9.2-1.1h4.7v4.6H130zm-8.6-.5h5.7v5.7h-6zm26-6.6h2.5v2.6H147zm-8.7-.5h3.6v3.6h-3.52zm-8.6-.5h4.6v4.6H130zm-8.6-.5h5.6v5.7h-6zm25.6-6.9h3.2v3.2H147zm-8.83-.7h4.6V93H138zm-8.7-.5h5.7v5.7h-6zm17.5-6.9h3.2V84h-3.2zm-8.8-.7h4.6V85H138zm-8.64-.5h5.7v5.6h-6zm17.5-6.9h3.2V76H147zm-8.8-.7h4.6v5H138zm-8.7-.58h5.6v5.66h-6zM49.16.3h2.5v2.5h-2.5zm7.8-.35h3.2v3.2h-3.2zm8.1 0h3.2v3.2h-3.2zm8.1 0h3.2v3.2h-3.2zM32.9 8.5h2.5V11h-2.5zm8.13 0h2.52V11h-2.52zm7.6-.53h3.58v3.56h-3.5zm7.62-.52h4.63v4.6h-4.63zm8.14 0H69v4.6h-4.6zm8.1 0h4.6v4.6h-4.6zM24.7 16.6h2.52v2.5H24.7zm7.6-.53h3.58v3.55h-3.56zm7.62-.53h4.6v4.6H40zm8.13 0h4.62v4.6h-4.6zm7.6-.52h5.7v5.65H55.7zm8.14 0h5.7v5.65h-5.7zm8.1 0h5.6v5.65H72zm-55.4 9.7H19v2.5h-2.5zm7.6-.53h3.6v3.5h-3.5zm7.6-.6h4.6v4.6h-4.6zm7.6-.5H45v5.6h-5.7zm8.1 0H53v5.6h-5.7zm-39 9.7H11v2.5H8.5zm7.6-.6h3.5v3.5H16zm7.6-.6h4.6v4.6h-4.6zm7.6-.5H37v5.6h-5.7zM8.5 40.9H11v2.5H8.5zm7.05-1.05h4.62v4.6h-4.64zm7.6-.53h5.7V45h-5.7zm-22.8 9.7h2.5v2.5H.35zm7.6-.53h3.57v3.6H7.96zm7.6-.5h4.63v4.6h-4.7zm7.6-.5h5.7v5.7h-5.7zM0 56.8h3.22V60H0zm7.43-.7h4.63v4.6H7.43zm7.6-.52h5.7v5.7h-5.7zM0 65h3.22v3.2H0zm7.43-.7h4.63v4.6H7.43zm7.6-.53h5.7v5.66h-5.7zM0 73.1h3.22v3.2H0zm7.43-.7h4.63V77H7.43zm7.6-.54h5.7v5.66h-5.7zM98 .36h2.5v2.5H98zM89.5 0h3.22v3.2h-3.2zm-8.13 0h3.2v3.2h-3.2zm-8.14 0h3.22v3.2h-3.22zm41.04 8.47h2.5v2.5h-2.5zm-8.14 0h2.52v2.5h-2.52zm-8.66-.53h3.56v3.56h-3.56zm-8.67-.52h4.63v4.6H88.8zm-8.13 0h4.62v4.6h-4.7zm-8.14 0h4.62v4.6h-4.62zm49.88 9.17h2.6v2.5h-2.5zm-8.6-.6h3.6v3.5h-3.5zm-8.6-.6h4.6V20h-4.6zm-8.1 0h4.6V20H97zm-8.7-.5H94v5.6h-5.7zm-8.1 0H86v5.6h-5.7zM72 15h5.7v5.66H72zm58.55 9.7h2.5v2.5h-2.5zm-8.66-.52h3.5v3.54h-3.6zm-8.7-.54h4.6v4.6h-4.7zm-8.7-.52h5.7v5.65h-5.7zm-8.2 0h5.7v5.65h-5.7zm42.3 9.7h2.5v2.5h-2.5zm-8.7-.52h3.5v3.56H130zm-8.7-.52h4.6v4.6h-4.7zm-8.7-.52h5.6v5.65h-5.7zm25.9 9.7h2.5v2.5h-2.5zm-9.2-1.06h4.7v4.6h-4.6zm-8.7-.52h5.7v5.65h-5.7zm26 9.7h2.5v2.5h-2.5zm-8.7-.53h3.5v3.56H138zm-8.7-.53h4.6v4.6h-4.6zm-8.7-.52h5.7v5.66h-5.7zm25.6 9.34h3.2v3.2H146zm-8.8-.7h4.7v4.6h-4.7zm-8.7-.52h5.7v5.66h-5.7zm17.5 9.35h3.2v3.2H146zm-8.8-.7h4.6v4.6h-4.6zm-8.7-.53h5.7v5.66h-5.7zM146 73.1h3.27v3.2h-3.2zm-8.8-.7h4.6V77h-4.6zm-8.65-.6h5.66v5.6h-5.6zM22.1 87.4h4.28v-1.06h-4.3v-23.3h4.3V62h-4.2v-7.35h8.18v-7.8h4.27V45.8h-4.3v-7.33h8.13V30.4H54.7v-8.2h7.53v4.27h1.07V22.2h23.38v4.27h1.07V22.2H95v8.2h16.26v8.07h8.13v7.33h-4.3v1.06h4.3v7.8h8.1V62h-4.3v1.04h4.3v23.3h-4.3v1.05h4.3v7.4h-8.2v7.7H115v1h4.26v7.5h-8.14v8.1H95v8h-7.3v-4.3h-1.06v4.3H63.26v-4.3H62.2v4.2h-7.53v-8H38.4v-8h-8.13v-7.5h4.27v-1h-4.28v-7.8h-8.13z"/><path fill="#fff" d="M54.85 101.18s-4.57-.86-6.22-.7c.04 1.02-.1 2.05-1.76 2.05-1.64 0-1.8-.87-2.47-.95-.6.6-2.36 2.6-1.08 4.62 1.27 2.02 3.46 2.48 5.2.95.9-.8.64-2.5.6-3.04-.04-.5 1.5-.2 2.2.9.83-.3 2.9-2.5 3.53-3.8m47.48-3.4c1.13.1 3.83.4 1.4 4.4-1.8 2.9-7.46 5-7.46 5s2.7.2 2.24 1.7c-.4 1.5-1.4 2.6-8.7 3-7.3.5-20.1-5.1-21.6-5.7.4 1.5.5 5.1-2.5 4.9-1.9-.1-2.4-2.3-2.2-2.5.3-.2 2.2-.6 1.8-1.9-.4-1.2-3-3.3-6.5-4.1-.5.1-2.2 3.1-2.9 3.6 1.3 0 4.5.3 3.7 3.4-.8 3.1-4.4 1.8-4.4.5 0-.6.9-.1.7-1.1-.1-.6-1.1-.7-2.2.6-1.1 1.3-3.9 2.1-6.1 2.17-2.1 0-7.1-1.1-7.6-6.24-.4-5.2 4.8-7.3 6.6-7.5 1.8-.1 3.7 0 4.3 0 .4-.42.7-1.5.1-2s.2-2.3 1.9-2.3c1.8.1 3.5 1.67 1.8 4.67 1.1.75 1.9.9 2.2.8s.8-1.5.9-2.14c.3-1.5.5-4.3-.2-5.9s-1.4-1.1-2.1-1.2c-.6-.1-1.4-.9-1.5-2.3 0-1.34 1.4-2.4 2.6-2.4s2.8 1.6 3.3 3c.6-2.92 0-8.45-.9-10.4-.8-1.93-1.5-2.7-3.1-2.64-1.6.04-1.4 1.03-2.4 1.5-2.1-.9-2-3.67-.9-4.9 1.2-1.3 3.4-1.2 3.8-1.2.3-.5.5-.8.9-.8 1.2-.1 2.3 1.3 3.1 2.1.8.85 1.4 2.9 1.5 3.8l.5-.8c.2-.4.8-.5.8-.5s.1-.3 0-.6c-.3-.2-.8-1-.9-1.6-.1-.6.4-1.55.4-1.7 0-.1-.6-.05-.9-1.35-.3-1.3 1.3-4 1.5-4.35.3-.4.7-2.4-.3-2.5-2.5-.3-1.1.9-2.1.7-2.3-.32-2.2-5.2.5-5.9 2.8-.7 4.7 2.2 5.1 3 .17-.6.6-2.8 2.5-7.4s3.1-4.8 3.1-6.3c.07-1.5-1.05-1.27-2.1-1.3 0-2 .75-4.35 3.3-4.5 2.56-.17 3.5 2.3 3.5 2.3S85 35.9 94.4 36c9.43.06 11.63 7.6 11.56 10.15-.1 2.5-.8 6.7-5.1 7.74-2.06.5-4.2-2.9-2.13-5.3 0 0 2.4 1.8 3.5.9-1.14-.2-1.3-.7-1.3-1 0-.3 2.36-1.4 1.46-3.1-.4-.4-1 1.8-2.2.4-.7-1.4.6-3.8-3.6-4 .7.4 3.3 4.4-.4 5.4-4.5.7.6-5.3-8.9-5.5 0 0-3.9-.2-7.3 3.2 1.9.4 4.6 3.3-.2 5.1-.6-.7 1.1-2-2.4-1.6-3.5.4-8.1 5.6-8.8 13.3 1.6-1.4 2.8-.3 3.4.7.5.9-.8 2.1-1.5 2.2-.7.1-1.7.6-1.8 2.2-.1 1.6-.4 3.2-1.7 3.8 0 0 .8.7.5 1.8-.3 1-1 1.3-1.3 1.4v.2s.9 1.6.6 3.73c.7-.34 2.7-1.2 3.6.6.9 1.8-.2 3.16-1.2 3.6s-1.2.35-1.8-.3c-.7-.6-1.6.4-1.6 1.2-.1.8-1.7 5.6-2.3 7.9-.6 2.24-3.2 7.9-3.78 8.7.7.2 2.6 1.8 6.56 1.55 3.9-.23 5.3-1.85 5.6-2.2-.5-.16-.7-2.06.2-2.6.9-.57 3.7-.53 4.7 1.9.95 2.4-.1 5.3-4.5 6 2.7.47 3.2 1.76 12.15 2.1 8.9.4 14.2-6.14 13.35-10.8-.8-4.6-1.7-3.3-4.13-2.4-1.9-.6-2.1-3.64-.5-4.83.6-.5 2.4-1.6 3.3-1.5.34-.6.83-2.3 2.85-1.5 2 .8 7.07 3.1 2.73 12.4h-.1z"/><path d="M166.95 93.58h20.37v-2.82h-16.9V55.8h-3.47zm26.32-37.77v25.5c0 8.6 4.5 12.9 13.7 12.9s13.7-4.3 13.7-12.8V55.8h-3.46v25.75c0 7.22-3.5 9.73-10.2 9.73-6.7 0-10.2-2.52-10.2-9.73V55.8h-3.4z"/><path fill-rule="evenodd" d="M233.5 58.63h7.36c8.4 0 12.92 5.86 12.92 16.07 0 10.2-4.52 16.05-12.92 16.05h-7.35V58.63zm-3.46 34.95h10.72c11.76 0 16.48-8.8 16.48-18.88 0-10.1-4.72-18.9-16.48-18.9h-10.7v37.8z" clip-rule="evenodd"/><path d="M272.26 93.58h3.47l7.4-31.07h.1l7.4 31.1h3.48l10.2-37.7h-3.5l-8.2 31.5h-.1l-7.4-31.5h-3.5L274 87.4h-.1l-8.1-31.5h-3.5zm40.77-37.77h3.47v37.8h-3.47zm40.17 10.5c-1.38-6.4-5.8-10.9-12.88-10.9-8.14 0-14.7 6.9-14.7 19.4 0 12.5 6.1 19.4 14.54 19.4 5.25 0 8.03-1.3 10.3-4.2h.1v3.7h3V75.9h-13v2.82h9.54v3.45c0 5.02-3.5 9.1-8.87 9.1-9.77 0-12.13-8.47-12.13-16.58 0-10.2 4.37-16.6 11.04-16.6 5.62 0 8.6 3.8 9.76 8.7l3.27-.6zm7.6 17.7c2.1 6.9 6.25 10.1 13.5 10.1 6.14 0 11.55-3.5 11.55-10 0-5.4-2.16-8-12.8-12-7-2.6-7.74-4.4-7.74-7 0-4.4 3.1-6.9 7.5-6.9 4.8 0 7.8 3 9.2 7.2l3-.9c-1.7-5.8-6.1-9-12.1-9-7 0-10.9 4.2-10.9 9.8 0 12.5 20.6 8.6 20.6 18.7 0 4.6-2.8 7.6-7.5 7.6-6 0-9.3-2.5-10.8-8.2l-3.2 1z"/><path fill-rule="evenodd" d="M397.8 75.37h7.87c7.62 0 10.77 3.3 10.77 7.64 0 5.4-3 7.8-9.66 7.8h-8.98V75.4zm0-16.74h6.83c6.82 0 10.3 1.36 10.3 6.9 0 5.56-4.42 7.02-8.9 7.02h-8.23V58.63zm-3.47 34.95h12.08c8.2 0 13.5-2.5 13.5-10.36 0-4.76-2.7-7.95-6.8-9.78 3.8-1.73 5.4-4.08 5.4-8.16 0-6.54-4.1-9.47-13.4-9.47h-10.6v37.8z" clip-rule="evenodd"/><path d="M428.56 55.8v25.43c0 8.58 4.5 12.87 13.7 12.87s13.7-4.3 13.7-12.87V55.8h-3.45v25.75c0 7.22-3.5 9.73-10.2 9.73-6.7 0-10.2-2.52-10.2-9.73V55.8h-3.4z"/><path fill-rule="evenodd" d="M469.03 58.63h9.35c5.46 0 8.2 2.78 8.2 7.43 0 4.66-3.16 7.43-8.2 7.43h-9.35V58.6zm13.13 17.06c5.4-1.4 7.88-4.7 7.88-9.7 0-6.2-4.2-10.3-11.66-10.3h-12.8v37.8h3.45V76.3h9.82l8.82 17.26h3.8l-9.3-17.9z" clip-rule="evenodd"/><path d="M524.58 66.22c-1.3-6.43-5.77-10.93-12.8-10.93-8.15 0-14.7 6.9-14.7 19.4 0 12.5 6.1 19.4 14.53 19.4 5.3 0 8.1-1.3 10.3-4.3h.1v3.7h3V75.9h-13v2.82h9.6v3.45c0 5.02-3.5 9.1-8.9 9.1-9.7 0-12.1-8.47-12.1-16.58 0-10.2 4.4-16.6 11.1-16.6 5.6 0 8.6 3.8 9.8 8.7l3.3-.6z"/></svg>