<svg xmlns="http://www.w3.org/2000/svg" viewBox="0 0 675 675"><path fill="#0a0a0a" d="M459 494.8c-2.5 1.7-5.5 2.5-8.7 2.5-8.9 0-16.2-7.2-16.2-16.2v-282.9c0-2.5-2-4.6-4.6-4.6-.9 0-1.7.2-2.3.6-8.9 5.7-95.6 66.5-110 76.2-2.5 1.7-5.5 2.5-8.7 2.5-8.9 0-16.2-7.2-16.2-16.2v-58.6c0-2.5-2-4.6-4.6-4.6-.9 0-1.7.2-2.3.6-37.3 23.8-125.9 88.5-170.3 121.1h-33.6c29.2-21.2 145.8-105.9 189.3-135.3 2.5-1.7 5.5-2.5 8.7-2.5 8.9 0 16.2 7.2 16.2 16.2v58.6c0 2.5 2 4.6 4.6 4.6.9 0 1.7-.2 2.3-.6 15.6-9.9 101.9-70.7 110-76.2 2.5-1.7 5.5-2.5 8.7-2.5 8.9 0 16.2 7.2 16.2 16.2v282.9c0 2.5 2 4.6 4.6 4.6.9 0 1.7-.2 2.3-.6 15.6-9.9 120.1-83.1 134.8-94.4.6-.5 1.1-1.2 1.4-2 .9-2.4-.4-5-2.7-5.8l-101.4-36.8.8-3s97.4 35.4 105.9 38.4c8.4 3.1 12.7 12.3 9.7 20.7-1.1 3-2.9 5.5-5.3 7.3-14.4 10.2-114.3 80.1-128.6 89.8z"/></svg>
